<svg id="Layer_1" data-name="Layer 1" xmlns="http://www.w3.org/2000/svg" viewBox="0 0 20 20"><path d="M4.84,1.43a.39.39,0,0,1,.1-.08l.41-.22L5.68,1,6,.82c.07,0,.15-.06.21-.09S6.5.65,6.62.6L7,.46s.06,0,.1,0L7.45.33,7.74.26,8,.21l.4-.09.39,0,.26,0h1.23c.11,0,.22,0,.34,0H11l.21,0h.07l.43.09.55.1.18,0c.25,0,.48.15.72.21l.05,0v0l-.1,0c-.05,0-.09,0-.09.07a.31.31,0,0,0,0,.13s.05,0,.07,0a.45.45,0,0,0,.38.16.21.21,0,0,1,.15,0s.06,0,.08,0,.09-.08.06-.14L13.77.78A.22.22,0,0,1,14,.89a.32.32,0,0,0,.35.2.4.4,0,0,1,.26,0l.4.21a.57.57,0,0,1,.13.08v0H15l-.3,0c-.05,0-.09.06-.1.14s0,.11.08.11l.34.05h0c.15.07.31,0,.46.1a.09.09,0,0,0,.07,0c.11-.05.19,0,.26.07a5.19,5.19,0,0,1,.46.36l.2.17.22.19c.08.07.07.13,0,.17l-.12,0a.11.11,0,0,0-.06.07s0,.06,0,.06a.14.14,0,0,0,.09,0l.17-.14a.09.09,0,0,1,.13,0c.1.1.21.2.31.31l.45.48s0,0,0,0,0,.05,0,0l-.34-.09a.29.29,0,0,0-.27.06.39.39,0,0,0-.1.08.19.19,0,0,0,0,.1.14.14,0,0,0,.08.07,2.21,2.21,0,0,0,.63.13,1.21,1.21,0,0,1,.18.05l.14,0a.17.17,0,0,1,.17.12s0,.06-.06,0l-.34-.08s-.06,0-.1,0a.44.44,0,0,0-.16,0c-.08,0-.11.09-.05.14s.18.12.27.19.3.07.46.1a1,1,0,0,1,.24.09.46.46,0,0,1,.17.24c0,.05.05.09.07.13l.16.25.16.32s0,0,0,.08h-.08l-.24-.08h-.06a.41.41,0,0,1-.19,0,1.37,1.37,0,0,0-.29-.07l-.34-.08-.15,0a.13.13,0,0,1-.09,0,.46.46,0,0,0-.23-.06H17s-.05,0-.08,0l-.42-.07-.55-.08h-.07l-.19,0-.11,0-.17,0a.13.13,0,0,0-.18.07.1.1,0,0,0,0,.14l0,0a1.66,1.66,0,0,0,.22,0l.22.09s.07,0,.1,0a.37.37,0,0,1,.29.06h.13l.21.06a.38.38,0,0,0,.21,0c.06,0,.13,0,.2.06l.21,0a.35.35,0,0,1,.11,0,.4.4,0,0,0,.24.07,2.44,2.44,0,0,1,.26.06s0,0,.07,0,.21.05.31.07l.17,0a.61.61,0,0,1,.13,0,.6.6,0,0,0,.29.08.32.32,0,0,1,.14,0,.2.2,0,0,0,.25,0c.08-.07.09-.07.13,0s.1.23.15.35a2.83,2.83,0,0,1,.11.31c0,.1.06.21.09.31l.18.64a1.27,1.27,0,0,1,.06.18c0,.07,0,.08-.09,0s-.12,0-.17,0a.1.1,0,0,0,0,.17l.11,0a.17.17,0,0,0,.12,0c.06,0,.07,0,.07.06l0,.16s0,.06,0,.08l-.08,0-.1-.05a1,1,0,0,1-.16-.06.14.14,0,0,0-.19,0,.33.33,0,0,0-.12.23.2.2,0,0,0,0,.11c0,.06,0,.08,0,.09s-.1.06-.06.13a.19.19,0,0,0,.13.1l.29.11h0a.59.59,0,0,1,.31.09c.05,0,.08.05.1.11s0,.22-.15.28-.09.05-.07.1a.43.43,0,0,0,.09.1h0s.1,0,.1,0A.37.37,0,0,1,20,10s0,0-.06,0l-.33-.12a.37.37,0,0,0-.34,0l-.08.05a.13.13,0,0,0-.06.17s.05.05.07,0,.08,0,.12,0a.36.36,0,0,0,.2,0,.39.39,0,0,1,.24.05l.18.08s.06,0,.06.06v.17s0,.07-.07.06l-.14,0-.53-.14h0s-.1,0-.11,0a.2.2,0,0,0,0,.15.3.3,0,0,0,.13.09l.51.18a.38.38,0,0,1,.15.09s0,.08,0,.12h-.05l-.15-.07-.09,0c-.05,0-.07,0-.05.08a.35.35,0,0,0,.25.22c.05,0,.07,0,.06.08a1.89,1.89,0,0,1,0,.23.14.14,0,0,1-.07.06.11.11,0,0,0,0,.19.06.06,0,0,1,0,.08c-.05.2-.09.4-.14.6s-.09.26-.13.39-.06.22-.1.33a3.45,3.45,0,0,1-.14.34c0,.09-.07.17-.1.26s-.07.16-.11.25l-.14.3a2,2,0,0,1-.14.25,2,2,0,0,0-.1.21s0,.07-.1.06a2.06,2.06,0,0,0-.26,0h-.05a.18.18,0,0,1-.16,0,.08.08,0,0,0-.1,0s-.06,0-.09,0,0,0,0,.06,0,0,0,.06l.11,0,.14,0a.09.09,0,0,0,.07,0c.09-.05.16,0,.24,0s0,0,0,.06-.07,0-.12,0l-.12,0-.2,0-.44-.1h0a.24.24,0,0,1-.2,0,.38.38,0,0,0-.1,0h-.64a.23.23,0,0,0-.18,0h0a.28.28,0,0,0-.22,0s-.08,0-.12,0h-.33a.79.79,0,0,0-.22,0,.82.82,0,0,1-.27,0H13.92c-.06,0-.13,0-.19,0s-.13,0-.2,0,0,0,0,0-.15,0-.21,0a.11.11,0,0,0,0,.06.15.15,0,0,0,.17.08h.17a.11.11,0,0,1,.11,0,.09.09,0,0,0,.07,0l.38,0,.36,0h.29l.55,0,.14,0h.05a.2.2,0,0,1,.21,0h0l.3,0,.09,0,.36,0h.23c.09,0,.16,0,.24,0a1.38,1.38,0,0,0,.29,0h.36c.07,0,.14,0,.21,0a.12.12,0,0,0,.08,0h.23l.11,0-.05.09s0,0-.05.07a.11.11,0,0,1-.13,0l-.11,0s-.05,0-.07,0a.08.08,0,0,0-.12,0l0,0c-.06,0-.06.08,0,.11a.58.58,0,0,0,.14,0l.1,0s0,.07,0,.1l-.07.07c0,.06-.08.09-.14.05h0c-.08.05-.16,0-.24,0l-.11,0a.13.13,0,0,1-.12,0h0l-.27,0a1.47,1.47,0,0,1-.21,0h-.21a.78.78,0,0,0-.37,0H16l-.44,0s-.08,0-.11,0l-.51,0-.22,0s0,0-.05,0h-.22a.11.11,0,0,0-.13,0,.12.12,0,0,0,0,.14.18.18,0,0,0,.17.07h1a.41.41,0,0,1,.11,0H16s.05,0,.06,0a.21.21,0,0,1,.19,0,0,0,0,0,0,0,0c.07,0,.16,0,.25,0h.28l.3,0h.42l0,0a.14.14,0,0,1,0,.06l-.18.19-.21.17,0,0a.21.21,0,0,1-.25.16h-.61l-.27,0h-.71a.12.12,0,0,0-.15.06c0,.06,0,.1,0,.14a.5.5,0,0,0,.28.12,1.36,1.36,0,0,0,.2,0,1,1,0,0,0,.38-.07,1.23,1.23,0,0,1,.19,0l.26-.05.22,0a.05.05,0,0,1,0,0l0,0a.31.31,0,0,1-.21.09c-.1,0-.21,0-.32,0a.09.09,0,0,0-.07.09c0,.05,0,.06.07.07l.08,0,0,0a0,0,0,0,1,0,0,.43.43,0,0,1-.16,0l-.17,0-.11,0a.17.17,0,0,0-.22.07.11.11,0,0,0,0,.08.76.76,0,0,0,.16.06.88.88,0,0,0,.16,0,0,0,0,0,1,0,0,.05.05,0,0,1,0,0l-.24.16a.08.08,0,0,1-.11,0,.3.3,0,0,0-.27-.08.81.81,0,0,1-.22,0l-.25,0h-.5l-.33,0h0a1.7,1.7,0,0,0-.39,0h-.21a2.58,2.58,0,0,0-.29,0h0c-.09,0-.14,0-.2.08a.69.69,0,0,1-.25,0s-.08,0-.1,0,0,.11,0,.12a.79.79,0,0,0,.36.24.12.12,0,0,0,.1,0,.78.78,0,0,1,.3-.07s.05,0,.05,0,.14,0,.21-.06h0a2.8,2.8,0,0,0,.5,0,3,3,0,0,0,.42,0h.29l.28,0h.14s0,0,0,0a.44.44,0,0,1-.34.14,1,1,0,0,0-.25,0h-.41l-.42,0-.06,0-.26,0h-.05c-.09,0-.19,0-.29.05a.25.25,0,0,0-.13.12s.05.07.08.11,0,0,.06,0,0,0,.05,0,.15,0,.23,0a2.3,2.3,0,0,1,.26,0c.08,0,.16-.07.25,0s0,0,0,0H14a1.41,1.41,0,0,0,.41,0h.07v0l0,0a2.18,2.18,0,0,1-.23.09.29.29,0,0,1-.13,0c-.05,0-.1,0-.15,0s0,0,0,0-.13,0-.2,0h-.18a.42.42,0,0,0-.27.05c-.09.06-.09.14,0,.2s0,0,.05.05l-.06,0-.3.09-.32.1a.06.06,0,0,1-.06,0c-.06-.07-.12-.14-.23-.11l-.05,0-.07,0s0,.05,0,.08a0,0,0,0,0,0,0h0s0,0-.06-.06a0,0,0,0,1,0-.05.14.14,0,0,1,0-.06l-.08,0h-.12a.39.39,0,0,0-.15,0,.15.15,0,0,0-.1.07.09.09,0,0,0,.05.12c.06,0,.12.05.13.12a0,0,0,0,0,0,0l.06.08-.14,0-.1,0h-.06s-.08,0-.12,0a.87.87,0,0,1-.22,0h-.08s-.05,0-.06,0a.31.31,0,0,0-.28-.14l-.18,0h-.1s0,0-.08,0l-.06,0,0,0,.06,0s0,0-.06-.05a.14.14,0,0,0-.09,0,.22.22,0,0,1-.15-.06s-.08,0-.12,0h-.09l-.11,0a.12.12,0,0,0-.07.05.1.1,0,0,0,0,.07c.06.09.17.1.27.13l.05,0,.11,0s0,0,.05,0,0,0-.06,0-.11,0-.12.07a.14.14,0,0,0,0,.09.86.86,0,0,1,.07.1h-.17c-.07,0-.1,0-.11-.09a.27.27,0,0,0-.36-.18c-.06,0-.05.08,0,.13s.09.07.05.12-.09,0-.13,0H9.19l-.41-.05s0,0,0,0-.18,0-.27,0-.05,0-.05,0,0-.07.06-.09a2.34,2.34,0,0,1,.27-.15.62.62,0,0,0,.14-.14.15.15,0,0,0,0-.13L8.68,19c0-.07-.14-.06-.2,0l-.22.32s0,.09-.07.13l-.14.19L8,19.73s0,.05-.06.05-.07,0-.07,0a.08.08,0,0,1,0-.08,2.75,2.75,0,0,1,.19-.28l.24-.28a.73.73,0,0,0,.16-.3.37.37,0,0,0,0-.15l-.18-.23c-.08-.1-.17-.18-.25-.28l-.68-.82c-.16-.2-.33-.39-.49-.58a.5.5,0,0,0-.1-.14A5.88,5.88,0,0,1,6.2,16a.18.18,0,0,0-.29,0l-.7.57-.16.14a.17.17,0,0,0,0,.25l.33.41.29.33.5.64.56.69.3.35a.93.93,0,0,0,.15.13s0,.06,0,.09H7.12a3,3,0,0,0-.53-.19,2.09,2.09,0,0,1-.35-.13.2.2,0,0,1-.08-.08l-.37-.46-.29-.35c-.1-.12-.21-.23-.31-.34l-.36-.44c-.08-.1-.14-.2-.21-.29a.17.17,0,0,0-.27,0,3.4,3.4,0,0,1-.52.48.09.09,0,0,1-.13,0l-.42-.36h0c-.09-.09-.09-.09,0-.14a2.12,2.12,0,0,0,.2-.12L3.72,17,3.8,17A1.88,1.88,0,0,0,4,16.81a.14.14,0,0,0,0-.22,2.83,2.83,0,0,1-.39-.52,3.5,3.5,0,0,0-.24-.3l-.22-.32L2.87,15l0,0a.15.15,0,0,0-.17-.1.07.07,0,0,1-.09-.08c0-.15-.08-.23-.16-.33l-.21-.28L2,13.93l-.48-.56-.44-.48c-.07-.07-.12-.14-.19-.22l-.26-.3-.3-.32L.25,12a.3.3,0,0,1-.14-.27.14.14,0,0,1,0-.06l.06,0a.27.27,0,0,0,.07.08h0s0,0,0,0a.67.67,0,0,0-.09-.14.34.34,0,0,0-.08-.09.37.37,0,0,1-.1-.28l0-.29a.09.09,0,0,1,0,0s0,0,0-.06l.05,0,.15.22.62.81.45.59.31.39.34.46.2.26c.12.15.23.31.36.46l.21.21.09.09a.1.1,0,0,0,.17,0l.3-.31a3.51,3.51,0,0,1,.56-.46L4,13.49a.15.15,0,0,0,0-.23l-.38-.41-.36-.41c-.16-.2-.32-.4-.49-.59s-.22-.24-.32-.37l-.32-.4a3.87,3.87,0,0,0-.43-.47c-.12-.11-.21-.25-.32-.36l-.17-.17L.7,9.51C.55,9.34.38,9.18.22,9A.27.27,0,0,0,.1,9C0,9,0,8.94,0,8.89a1.79,1.79,0,0,1,0-.23s0,0,0,0,0,0,0,0l.18.2C.36,8.9.41,9,.48,9a.08.08,0,0,0,.08,0S.6,9,.6,9a.08.08,0,0,0,0-.08C.49,8.75.39,8.61.29,8.48a.2.2,0,0,0-.11-.06A.08.08,0,0,1,.1,8.33c0-.08,0-.16,0-.25l0-.16c0-.06,0-.13.05-.2l0-.09a4.52,4.52,0,0,1,.11-.47,3.4,3.4,0,0,1,.12-.34c0-.12.07-.24.12-.36s.08-.21.12-.31l.12-.27A2.1,2.1,0,0,1,1,5.62c0-.08.07-.15.1-.22s.09-.17.14-.26.13-.22.19-.34.08-.09.14,0l.25.31a.14.14,0,0,0,.21,0L2.12,5c.08,0,.09-.09.07-.16A.15.15,0,0,0,2,4.75H2c-.05,0-.07,0-.05-.06A.5.5,0,0,1,2,4.55s.06,0,.11,0a.79.79,0,0,1,.33.2s.13,0,.2.08l.12,0,.07,0A.22.22,0,0,1,3,4.94a.22.22,0,0,0,.21,0,.08.08,0,0,0,0-.13c-.06-.09-.13-.17-.19-.25l-.34-.43-.28-.33a.41.41,0,0,1-.1-.13.07.07,0,0,1,0-.09c.14-.17.28-.32.43-.48l.44-.43.08-.08c0-.05.08-.06.14,0a.13.13,0,0,0,.2-.07.11.11,0,0,0,0-.08c0-.06,0-.09,0-.14a.29.29,0,0,1,.27,0H4l.41,0h.1c.06,0,.11,0,.14,0s0-.1,0-.15A.38.38,0,0,0,4.28,2a0,0,0,0,1,0,0A.23.23,0,0,0,4,2H4S4,2,4,2a.88.88,0,0,1,.17-.12l.31-.2.06,0c.08,0,.17,0,.25,0a0,0,0,0,0,0,0c.06,0,.12,0,.18,0l.55.07.11,0a.22.22,0,0,0,.08,0,.72.72,0,0,1,.25,0,1.35,1.35,0,0,0,.34.06l.15,0,.23,0,.15,0a2,2,0,0,0,.34,0s.07-.08.1-.13,0-.05-.06-.06a.59.59,0,0,1-.13,0,1.7,1.7,0,0,0-.24-.09.6.6,0,0,0-.27-.07l-.15,0h0l-.33,0h0l-.39,0-.29,0,0,0H4.84ZM5,7A.26.26,0,0,0,4.9,6.8l-.33-.39c-.12-.13-.23-.28-.36-.41a6.66,6.66,0,0,1-.5-.56.38.38,0,0,0-.32-.16l-.07,0a.12.12,0,0,0-.19.07.14.14,0,0,1-.07.06H2.91l-.09,0-.17-.11-.08-.06a.08.08,0,0,0-.12,0c-.07,0-.13.1-.2.15a.08.08,0,0,0,0,.13l.24.27s0,.1,0,.14l-.09,0a.16.16,0,0,0-.07.16s.08,0,.15,0L2.66,6a1.14,1.14,0,0,1,.45-.1.16.16,0,0,1,.16.1c0,.07,0,.15,0,.19a.58.58,0,0,0-.19.25.09.09,0,0,0,.06.15.16.16,0,0,1,.09.07s0,.06,0,.07a0,0,0,0,1-.06,0A.13.13,0,0,0,3,6.81.12.12,0,0,0,3,7c.08.1.17.19.26.29l.5.49L4,8l.49.66c.18.23.35.46.54.69s.18.2.27.31.11.14.17.2l.34.42a.52.52,0,0,0,.11.1l.18.13.19.15h0l.08,0,.2.13.26.16.19.12.1.07a.12.12,0,0,0,.15,0l.2-.13c.08-.05.16-.13.25-.18l.53-.27a.12.12,0,0,0,0-.22L8,10.08l-.16-.16a1.31,1.31,0,0,1-.12-.11.64.64,0,0,0-.33-.23.28.28,0,0,0-.18,0s-.07,0-.11,0L7,9.52l-.28-.16s0-.06,0-.1a.22.22,0,0,1,.15-.06l.07,0A.27.27,0,0,0,7,9a.52.52,0,0,0-.19-.14,3.25,3.25,0,0,0-.43-.08l-.21,0H6a.43.43,0,0,1-.28-.15.08.08,0,0,1,0-.13c.07,0,.14-.08.22,0H6a.28.28,0,0,1,.18,0,.07.07,0,0,0,.12,0,.13.13,0,0,0-.06-.15L6,8.12c-.11,0-.1-.06-.09-.17a.14.14,0,0,0-.08-.18L5.61,7.7a.18.18,0,0,1-.12-.19.22.22,0,0,0,0-.16c0-.06-.1-.13-.21-.12s0,0,0,0l-.1,0A.18.18,0,0,1,5,7ZM1,8.84a.29.29,0,0,0,.1.28l.06.08a2.75,2.75,0,0,0,.22.26c.12.1.26.19.38.28l.06,0s.08,0,.1,0a.12.12,0,0,0,0-.1.18.18,0,0,0,0-.1L1.74,9.4s0-.05,0-.07h.08s0,0,.05.05.2.26.31.38a.15.15,0,0,1,0,.17A.13.13,0,0,1,2,10c-.05,0-.11,0-.14,0s0,.1.05.15H2l.28.28c.06.06.14.11.19.17l.4.48.41.54c.11.14.2.27.3.41l.27.41.3.45a1.6,1.6,0,0,0,.23.3,3.76,3.76,0,0,1,.34.35L5,13.9c.11.12.23.22.33.35s.38.48.57.73a2.11,2.11,0,0,0,.19.23c0,.06.09.06.15,0l.48-.43a.16.16,0,0,0,0-.26l-.35-.39-.31-.35-.46-.47c-.14-.15-.27-.32-.4-.48s-.29-.35-.44-.53l-.38-.46c-.11-.13-.22-.26-.34-.38s-.31-.35-.48-.52l-.32-.33L2.73,10c-.07-.08-.17-.16-.25-.24S2.16,9.43,2,9.25l-.22-.19a1.46,1.46,0,0,1-.19-.16.83.83,0,0,0-.3-.26l-.11-.06a.08.08,0,0,0-.12,0A.27.27,0,0,0,1,8.84Zm8.8,4.33v0c.15,0,.22,0,.26.17a.13.13,0,0,1-.07.16c-.05,0-.09,0-.13-.06s-.1-.09-.17-.05l-.42.21a.15.15,0,0,0,0,.24.38.38,0,0,1,.09.13,1.29,1.29,0,0,1,.07.21.25.25,0,0,0,.21.16h0a.14.14,0,0,1,.14,0H10l.06,0h.35l.09,0,.19-.16a.14.14,0,0,0,.07-.08c0-.08,0-.13-.11-.14a.19.19,0,0,1-.15-.13.17.17,0,0,1,.11-.17.58.58,0,0,1,.18,0,.42.42,0,0,0,.27-.12s0-.07,0-.09a.86.86,0,0,0-.07-.1l-.15-.16a4,4,0,0,0-.34-.38l-.11-.1-.26-.27-.28-.29c-.08-.1-.15-.19-.29-.19a.42.42,0,0,1-.15,0,.34.34,0,0,1-.12-.06.07.07,0,0,1,0-.12c.11-.09.12-.14,0-.24l-.27-.24c-.15-.16-.3-.33-.46-.49a.13.13,0,0,0-.11,0l-.12.05L7.83,11a1.57,1.57,0,0,0-.3.2c-.06,0-.06.09,0,.14l.13.08.19.1a1.27,1.27,0,0,0,.29.18c.11,0,.21.14.34.13h0a.65.65,0,0,0,.36.07.22.22,0,0,1,.19.14l.12.2.18.22c.06.06,0,.14,0,.15a.37.37,0,0,1-.25,0c-.05,0-.09,0-.11,0a.25.25,0,0,0,0,.12s0,.08,0,.12,0,.3.08.44a.26.26,0,0,0,.07.11.1.1,0,0,0,.14,0,1.34,1.34,0,0,1,.31-.17A2,2,0,0,1,9.79,13.17ZM4.65,16.45l.12-.07L5.25,16c.15-.11.3-.22.44-.34s.07-.09,0-.17a.47.47,0,0,0-.06-.09l-.17-.21-.55-.72-.65-.84a.16.16,0,0,0-.25,0l-.1.07c-.14.11-.27.23-.4.35s-.09.1-.14.14a1.44,1.44,0,0,0-.33.32c0,.07-.06.11,0,.18l.12.12c.15.19.3.37.46.55L4,15.8l.22.27.28.29Zm2.51-1.37L7,15.16l-.46.34a.2.2,0,0,0-.06.29l.25.35c.11.15.21.3.32.44a4,4,0,0,0,.32.4,3.31,3.31,0,0,0,.26.27l.45.45.23.25c.09.09.2.16.29.25a.37.37,0,0,0,.32.15c.1,0,.22,0,.29-.09a.38.38,0,0,1,.17-.14s.08-.06.07-.12-.06-.08-.11-.1l-.17-.07c-.09,0-.09-.07,0-.15a.11.11,0,0,0,0-.14l-.35-.48a.34.34,0,0,0-.17-.14c-.1,0-.1-.05-.08-.15a.17.17,0,0,0,0-.15,2,2,0,0,1-.19-.22l-.14-.19-.47-.57-.35-.45A.27.27,0,0,0,7.16,15.08Zm.47-1.25-.06-.11-.13-.14c-.12-.14-.25-.28-.38-.41a.94.94,0,0,1-.27-.38,1,1,0,0,0-.13-.23c-.06-.07-.13-.12-.18-.19l-.36-.43-.29-.3c-.13-.14-.25-.29-.38-.44L5.22,11a1.07,1.07,0,0,0-.16-.14,1.66,1.66,0,0,1-.3-.24.23.23,0,0,0-.28-.1.08.08,0,0,1-.08,0l-.2-.15-.06,0s0,.06,0,.07a.77.77,0,0,0,.19.21.42.42,0,0,1,.15.22.58.58,0,0,0,.2.27,1.51,1.51,0,0,1,.21.23c.08.1.14.22.21.32l.26.33.12.16c.11.14.22.26.33.39l.45.54a2,2,0,0,1,.13.18,1.78,1.78,0,0,0,.28.38L7,14l.16.21a.09.09,0,0,0,.11,0,1.13,1.13,0,0,0,.31-.26A.46.46,0,0,0,7.63,13.83Zm1-7s.08.08.12.09a1.66,1.66,0,0,0,.22,0H9a.21.21,0,0,0,.17,0s0,0,.07,0l.18,0a.69.69,0,0,0,.24,0,.89.89,0,0,1,.23,0h0c.11,0,.21.05.32,0h0l.18,0,.18,0h0a.78.78,0,0,1,.4,0h.24a1,1,0,0,0,.17,0c.15,0,.28,0,.42,0s.2-.08.21-.16a.11.11,0,0,0,0,0,.32.32,0,0,0-.24-.2c-.13,0-.25-.08-.38-.09s-.18,0-.28-.06a3.29,3.29,0,0,1-.44,0h0a2,2,0,0,1-.35,0c-.21-.06-.43,0-.64-.07h0l-.48,0H9.19L9,6.34a.65.65,0,0,0-.24,0,.58.58,0,0,1-.41,0,.25.25,0,0,0-.21,0s-.07,0-.11,0H7.57l-.15,0a1.55,1.55,0,0,1-.23,0,.12.12,0,0,0-.14,0,.14.14,0,0,0,0,.15l.07,0a.4.4,0,0,0,.33.13l.08,0,.27.07.17,0h.05a.19.19,0,0,1,.18,0,.18.18,0,0,1,.07.05l-.06,0s0,0,0,0a.09.09,0,0,0,.13.06.22.22,0,0,1,.11,0s.07,0,.1,0S8.59,6.81,8.6,6.79Zm3.68,6.88a.4.4,0,0,0-.31.14.13.13,0,0,0,0,.2l.13.14a.28.28,0,0,0,.31.09l.1,0,.28,0H13c.1.06.21,0,.32,0l.25,0h.33a2.1,2.1,0,0,1,.56,0l.28,0h.34c.11,0,.21,0,.32,0a.94.94,0,0,0,.29,0h.54a2.69,2.69,0,0,0,.4,0c.06,0,.11,0,.17,0h.07s.05,0,.07,0,.2,0,.3,0,0,0,0,0h.46c.1,0,.2,0,.29,0s.08,0,.1,0a.13.13,0,0,0-.06-.15.54.54,0,0,0-.22-.09.56.56,0,0,1-.12,0h-.36l-.57,0h0l-.29,0h0l-.32,0h0a1.16,1.16,0,0,1-.32,0c-.12,0-.24,0-.36,0a.94.94,0,0,0-.29,0h0a1.34,1.34,0,0,1-.35-.05h0a1.28,1.28,0,0,1-.34,0s0,0-.05,0h-.06l-.33,0a1,1,0,0,1-.3,0s0,0,0,0h-.32l-.33,0h-.25a.11.11,0,0,1-.11,0h-.25ZM8.76,7.54l-.13,0a.09.09,0,0,0-.12.07.09.09,0,0,0,0,.11l.12.08A.47.47,0,0,0,9,7.9h.47l.33,0h0a.71.71,0,0,1,.29,0c.05,0,.11,0,.17,0l.25,0a2,2,0,0,0,.25,0,1.13,1.13,0,0,0,.26,0h.23l.27,0h0l.2,0s.06,0,.08,0l.26-.22a.12.12,0,0,0,0-.14A.11.11,0,0,0,12,7.44a.37.37,0,0,1-.23,0s0,0,0,0a.46.46,0,0,1-.23,0h-.15s-.07,0-.09,0a.19.19,0,0,0-.18,0s0,0-.06,0H11l-.4,0h-.39a4.15,4.15,0,0,0-.49,0h0l-.36-.06h0l-.36,0h0a1.34,1.34,0,0,0-.35,0,.69.69,0,0,1-.25,0,.15.15,0,0,0-.16.07c0,.05,0,.09.05.13a.91.91,0,0,0,.35.15.14.14,0,0,0,.09,0A.19.19,0,0,1,8.76,7.54Zm1.89,2.76h0l.05.06a.94.94,0,0,0,.06.15c.05.1.1.11.21.12l.33,0a2.09,2.09,0,0,1,.34,0h0c.08,0,.16,0,.25,0a1,1,0,0,1,.39,0h.18a.27.27,0,0,0,.09,0c.13,0,.28,0,.42,0a1,1,0,0,1,.24,0h.25a1.27,1.27,0,0,1,.27,0c.14,0,.25-.08.39-.05h0l.29-.06c.06,0,.07,0,0-.09a.17.17,0,0,0-.16-.1H14l-.31,0h-.35c-.11-.05-.23,0-.34,0h-.13a1.53,1.53,0,0,0-.3,0,1.32,1.32,0,0,1-.28,0h-.61l-.17,0a.86.86,0,0,1-.17,0,.36.36,0,0,0-.18,0,.06.06,0,0,1-.07,0,.78.78,0,0,0-.31,0s-.07,0-.08.07l0,.07-.06-.06s-.08-.1-.14-.11A1.64,1.64,0,0,0,10.1,10l-.48,0h0l-.12,0c-.05,0-.08,0-.08.08a.12.12,0,0,0,.09.12l.26,0,.07,0a.69.69,0,0,0,.42.27l.31.08c.1,0,.15,0,.14-.11a.19.19,0,0,0,0-.07ZM2.86,9.4c-.08,0-.11,0-.09.11a.18.18,0,0,0,.1.14l0,0,.35.43c.12.15.24.3.37.44s.28.29.41.43a1.71,1.71,0,0,1,.11.14l.34.41.18.24.28.39c.12.16.25.32.37.49l.21.28c.07.1.16.18.24.28l.45.55.26.31.36.36a.12.12,0,0,0,.15,0,.19.19,0,0,0,.06-.17.16.16,0,0,0,0-.07l-.07-.11A1.19,1.19,0,0,0,6.85,14c-.18-.21-.37-.42-.55-.64L6,13c-.08-.1-.18-.19-.27-.29a3,3,0,0,0-.5-.57v0c-.1-.12-.18-.25-.28-.37l-.36-.4L4.33,11,4,10.54l-.15-.19a2.39,2.39,0,0,0-.13-.21l-.32-.39-.06-.06L3,9.44Zm10.63-.52v0c.05,0,.12,0,.14-.08a.13.13,0,0,0-.05-.16l-.05-.06a2.11,2.11,0,0,0-.19-.23.12.12,0,0,0-.18,0c-.05.06-.11.1-.19.06h-.17a.61.61,0,0,0-.32-.06h-.06a.17.17,0,0,0-.18,0h-.66a.27.27,0,0,0-.23.07l-.4.35-.16.14a.16.16,0,0,0,0,.12l.1,0h0c.08,0,.17.06.25,0s.2,0,.3,0a1.62,1.62,0,0,0,.22,0,3.59,3.59,0,0,0,.47,0h.27a2.73,2.73,0,0,0,.41,0,1.67,1.67,0,0,0,.39-.06A.73.73,0,0,1,13.49,8.88ZM8.68,3.13s.08,0,.09,0a.13.13,0,0,0,0-.11.65.65,0,0,0-.16-.13,2.2,2.2,0,0,0-.26-.15H8.27A.32.32,0,0,1,8,2.62a.66.66,0,0,0-.15,0,.17.17,0,0,1-.1,0,.94.94,0,0,0-.37-.07H7.13A.2.2,0,0,0,7,2.5a.16.16,0,0,1-.12,0,.41.41,0,0,0-.22,0c-.08,0-.16.06-.24,0s-.06,0-.08,0a.57.57,0,0,1-.34,0H6a.7.7,0,0,1-.38,0,.27.27,0,0,0-.09,0H5.33s-.11,0-.13,0a.15.15,0,0,0,0,.13c.11.13.21.29.42.24h0l.37,0h.11l.4.06c.18,0,.36,0,.54,0h.15l.42,0h.28A.09.09,0,0,0,8,3a.1.1,0,0,1,.14,0L8.23,3a.37.37,0,0,0,.21.06.24.24,0,0,1,.14,0Zm1,1.36v0h.05l.16.06a.75.75,0,0,1,.13.06.06.06,0,0,0,.07,0h.08s.08,0,.09,0a.11.11,0,0,0-.05-.14L10,4.33H9.78l-.09,0a.31.31,0,0,0-.23,0,.17.17,0,0,1-.1,0c-.09-.05-.17,0-.24,0s-.12.07-.2,0-.12-.12-.2-.1-.23-.07-.35,0h0L8,4.12H7.91l-.32,0H5.75a.08.08,0,0,0-.1.07.1.1,0,0,0,.07.11l.1,0h.53l.39,0h0l.4.08h0a1.67,1.67,0,0,1,.59,0c.13,0,.25,0,.37.06s.09,0,.13,0a.85.85,0,0,1,.23,0l.12,0,.39,0,.39,0h0a.55.55,0,0,0,.17,0,.36.36,0,0,1,.18,0H9.9s0,0,0-.06a.22.22,0,0,0-.13-.12A.91.91,0,0,1,9.65,4.49ZM9.21,15.88h.1c.09,0,.13-.07.08-.14a.9.9,0,0,0-.15-.19c-.09-.1-.19-.18-.28-.28s-.26-.33-.4-.49l-.32-.36a.1.1,0,0,0-.14,0L8,14.48l-.21.15a.15.15,0,0,0-.08.23l.35.46.29.39a3.71,3.71,0,0,1,.23.32c.06.08.13.16.18.24s.16.13.25,0,0-.1,0-.13a.56.56,0,0,1-.17-.09s-.06-.09,0-.13a.39.39,0,0,1,.15-.06C9,15.87,9.11,15.88,9.21,15.88ZM17.27,13l-.05-.05-.09,0-.27,0c-.08,0-.17-.05-.25,0h0a1.12,1.12,0,0,0-.36,0,.44.44,0,0,0-.3,0h0l-.2,0H15l-.34,0h-.13c-.1-.06-.22,0-.33,0a5,5,0,0,0-.55,0h0a.76.76,0,0,0-.3,0,1.3,1.3,0,0,0-.32.14.1.1,0,0,0-.05.14.09.09,0,0,0,.11.05,1.09,1.09,0,0,1,.44,0h0l.28,0h0a2.57,2.57,0,0,0,.4.05,1.48,1.48,0,0,1,.42,0h0a.28.28,0,0,1,.22,0h.41a2.2,2.2,0,0,0,.36,0h.14l.24,0h.5c.13,0,.26,0,.39,0a.4.4,0,0,0,.15,0h.05C17.21,13.11,17.27,13.06,17.27,13Zm1.05-6.21s.09,0,.09-.06,0-.06,0-.09a.19.19,0,0,0-.16-.06A.82.82,0,0,1,18,6.49a.44.44,0,0,0-.22,0h-.09l-.05,0,0,0,.1.06.07,0,.21,0s0,0,0,0l-.06,0a.77.77,0,0,1-.33-.06,1.21,1.21,0,0,0-.32-.11,1.42,1.42,0,0,1-.29-.1.33.33,0,0,0-.22,0h-.08l-.53-.15h-.14l-.17,0-.09,0a.19.19,0,0,0-.19,0,.1.1,0,0,0-.05.16l.13.18a.3.3,0,0,0,.22.16.69.69,0,0,1,.28.08h0l.32.07.24.09.6.13a1.39,1.39,0,0,1,.19.06,1.32,1.32,0,0,0,.44.13.28.28,0,0,1,.12,0c.06,0,.13,0,.13,0a.33.33,0,0,0,0-.13.36.36,0,0,0-.1-.07.08.08,0,0,1,0-.12.13.13,0,0,0,0-.12.15.15,0,0,1,0-.11l.07,0ZM19,6.37c0-.15-.14-.2-.28-.2a.47.47,0,0,1-.17,0A2.52,2.52,0,0,0,18,6c-.19-.06-.39-.07-.59-.12A1,1,0,0,0,17,5.81h0l-.49-.11h0L16,5.6a1.16,1.16,0,0,0-.41-.09h-.05l-.13,0a.12.12,0,0,0-.14.06.13.13,0,0,0,.05.15.87.87,0,0,0,.54.19h.07l.33.11a1,1,0,0,1,.28.08,1.17,1.17,0,0,0,.2.05l.14,0,.47.13a1.64,1.64,0,0,1,.23,0l.39.11.16,0,.55.17A.25.25,0,0,0,19,6.37Zm-13.74-3v0l.07,0,.11,0a1.58,1.58,0,0,1,.53.07H6a1.61,1.61,0,0,1,.31,0l.3,0c.1,0,.19.06.29,0s.07,0,.08,0,0-.07,0-.09l0-.05h.06l0,0a.29.29,0,0,0,.22.07l.16,0c.1,0,.18.09.29.07a.17.17,0,0,1,.11,0l.09,0,.57,0,.3,0h0l.2.05.19,0,.13,0c.06,0,.09,0,.11-.06s0-.1,0-.12a1.33,1.33,0,0,0-.24-.1l-.18,0-.1,0-.6-.1h0l-.35-.07H7.76l-.39,0-.3,0H7s-.09,0-.13,0a.12.12,0,0,0-.14,0s-.06,0-.1,0-.08,0-.11,0a.22.22,0,0,0,0,.08s0,0,0,0H6.46c-.08,0-.14,0-.21,0l-.13,0H6L6,3.18H5.72L5.3,3.11a1.45,1.45,0,0,0-.28,0c-.1,0-.2,0-.29,0a1.41,1.41,0,0,1-.21,0,1.53,1.53,0,0,0-.3,0s-.09,0-.11.05,0,.12,0,.12.14.08.23,0a.11.11,0,0,1,.08,0,.32.32,0,0,0,.21,0H5Zm.47,1.31H5.6s-.06,0-.07,0a.06.06,0,0,0,0,.08.41.41,0,0,0,.27.15l.33,0H6.2c.15,0,.28.08.43,0h0l.3.06h.2a.61.61,0,0,1,.13,0,.16.16,0,0,0,.15,0h.07c.15.09.32,0,.46.09H8a1.15,1.15,0,0,1,.26,0c.13,0,.24.06.38.06s.26,0,.4,0h.05l.13,0a.16.16,0,0,0,.2-.1A.22.22,0,0,0,9.3,5a1,1,0,0,0-.24,0,.48.48,0,0,1-.24,0H8.48l-.34,0h0l-.31,0s0,0,0,0H7.13l-.38,0H6.62l-.37,0H5.89Zm5.64,11v0s0,.05-.05,0a.78.78,0,0,1-.22,0c-.07,0-.13,0-.14.06a.26.26,0,0,0,.05.17A.24.24,0,0,1,11,16a.23.23,0,0,0,.29.17c.07,0,.13,0,.18-.07h.05l.37,0a.39.39,0,0,0,.15,0,1,1,0,0,1,.34,0,3,3,0,0,0,.42,0,.5.5,0,0,1,.34,0h0c.07,0,.13,0,.14-.1a.23.23,0,0,0-.07-.11l-.1-.07a.3.3,0,0,0-.21-.05l-.25,0a4,4,0,0,0-.47,0c-.13,0-.25.06-.38.09a1.26,1.26,0,0,0-.47.12s-.07,0-.06-.05a.7.7,0,0,0,0-.14c0-.06,0-.07.1,0a.29.29,0,0,0,.1,0,.45.45,0,0,0,.23,0,2.3,2.3,0,0,0,.28-.06.79.79,0,0,1,.3,0l.09,0h.14a.11.11,0,0,0,0-.08.11.11,0,0,0-.07-.06.27.27,0,0,1-.19-.08l0,0a3.72,3.72,0,0,1-.58,0h0a3.05,3.05,0,0,1-.41.05,1.79,1.79,0,0,0-.24,0s-.08,0-.06.07a.19.19,0,0,0,.17.12Zm5.51-1.08,0,0s0-.07-.05-.07-.24-.06-.36-.09h-.89l-.31,0h-.56l-.3,0h-.36a1.07,1.07,0,0,0-.25,0c-.11,0-.22,0-.32,0h-.1a1.35,1.35,0,0,1-.4,0s0,0,0,0h-.06l-.23,0s-.05,0-.06.05,0,.06,0,.07a.19.19,0,0,0,.19.07s0,0,.07,0l.36,0h0a.27.27,0,0,1,.2,0h.64a.09.09,0,0,0,.11,0h.38a1.34,1.34,0,0,1,.4,0h0l.29,0h.34l.28,0H16a.81.81,0,0,0,.22,0,.41.41,0,0,1,.19,0h.16s.07,0,.09,0a.1.1,0,0,1,.12,0Zm-2-3.06c0-.09,0-.11-.1-.11s-.16.06-.24,0l0,0,0,0h-.27a1,1,0,0,0-.25,0l-.34,0h-.44l-.57.05h-.44a.25.25,0,0,0-.17,0,.22.22,0,0,1-.14,0c-.06,0-.11,0-.16,0h0c-.08,0-.16,0-.25,0s-.05,0-.06,0a.14.14,0,0,0,.12.12.08.08,0,0,0,.08,0,.08.08,0,0,1,.11,0,.11.11,0,0,0,.15,0l0,0a.9.9,0,0,1,.46,0,.52.52,0,0,0,.18,0c.12,0,.23.05.34,0h0s0,0,0,0a.12.12,0,0,1,.14,0h0a.73.73,0,0,1,.36,0s0,0,.07,0l.22,0h.27l.32,0,.16,0a.24.24,0,0,0,.12,0l.18-.12ZM7.61,8.35h0c-.07,0-.1,0-.12.09s0,.08.06.1l.07,0,.23.06.15,0,.14,0a1,1,0,0,0,.41.12l.17,0,.39.1h0l.42,0,.09,0h0a.2.2,0,0,1,.2,0H10c.11,0,.11-.14,0-.2l-.06,0a1.69,1.69,0,0,1-.38-.19,2.26,2.26,0,0,0-.26-.16,1,1,0,0,0-.49-.07,2.91,2.91,0,0,0-.3,0c-.07,0-.14,0-.23,0s0,0,0,0-.19,0-.29,0ZM6.45,6.52h.08s.06,0,.06,0a.07.07,0,0,0,0-.07l-.14-.08c-.09,0-.1-.08,0-.16A.38.38,0,0,0,6.43,6a.12.12,0,0,0,0-.07l-.18,0-.46-.06h0a.22.22,0,0,0-.22,0H5.44a2.27,2.27,0,0,1-.25-.06l-.26-.08-.08,0-.24-.12a.06.06,0,0,0-.09,0,.12.12,0,0,0,0,.15L5,6.18A.16.16,0,0,0,5,6.25l.26.07.37,0h.12l.52.12Zm1.86,6.15c.08,0,.12,0,.13-.13a2.46,2.46,0,0,0,0-.28.18.18,0,0,0-.13-.2l0,0A2,2,0,0,0,8,11.85c-.14-.06-.23-.19-.39-.22l0,0-.25-.17a.22.22,0,0,0-.11,0,.6.6,0,0,0-.3.19.11.11,0,0,0,0,.17.88.88,0,0,1,.44.17,4,4,0,0,0,.36.17l.09,0,0,0s0,0-.06,0a.85.85,0,0,1-.22,0c-.09,0-.16-.08-.25-.12L7.29,12s-.08,0-.06.07a.13.13,0,0,0,0,.07,1.71,1.71,0,0,0,.2.18.35.35,0,0,0,.29.12h0l.14.06.1,0C8.13,12.6,8.2,12.68,8.31,12.67Zm5.56-10,.09,0A.14.14,0,0,0,14,2.47a.08.08,0,0,0-.12-.06l-.06,0a.74.74,0,0,0-.14,0l-.5-.08a.74.74,0,0,1-.14,0l-.08,0-.23,0c-.06,0-.11,0-.16,0s-.06,0-.09,0l-.22-.05-.19,0h0a1.13,1.13,0,0,1-.18,0c-.07,0-.11,0-.1.08a.23.23,0,0,0,.06.12,3.08,3.08,0,0,1,.24.27.31.31,0,0,0,.35.13h.1l.2,0,.07,0,.14,0,.22,0a.17.17,0,0,0,.1,0,.42.42,0,0,0,.14-.09.23.23,0,0,1,.25,0ZM8.36,7.88h.06s.07,0,.05-.07a.16.16,0,0,0-.05-.1,1.45,1.45,0,0,0-.18-.17s-.09-.06-.13-.06a.45.45,0,0,1-.23,0l-.44,0-.59-.09-.18-.06a.16.16,0,0,0-.23,0,.31.31,0,0,1-.23,0c-.07,0-.13,0-.16,0s0,.13.07.17l.06,0a.37.37,0,0,0,.33.14h.06l.4,0,.2,0,.37,0c.1,0,.21,0,.31,0h.08ZM8.63,4h.12s.07,0,.08,0a.15.15,0,0,0,0-.09.16.16,0,0,0-.16-.06l-.05,0-.28,0c-.11,0-.21,0-.32,0a1.41,1.41,0,0,1-.41,0h0a.22.22,0,0,1-.16,0,0,0,0,0,0,0,0,.12.12,0,0,1-.14,0H7.15a.21.21,0,0,1-.17,0s0,0-.07,0a.48.48,0,0,1-.12,0s-.09,0-.14,0,0,0-.06,0-.07,0-.1,0a.67.67,0,0,1-.2,0,1.55,1.55,0,0,0-.48,0H5.72a.12.12,0,0,0-.13,0s0,0-.06,0l-.13,0-.6,0s0,0-.07,0a.24.24,0,0,0-.06.08.06.06,0,0,0,0,.07A.55.55,0,0,0,4.84,4l.32,0h.17L5.4,4c.11,0,.22,0,.33,0A.53.53,0,0,1,6,4h.28a1.78,1.78,0,0,1,.4,0H7l.66,0h1ZM7.09,5.64h0a.32.32,0,0,0-.09,0l0,0,0,0c.07,0,.14,0,.18.07a0,0,0,0,0,.05,0,.21.21,0,0,1,.19,0H7.5l.2,0L8,5.9l.67,0h0L9.06,6l.45,0a.91.91,0,0,1,.33,0h.53a.29.29,0,0,0,.26,0s.07,0,0-.09a.23.23,0,0,0-.1-.07l-.29-.07-.17,0-.14,0-.22,0a1.5,1.5,0,0,1-.37,0h0a.17.17,0,0,1-.17,0H8.64a.76.76,0,0,0-.3,0,.5.5,0,0,1-.17,0H8l-.33,0ZM14.2,9.41s0,0,0-.06A1.3,1.3,0,0,0,14,9.17a.34.34,0,0,0-.16-.1c-.12,0-.25,0-.37,0s-.19,0-.29,0l-.27,0H12.7l-.31,0a2.17,2.17,0,0,1-.26,0l-.36,0s0,0-.07.06l.06,0,.22,0,.1,0,.23,0,.3.05c.05,0,.09,0,.14,0a5.67,5.67,0,0,1,.57.1c.07,0,.15,0,.21,0s.2,0,.3,0a1.22,1.22,0,0,0,.26,0C14.17,9.53,14.2,9.5,14.2,9.41ZM14,16.07h0s0,0,0,.05a.19.19,0,0,0,0,.07c.11.13.26,0,.39.08h.11a.34.34,0,0,1,.1,0l.3,0h.69l.29,0a2.27,2.27,0,0,0,.52,0h.4a2.48,2.48,0,0,1,.27,0c.09,0,.17-.05.25,0a.09.09,0,0,0,0,0l.05,0s0-.05,0-.09,0,0-.09,0h-.06l-.34-.06h-.18l-.24,0H16c-.13,0-.25.09-.39,0h0l-.24,0h0L15,16h-.61Zm-2,1s0,0,0,0a2.26,2.26,0,0,0,.37.11,2.17,2.17,0,0,0,.36,0l.5,0,.43,0c.2,0,.4-.05.59,0h.15c.05,0,.08,0,.09,0s0-.09,0-.12l-.13-.11a.23.23,0,0,0-.16-.06c-.11,0-.22,0-.32,0a.6.6,0,0,1-.23,0l-.07,0h-.76l-.19,0h-.26a0,0,0,0,0,0,0,.42.42,0,0,1-.27,0C12,17,12,17,12,17.1ZM4.14,9.26c.05,0,.1,0,.11-.06s0-.07,0-.11l0,0-.34-.41-.4-.47L3.38,8a.1.1,0,0,0-.18,0l0,0A.17.17,0,0,1,3,8.15c-.06,0-.06-.06-.07-.11a.88.88,0,0,0-.05-.15l-.19-.28-.11-.13a.52.52,0,0,0-.1-.11s-.1,0-.1,0a.24.24,0,0,0,0,.12c.08.13.17.25.26.37a.75.75,0,0,0,.14.17A.77.77,0,0,1,3,8.29a3.11,3.11,0,0,0,.31.43.35.35,0,0,0,.11.1c.09.07.21.1.29.19a1,1,0,0,0,.18.1L4,9.19ZM12,12.54v0l.08,0a.62.62,0,0,0,.33,0h.09a.37.37,0,0,0,.21,0c.07,0,.15-.07.23,0h0a.11.11,0,0,1,.13,0h.06a.64.64,0,0,0,.39-.22.09.09,0,0,0,0-.1.1.1,0,0,0-.08,0,1.71,1.71,0,0,1-.32,0,.54.54,0,0,0-.22,0,1.23,1.23,0,0,1-.33,0,1,1,0,0,1-.25,0,.86.86,0,0,0-.28,0l-.25,0a.84.84,0,0,0-.41.08.18.18,0,0,0-.1.2.08.08,0,0,0,.1.06h.09a.37.37,0,0,0,.23-.05.07.07,0,0,1,.07,0Zm1.53.91c-.09-.1-.11-.11-.22,0s0,0-.06,0a.09.09,0,0,0-.13,0H13l0,0s0,.05.06.06h.06l.17,0a1.93,1.93,0,0,0,.24,0s.06,0,.1,0l.11,0a.4.4,0,0,1,.11,0c.08,0,.15.06.24,0h.22l.36,0H15l.3,0h.45a.78.78,0,0,0,.26,0h0l.17,0h.38s.06,0,.06,0a.11.11,0,0,0,0-.1.29.29,0,0,0-.21-.08c-.13,0-.24,0-.36,0s-.15-.06-.23,0h0a.19.19,0,0,0-.18,0h0a.64.64,0,0,0-.41,0h0c-.11-.08-.22,0-.34,0a2.26,2.26,0,0,0-.37,0h-.59a2.09,2.09,0,0,1-.25,0C13.56,13.36,13.51,13.36,13.48,13.45ZM12.58.9h.07a.32.32,0,0,0,.14-.31.15.15,0,0,0,0-.06l-.29,0c-.11,0-.23,0-.34,0h0L11.67.41h-.22l-.28,0a.75.75,0,0,1-.21,0,.34.34,0,0,0-.2,0,.1.1,0,0,0,0,.07s0,.1.1.12.15.12.26.11h0l.46.1s0,0,0,0h.1a1.35,1.35,0,0,0,.28,0,1.22,1.22,0,0,0,.27,0h0C12.36.92,12.48.85,12.58.9Zm2.29,16.55a.18.18,0,0,0-.15-.19h-.18a1.34,1.34,0,0,1-.4,0h0c-.06.05-.12,0-.18,0a1.79,1.79,0,0,1-.23,0c-.08,0-.17,0-.25,0a1.6,1.6,0,0,0-.31,0c-.08,0-.16,0-.24,0h-.35a.45.45,0,0,1-.28,0,0,0,0,0,0,0,0,.19.19,0,0,1-.18,0H12l-.2,0c-.07,0-.1,0-.1.09a.53.53,0,0,0,.13.2H12l.33-.07c.21,0,.41-.08.62-.1l.21,0,.16,0a.27.27,0,0,1,.09,0c.08,0,.16,0,.24,0h0c.05,0,.1,0,.15,0H14c.11,0,.23.05.35.06l.43,0C14.85,17.54,14.88,17.52,14.87,17.45ZM7.92,13.6s0-.07,0-.1l-.25-.3-.51-.61c-.11-.14-.23-.26-.34-.39s-.11-.13-.16-.19-.1-.12-.18-.09-.07,0-.08-.05a.54.54,0,0,0-.07-.13s-.1-.07-.13-.12a.61.61,0,0,0-.24-.18s-.07,0-.07,0a.12.12,0,0,0,0,.1,1.46,1.46,0,0,0,.34.36.26.26,0,0,1,.16.18s0,0,0,0l.13.14.46.55.17.2a1.5,1.5,0,0,1,.13.11l.39.46a.2.2,0,0,0,.14.08C7.88,13.7,7.91,13.68,7.92,13.6Zm3.15-7.23c-.11-.1-.19-.2-.34-.16h-.28s-.09,0-.11,0-.1,0-.15,0,0,0,0,0-.18,0-.27,0H9.72l-.49,0A.48.48,0,0,0,9,6.1l-.05,0-.17,0H8.64L8.46,6a.2.2,0,0,1-.11,0A.2.2,0,0,0,8.2,6H8.08L7.93,6H7.58a.34.34,0,0,0-.22,0h0a.71.71,0,0,0-.29,0H7a.34.34,0,0,0-.24,0c-.06,0-.09,0-.07.1a.21.21,0,0,0,.23.1H7l.12,0H7.4l.41,0a0,0,0,0,1,0,0,.11.11,0,0,0,.12,0,.09.09,0,0,1,.09,0,.18.18,0,0,0,.16,0h.05l.18.07h.06a.14.14,0,0,1,.15,0,.17.17,0,0,0,.1,0h.34c.09,0,.17.07.26,0s.06,0,.09,0,.07,0,.09,0a.22.22,0,0,1,.22,0h0a.55.55,0,0,1,.18,0c.11,0,.22,0,.32,0l.21,0H11ZM5.72,11.08c.07,0,.08,0,.06-.08a1,1,0,0,0-.2-.28c-.1-.11-.18-.23-.28-.34L5,10.06a3.57,3.57,0,0,0-.28-.27.55.55,0,0,0-.17-.13,2.64,2.64,0,0,1-.37-.2.07.07,0,0,0-.12,0,.22.22,0,0,0,0,.11c.14.18.3.35.44.54a1.56,1.56,0,0,0,.44.41.45.45,0,0,1,.14.1l.22.16.1.07A.74.74,0,0,0,5.6,11,.45.45,0,0,0,5.72,11.08Zm9-1.13-.07,0-.1,0a1.12,1.12,0,0,0-.36-.09c-.12,0-.24,0-.35,0a.78.78,0,0,0-.34,0l-.2,0L13,9.8h-.24l-.12,0a.13.13,0,0,0-.07,0,.06.06,0,0,0,0,.07.72.72,0,0,0,.2.09c.11,0,.22,0,.32.07h0c.1,0,.19,0,.28,0H14c.15,0,.29,0,.43,0a.86.86,0,0,1,.16,0C14.66,10.11,14.71,10.07,14.71,10ZM7.4,5.55h0l.15,0,.51,0h.61s.05,0,.06,0,0,0,0,0-.09-.06-.12,0-.1,0-.15,0a.12.12,0,0,0-.15,0s0,0-.06,0,0,0-.06,0l-.4,0a1.65,1.65,0,0,1-.32,0,1,1,0,0,0-.3,0l-.3,0c-.14,0-.28-.06-.42-.07a.47.47,0,0,1-.26,0,.09.09,0,0,0-.12,0S6,5.27,6,5.31a.51.51,0,0,0,.41.2h.13l.31,0H7ZM4.08,4.92S4,4.94,4,5a.14.14,0,0,0,0,.11,1,1,0,0,0,.49.23h.13l.28.05a.7.7,0,0,1,.14,0,1.16,1.16,0,0,0,.45.05h.41a.12.12,0,0,0,0-.1.22.22,0,0,0-.08-.13.56.56,0,0,0-.39-.15H5.38a.62.62,0,0,0-.38,0H5L4.6,5H4.43Zm6.54,10.29v.07c0,.1,0,.11.13.08a.42.42,0,0,1,.15,0c.13,0,.25-.08.38,0h0a2.12,2.12,0,0,1,.56,0,1.59,1.59,0,0,0,.38,0,1.1,1.1,0,0,0,.26-.06.08.08,0,0,0,0-.14.37.37,0,0,0-.14-.07l-.3,0h-.84L11,15l-.25,0h0C10.62,15.05,10.61,15.12,10.62,15.21ZM2.8,3.47s-.07,0-.09.06a.08.08,0,0,0,0,.08L3,4a.12.12,0,0,0,.14,0l.22-.11h.06a.31.31,0,0,0,.23,0h.14l.2,0a1.08,1.08,0,0,0,.4,0c.08,0,.12-.06.11-.13s0-.1-.13-.11l-.2,0H4.1l-.4,0h0l-.12,0a.73.73,0,0,1-.3,0H3.19Zm5,5.38c-.06,0-.12,0-.14.06a.13.13,0,0,0,.06.15l.12.12a.39.39,0,0,0,.26.11l.34,0,.26.05.43.07c.1,0,.13,0,.1-.12l-.09-.2A.17.17,0,0,0,8.89,9H8.82L8.44,9l-.39-.06H8a.2.2,0,0,1-.15,0A.53.53,0,0,0,7.75,8.85Zm3.4-.38s0-.07-.05-.08l-.14,0a1.58,1.58,0,0,1-.38,0h0l-.31,0H9.83c-.08,0-.11,0-.14,0a.1.1,0,0,0,.05.15l.35.21.2.12.08,0a.17.17,0,0,0,.22,0l.51-.41Zm2.15,9.37h.1a1.59,1.59,0,0,1,.3-.06,1.31,1.31,0,0,0,.43-.08.13.13,0,0,0,0-.07.1.1,0,0,0-.06-.05l-.4,0h-.26l-.26,0-.15,0-.55.07-.43.07a.1.1,0,0,0-.06.16l.07.09c.07.11.17.13.29,0a.19.19,0,0,1,.08,0L13,17.9Zm1.14-1.93v0c.18,0,.36,0,.54,0a.8.8,0,0,1,.27,0,2.18,2.18,0,0,0,.5-.05l.06-.06s0-.08-.07-.08a.83.83,0,0,0-.31,0c-.1,0-.21-.06-.31,0H15s-.06,0-.09,0a.2.2,0,0,0-.15,0s-.05,0-.08,0l-.07,0-.22,0H14l-.12,0h-.17l-.06,0a.12.12,0,0,0-.07.14.13.13,0,0,0,.12.11H14ZM14.13,1.45s0-.05-.05-.07a.48.48,0,0,0-.33-.14,4.36,4.36,0,0,1-.49-.06l-.06,0s0,0-.07,0a.44.44,0,0,1-.32,0,.64.64,0,0,0-.2,0h-.32l-.14,0s-.08,0-.1,0a.19.19,0,0,1-.18,0,.17.17,0,0,0-.1,0,.11.11,0,0,1-.15,0s-.06,0-.06,0a.09.09,0,0,0,0,.07s0,0,.06,0,.17.09.28.06h0l.18,0a.65.65,0,0,1,.16,0,.19.19,0,0,0,.19,0h0A2.62,2.62,0,0,0,13,1.4c.07,0,.15,0,.22,0l.45.08a.73.73,0,0,1,.3.06A.15.15,0,0,0,14.13,1.45ZM14,2.08v0h.22c.06,0,.08-.05.08-.13a.09.09,0,0,0-.1-.09c-.07,0-.15-.05-.23,0h0l-.43-.06h-.43s-.09,0-.12,0-.17,0-.25,0a.05.05,0,0,0-.05.07.18.18,0,0,0,.18.07.17.17,0,0,1,.1,0l.08,0a.15.15,0,0,1,.13.11.24.24,0,0,0,.24.13.27.27,0,0,1,.09,0l.2,0,.14,0,.21.09a.16.16,0,0,0,.15-.08.11.11,0,0,0-.1-.13Zm1.45,10.51h0l.07,0a.08.08,0,0,0,0-.08.19.19,0,0,0-.16-.09l-.47-.08-.22-.05a2.15,2.15,0,0,0-.5-.07.18.18,0,0,0-.1,0l-.23.15a.12.12,0,0,0,0,.13.11.11,0,0,0,.08,0,.25.25,0,0,0,.12,0h.07l.15,0h.1l.18,0h.25ZM7,1.51c.16,0,.21-.07.16-.22a.13.13,0,0,0-.11-.11l-.22-.05H6.76l-.37,0H6a.55.55,0,0,1-.22,0,2.19,2.19,0,0,0-.27,0s-.06.05,0,.08a.36.36,0,0,0,.23.08,1.61,1.61,0,0,1,.37,0h0l.11,0,.45.05h0Zm7.86,15.3-.07,0a.29.29,0,0,0-.08.07.11.11,0,0,0,.07.12.18.18,0,0,1,.07.05.46.46,0,0,0,.23.06l.44,0h.66l0,0h.15c.06,0,.12,0,.18,0h.05c.05,0,.11,0,.17,0a.15.15,0,0,0,.11,0,.17.17,0,0,0,0-.1s-.06,0-.08,0l0,0-.22,0c-.05,0-.1,0-.15,0h0a.26.26,0,0,0-.21,0s0,0-.06,0h-.41l-.17,0h-.26ZM6.08,2.36a.64.64,0,0,0,.4-.16s0-.06,0-.08a.5.5,0,0,0-.32,0l-.25,0-.47,0h0L5.18,2H4.86a.05.05,0,0,0,0,.09c0,.05.06.09.08.14a.13.13,0,0,0,.16.06.2.2,0,0,1,.11,0,.36.36,0,0,0,.23,0H5.6l.13,0Zm9.24,9.78-.08,0s0,0,0,.06.16.11.19.1a.22.22,0,0,1,.16,0,.8.8,0,0,0,.21.05l.24.06.13,0a.58.58,0,0,1,.14,0,.82.82,0,0,0,.49,0,.09.09,0,0,0,0-.16s-.07-.06-.09-.1-.26-.12-.4-.11a.19.19,0,0,1-.13,0l-.1,0h-.79ZM11.91,1.64l.21,0h.15a1.45,1.45,0,0,0,.36,0,2.45,2.45,0,0,0,.27,0c.11.07.23,0,.35,0s0,0,0,0,0,0,0-.05-.12-.11-.22-.09a.33.33,0,0,1-.24-.05l-.06,0-.45-.06a.93.93,0,0,0-.37-.06l-.06,0-.33-.07h0s-.07,0-.08.05a.11.11,0,0,0,0,.08,1.42,1.42,0,0,1,.12.13A.35.35,0,0,0,11.91,1.64Zm-9,6.93c.06,0,.09,0,.07-.08a.28.28,0,0,0-.08-.15L2.58,8c-.1-.12-.19-.26-.3-.38a.52.52,0,0,0-.13-.06A.32.32,0,0,1,2,7.48a.67.67,0,0,0-.2-.21c-.05,0-.11,0-.1.05a.26.26,0,0,0,0,.15l.62.72a1,1,0,0,0,.31.27l.09,0Zm1-6.14H3.86s-.08,0-.09,0a.15.15,0,0,0,0,.11s.06,0,.09.06.36,0,.53.12h0a.45.45,0,0,1,.28.05h.06a.17.17,0,0,1,.17,0l.1,0h.09s.08,0,.08,0a.25.25,0,0,0,0-.12c0-.06-.12-.09-.16-.15a.33.33,0,0,0-.19-.08l-.37,0H4.32ZM8.71,8.22l.14,0s0-.07,0-.09A.2.2,0,0,0,8.78,8L8.54,8h0s-.09,0-.15,0l-.3,0C8,8,7.94,8,7.87,8h0c-.07,0-.13,0-.19,0H7.4l-.3,0H7a.12.12,0,0,1-.13,0c-.1-.06-.16,0-.2.06A.09.09,0,0,0,6.7,8h.15c.06,0,.12.05.17,0h.05c.08,0,.16.1.27.05s0,0,0,0a.21.21,0,0,0,.19,0,.12.12,0,0,1,.08,0s.11,0,.15,0a.22.22,0,0,1,.16,0h.24l.34,0h.16ZM16.28,12v0L16.4,12a.1.1,0,0,0,0-.07s-.05-.1-.11-.07a.2.2,0,0,1-.13,0l-.13,0h-.43c-.11,0-.22,0-.34,0s-.14,0-.22,0-.12,0-.18,0-.15,0-.22,0a.27.27,0,0,0-.12,0s-.05,0-.06,0a.08.08,0,0,0,0,.08.17.17,0,0,0,.1.07c.07,0,.16,0,.22,0A.15.15,0,0,1,15,12h0a.12.12,0,0,1,.16,0s0,0,.06,0l.09,0h.29L16,12Zm-5.1-2.32c.05,0,.12,0,.14-.07a.12.12,0,0,0-.07-.13c-.1-.06-.24-.08-.33-.18h0l-.26-.1h-.17c-.05,0-.09,0-.13,0l-.18.16c-.05.05-.05.09,0,.14l.12,0,.26,0a1,1,0,0,0,.29,0,.55.55,0,0,1,.22,0Zm2.58,6.9h.1c.05,0,.09,0,.09-.09a.09.09,0,0,0-.08-.11l-.31,0h0l0,0a.67.67,0,0,1-.2,0,.77.77,0,0,0-.3,0,2.8,2.8,0,0,1-.29,0,2.3,2.3,0,0,1-.26,0,.07.07,0,0,1-.06,0s-.06,0-.08,0-.07.08,0,.14h0a.46.46,0,0,0,.19,0,.59.59,0,0,1,.23,0,1.26,1.26,0,0,0,.27,0H13a.63.63,0,0,0,.36,0h.29Zm-.64-5.86-.16.07a.14.14,0,0,0,0,.07.18.18,0,0,0,.16.06h.09a.34.34,0,0,0,.14,0h.28a.38.38,0,0,0,.21,0s0,0,.07,0A.12.12,0,0,0,14,11l.05,0a.79.79,0,0,0,.37-.05h.14s.07,0,.08,0,0-.14-.08-.14h-.35a2.83,2.83,0,0,1-.41,0c-.09,0-.19.05-.28,0h0c-.06.05-.13,0-.19,0S13.19,10.82,13.12,10.75Zm-.14.6a.1.1,0,0,0-.09-.11s-.08,0-.12,0a1,1,0,0,0-.24,0h-.22c-.05,0-.08,0-.12,0s-.15,0-.22,0a.61.61,0,0,1-.14,0h-.57c-.07,0-.14.08-.13.13a.13.13,0,0,0,.14.1l.39,0h.12a.11.11,0,0,0,.12,0l0,0s.07,0,.1,0,.14,0,.2,0h.37a1.13,1.13,0,0,1,.26,0A.07.07,0,0,0,13,11.35Zm-.07-1.78h0s-.08,0-.1,0-.1-.06-.16-.07h-.18l-.36-.07-.65-.11a.1.1,0,0,0-.07,0,.11.11,0,0,0,.06.17l.41.16a.86.86,0,0,0,.17,0h.05l.6,0a.59.59,0,0,0,.22,0A0,0,0,0,0,12.91,9.57Zm-2.57,8a.12.12,0,0,0,.1-.19.54.54,0,0,0-.37-.24l-.48-.06a.16.16,0,0,0-.17.06.07.07,0,0,0,0,.13l.09.05a.88.88,0,0,0,.39.18l.14,0Zm4.82.43v0s.08,0,.09-.06,0-.09,0-.11a1.18,1.18,0,0,0-.18-.13,0,0,0,0,0-.05,0c-.13.07-.28,0-.4.08h0l-.4,0H14.1s0,0,0,0-.2,0-.29.09a0,0,0,0,0,0,0l.07.09.06,0h.06c.05.05.1,0,.16,0h.73C14.92,18,15,18,15.16,18ZM8,7.26s0,0,0,0-.11-.11-.17-.12A3.69,3.69,0,0,0,7.32,7L7,7,7,7H6.78a.21.21,0,0,0-.25,0s0,0,0,.09a.09.09,0,0,0,.09,0h.1l.3.08.32.07.47.06h0C7.9,7.41,8,7.37,8,7.26Zm7.58,4.43h.2a.59.59,0,0,0,.32-.06c.05,0,.07-.08,0-.11s-.13-.12-.23-.11a.66.66,0,0,1-.24,0s-.08,0-.11,0h-.08l-.25,0,0,0-.18.14c-.05,0-.07.08-.05.13a.16.16,0,0,0,.16.06l.23-.05ZM9.85,19.25l.06.08c0,.08.07.09.16.07h.11c.08,0,.15.09.24,0h0l.19.07c.07,0,.08,0,.13,0a.1.1,0,0,0,0-.14.34.34,0,0,0-.2-.06s-.08,0-.12,0a.41.41,0,0,0-.11,0,.21.21,0,0,1-.08,0l-.09,0-.07,0v0l.09,0,.1,0A.27.27,0,0,0,10,19l-.5-.07c-.08,0-.12,0-.11.1a.19.19,0,0,0,.19.15l.29,0a.12.12,0,0,1,.12.07ZM3.17,8.88A.09.09,0,0,0,3.09,9a.76.76,0,0,0,.08.11,2.7,2.7,0,0,1,.28.31A1.93,1.93,0,0,0,4,9.88l.05,0s.07,0,.08,0a.08.08,0,0,0,0-.08s0,0,0-.06C4,9.57,3.8,9.4,3.63,9.23L3.5,9.1l-.22-.16Zm6.37.81,0,0-.08,0-.14,0L9,9.56a1.06,1.06,0,0,1-.31,0c-.17,0-.34,0-.51-.08s-.1,0-.1.06a.14.14,0,0,0,.06.13.84.84,0,0,0,.2.08,2.63,2.63,0,0,0,.39.06l.41,0c.05,0,.11,0,.17,0s0,0,.05,0S9.54,9.8,9.54,9.69ZM13.68,5.1A.18.18,0,0,0,13.84,5a.13.13,0,0,0-.08-.14,1,1,0,0,1-.23-.11.61.61,0,0,0-.32-.08h-.29l-.06,0a.12.12,0,0,0,0,.19l.16.08.13,0,.15,0Zm-2.93.29s0,0,0-.06a.93.93,0,0,0-.2-.1,2,2,0,0,0-.35-.07l-.16,0-.14,0c-.06,0-.11,0-.16,0a.73.73,0,0,0-.16.14c-.06.08,0,.15.07.16a.41.41,0,0,0,.22,0s.05,0,.07,0l.12,0a.77.77,0,0,1,.37,0,.58.58,0,0,0,.26,0A.24.24,0,0,0,10.75,5.39ZM16.43,7c-.06-.1-.17-.11-.27-.14s-.07,0-.07.05a.06.06,0,0,0,.05.08.29.29,0,0,0,.1,0,.39.39,0,0,0,.15,0s.05,0,.07,0a.16.16,0,0,0,.15.07h.08c.08.07.16.08.23,0h0v0c0,.08.09.1.18.1s.09,0,.14,0a.7.7,0,0,0,.19.06.19.19,0,0,1,.18,0,.09.09,0,0,0,.13,0s.08-.07.06-.12a.1.1,0,0,0-.12-.07.27.27,0,0,1-.17,0c-.09,0-.18-.09-.29,0s-.05,0-.06,0-.08-.06-.13-.08l-.28,0a.31.31,0,0,1-.12,0,.14.14,0,0,0-.17,0Zm-6,8.25h0l-.11.05-.06.07a.19.19,0,0,0,0,.28c0,.06.11.11.15.17l.32.43s0,0,.07,0,.12-.06.09-.15a1,1,0,0,0-.08-.14c-.06-.09-.15-.18-.07-.31a.09.09,0,0,0,0-.13s-.09-.05-.14,0l-.06,0a.07.07,0,0,1-.1,0s0-.05,0-.07.07-.06.1-.1,0-.09,0-.1Zm7-10.38h0s.06,0,.07,0a.14.14,0,0,0,.06-.08c0-.08-.15-.15-.23-.13a.22.22,0,0,1-.11,0l-.27-.07-.23,0a.33.33,0,0,0-.1,0,.15.15,0,0,1-.13,0,.39.39,0,0,0-.18,0,.14.14,0,0,1-.15,0s-.09-.05-.13,0a.1.1,0,0,0,0,.14.39.39,0,0,0,.21.06.4.4,0,0,1,.19,0,.32.32,0,0,0,.25,0l.07,0L17,4.8l.1,0Zm-8,11.54h-.1a.12.12,0,0,0-.1.12c0,.06,0,.1.08.11a.24.24,0,0,1,.11.06.59.59,0,0,0,.38.14.31.31,0,0,1,.13,0c.05,0,.09,0,.13,0a.12.12,0,0,0,0-.16c0-.06-.06-.12-.1-.17a.16.16,0,0,0-.09-.07.39.39,0,0,0-.24,0,.09.09,0,0,1-.07,0Zm5.27-1.59v0l.11-.09s0,0,0,0h-.06a.07.07,0,0,1-.11,0s-.05,0-.07,0h-.23s-.07,0-.1,0,0,0-.09,0a.08.08,0,0,1-.08,0,.17.17,0,0,0-.14,0,.08.08,0,0,1-.08,0,.18.18,0,0,0-.16,0h-.1s-.08,0-.1,0-.07.07-.14,0-.07,0-.09,0-.06,0-.09,0a.09.09,0,0,0-.14,0,.07.07,0,0,1-.1,0s-.06,0-.08,0,0,0,0,.06,0,.06.07.06a.81.81,0,0,0,.38,0h.07l.16,0a1.05,1.05,0,0,0,.31,0h.47a.06.06,0,0,0,0,0s.05,0,.09,0h.08ZM19,9.36c0,.13.05.18.16.2a.45.45,0,0,1,.11,0c.07,0,.14.06.19.05a1.73,1.73,0,0,0,.27-.15.1.1,0,0,0,0-.17l-.38-.14-.14,0a.11.11,0,0,0-.16.06C19,9.25,19,9.32,19,9.36ZM16.68,4V4a3.3,3.3,0,0,0-.32.18c-.08,0-.07.11,0,.15a.35.35,0,0,0,.11,0h.14l.2,0,.23.07c.07,0,.11,0,.15,0a.1.1,0,0,0,0-.15s-.05,0-.06,0-.27-.14-.4-.22ZM8.43,14.22c-.07,0-.11,0-.1.07a.29.29,0,0,0,.07.16c.16.2.34.38.5.58s.15.17.23.26a.39.39,0,0,0,.11.06l0,0a1,1,0,0,0-.06-.16L9,14.89l-.19-.26-.22-.27A.38.38,0,0,0,8.43,14.22Zm4-6.71h0l-.05,0-.28.26s0,.06,0,.07,0,.06.08.06h.21l.21,0h.22s.08,0,.09,0a.12.12,0,0,0,0-.1.57.57,0,0,0-.12-.15.24.24,0,0,0-.14-.05Zm-1.3,3.32v0h0c-.05,0-.11,0-.12.08s0,.1.09.14.23,0,.33.05c.09-.06.2,0,.29-.05h0a.17.17,0,0,0,.17,0h.07a.09.09,0,0,0,.12,0l.06,0,.05,0s0,0,0,0l-.05,0-.13,0-.07,0a.65.65,0,0,1-.24,0c-.07,0-.15,0-.22,0Zm.24,8a.23.23,0,0,0,.26.19.17.17,0,0,1,.1,0l.41.08s.06,0,.07-.05a.14.14,0,0,0,0-.14L12,18.79a.11.11,0,0,0-.08,0l-.41,0C11.39,18.72,11.35,18.75,11.35,18.84Zm-.88-6.93a.27.27,0,0,0,.23-.05l.07,0,.2,0s0,0,0-.06-.09-.13-.2-.12a1.71,1.71,0,0,1-.45,0h0a.11.11,0,0,1-.13,0,.13.13,0,0,0-.15.07c0,.05,0,.09,0,.12a.26.26,0,0,0,.22.07Zm-.67-1a.21.21,0,0,0,.17-.08s0-.08,0-.11a.13.13,0,0,0-.16,0H9.7l-.2,0a1.55,1.55,0,0,1-.23-.06s-.08,0-.11,0-.05.11,0,.14a.31.31,0,0,0,.26.19Zm-3,.58c.06,0,.08,0,.16-.11s.06-.11,0-.16a.47.47,0,0,1-.09-.06c-.13-.15-.33-.21-.48-.34s-.11,0-.11,0a.42.42,0,0,0,0,.12l.13.14.22.27Zm12-2.94v0l.1,0a.23.23,0,0,0,.12,0s.06-.07.09-.1a.16.16,0,0,0,0-.16s-.07,0-.11,0H19a.2.2,0,0,0-.11,0,.18.18,0,0,0-.09.2c0,.07,0,.1-.1.1l-.11,0s-.08,0-.08,0a.14.14,0,0,0,0,.11s0,0,.06.05l.26.11A.17.17,0,0,0,19,8.77c0-.06,0-.09,0-.13l-.06,0ZM12.28,3.71h0s-.06,0-.07,0a.13.13,0,0,0,.08.16l.07,0c.15,0,.29.12.45.1l.07,0,.14,0c.05,0,.07,0,.07-.07s0-.08,0-.1a.28.28,0,0,0-.27-.15.41.41,0,0,1-.11,0ZM15.82,8h0a.5.5,0,0,0-.07-.08l-.18-.1a.81.81,0,0,1-.31-.24s0,0,0,0a.12.12,0,0,0-.08,0,.11.11,0,0,0,0,.08.14.14,0,0,0,0,.06c.11.11.18.24.3.34a1.06,1.06,0,0,1,.19.23s.09.09.14.07.06-.09.05-.14A1,1,0,0,0,15.82,8ZM9.91,18.84v0H10s.1,0,.1,0a.65.65,0,0,0,0-.13l0,0c-.11-.07-.24,0-.35-.06l-.05,0,.05,0h0s.05,0,.05-.05,0,0,0-.06a.29.29,0,0,0-.18-.05.11.11,0,0,1-.08,0,.09.09,0,0,0-.15.05s0,.08,0,.09.07,0,.1.05a.8.8,0,0,1,.15,0c.06,0,.05.05,0,.08a.11.11,0,0,0,0,.06s0,0,0,.05h.05a.58.58,0,0,1,.14,0A1.52,1.52,0,0,1,9.91,18.84ZM11,14.16a.38.38,0,0,0-.1,0s-.07.06-.07.09,0,.09,0,.1a.17.17,0,0,0,.12,0s.06,0,.1,0a.12.12,0,0,0,.17,0l.29-.3a.12.12,0,0,0-.15-.17l-.14.11C11.17,14.05,11.13,14.19,11,14.16Zm5.89-4.52a.11.11,0,0,0,0,.06.81.81,0,0,0,.18.1l.46.17a.08.08,0,0,0,.11,0s0-.1,0-.13a.59.59,0,0,0-.14-.06l-.1,0-.16-.1s-.1,0-.14-.08a.11.11,0,0,0-.15,0A.13.13,0,0,0,16.87,9.64Zm-5.75,7,.22,0a.33.33,0,0,0,.14,0,1.68,1.68,0,0,0,.21-.18.14.14,0,0,0,0-.09.11.11,0,0,0-.08-.05.58.58,0,0,0-.34.11.25.25,0,0,1-.16.08H11c-.06,0-.09,0-.09.08S11,16.65,11.12,16.65ZM17.6,9.36q-.2,0-.15.12s0,.06.06.08l.54.26h.11s0-.07,0-.1a.35.35,0,0,0-.05-.08.53.53,0,0,0-.29-.2Zm-.73,5.55.17,0a.06.06,0,0,0,.05-.08c0-.06-.14-.1-.19-.07h-.67a.33.33,0,0,0-.14,0,.12.12,0,0,1-.1,0,.07.07,0,0,0-.1,0,.07.07,0,0,0,.07.08l.16,0c.07,0,.14,0,.21,0s.05,0,.08,0h.07a.12.12,0,0,1,.13,0c.05,0,.09,0,.13,0s.05,0,.08,0Zm-8.63,1h0l0-.06-.08-.13c-.07-.09-.15-.18-.22-.28s-.1-.15-.16-.23l-.26-.33a.08.08,0,0,0-.12,0,.15.15,0,0,0,0,.11.52.52,0,0,0,.34.32l0,0a.51.51,0,0,1,.09.13c.06.09.09.21.18.28l.17.15Zm9.37-5.78c-.08,0-.11,0-.1.09a.37.37,0,0,0,.07.12c.06.07.14.13.2.21s.14.1.18,0,.09-.16.12-.24,0-.08,0-.09Zm-7.44,7.74h-.12s-.07,0-.07.05A.09.09,0,0,0,10,18c.07,0,.14.1.23.08h0l.15,0,.09,0,.13,0a.1.1,0,0,0,.12-.07c0-.06,0-.12,0-.15a1.27,1.27,0,0,0-.18-.06h-.08ZM11.37,2s-.09,0-.11,0a.12.12,0,0,0,.05.14.1.1,0,0,0,0,.05l.32.33a.09.09,0,0,0,.13,0,.14.14,0,0,0,0-.17L11.6,2.1A.3.3,0,0,0,11.37,2ZM18.7,9.12l-.25.06s-.05,0-.06,0a.61.61,0,0,0-.05.12c0,.05,0,.06.07.07l.22.07c.16,0,.24,0,.26-.18S18.85,9.12,18.7,9.12ZM3.1,4.33c-.09,0-.1,0-.08.1a.16.16,0,0,0,0,.07l.2.27L3.52,5a.13.13,0,0,0,.09,0l0-.11s0,0,0-.06l-.4-.49A.41.41,0,0,0,3.1,4.33Zm9.19,8.77h.08l.27-.13a.15.15,0,0,0,.06-.11s0-.06-.08-.07h-.09l-.09,0-.11,0-.14,0-.18.05s0,0,0,0a.1.1,0,0,0,.06.13c.06,0,.12.06.18,0Zm4.07-4.67h-.11c-.05,0-.1,0-.09.06s0,.11.06.12.15.11.22.16a.15.15,0,0,0,.25-.07s0-.05,0-.08a.14.14,0,0,0,0-.11.09.09,0,0,0-.08,0,.41.41,0,0,1-.22,0ZM11,5.93l.06,0,.22.07.12,0s.11,0,.11,0a.17.17,0,0,0,0-.13.31.31,0,0,0-.09-.07.85.85,0,0,0-.22,0,.25.25,0,0,1-.15,0s-.07,0-.1,0-.08.06-.13,0,0,0,0,0,0,.09.06.11S10.91,6,11,5.93ZM9.93,17.58h0a.75.75,0,0,0-.13.06s0,.08,0,.09l.18.05.08,0,.15,0,.24,0s.07,0,.11,0a.11.11,0,0,0,0-.13.1.1,0,0,0-.11-.07l-.27,0Zm.22-8.34c0-.05,0-.05-.09-.06a1.67,1.67,0,0,1-.38,0,.23.23,0,0,0-.18,0c-.06,0-.06.07,0,.12a.37.37,0,0,0,.24.1l.13,0a.14.14,0,0,0,.15,0l0,0A.15.15,0,0,0,10.15,9.24ZM10.48,12s-.09.06-.12.1,0,.1.06.13l0,0,.24.27a.06.06,0,0,0,.09,0c.09-.05.09-.1,0-.16a.08.08,0,0,1,0-.12.14.14,0,0,0,0-.18C10.65,12.09,10.57,12.07,10.48,12Zm.82,4.69-.09,0s-.08,0-.07.08a.13.13,0,0,0,.14.07s.07,0,.1,0a.33.33,0,0,0,.26,0,.62.62,0,0,0,.26-.12H12s0,0,0,0a.15.15,0,0,0-.09,0h-.12a.22.22,0,0,0-.08,0h-.4Zm6.13-8.81h0c.09,0,.12,0,.13-.09s0-.09-.12-.11-.17-.09-.27-.06h0l-.27-.07,0,0v0l.11.12a.62.62,0,0,0,.26.12A1.39,1.39,0,0,0,17.43,7.91ZM10.58,18.53v0l.17.05c.07,0,.12,0,.15-.05a.11.11,0,0,0,0-.15.53.53,0,0,0-.18,0,1.25,1.25,0,0,0-.19,0,.14.14,0,0,0-.17.06.15.15,0,0,0,.09.15Zm0,.24a.14.14,0,0,0,.11.15L11,19a.13.13,0,0,0,.14-.15.22.22,0,0,0-.21-.14.32.32,0,0,1-.14,0C10.66,18.63,10.6,18.67,10.6,18.77ZM13.81,8.34a.1.1,0,0,0-.11.13.75.75,0,0,0,.32.38.1.1,0,0,0,.09,0c.08-.05.08-.1,0-.17l-.19-.21a.43.43,0,0,0-.09-.1Zm-3.76,3.21h0l0,0s0,0,0,0a.14.14,0,0,1-.1-.05,1,1,0,0,1-.1-.17.29.29,0,0,0-.21-.16.07.07,0,0,0-.09.05.14.14,0,0,0,0,.16.86.86,0,0,1,.13.14.22.22,0,0,0,.27.09ZM8.71,18.49a.75.75,0,0,0-.09-.15,2,2,0,0,0-.21-.2L8.25,18H8.19s0,0,0,0a1.74,1.74,0,0,0,.1.19,3.88,3.88,0,0,0,.26.31.1.1,0,0,0,.09,0S8.68,18.53,8.71,18.49ZM5.22,4.85l.1-.07c.07-.07,0-.11,0-.13l-.2-.05-.15,0h-.2s-.05,0-.07,0l0,.07.09,0a.21.21,0,0,0,.13,0,.28.28,0,0,1,.2,0ZM11.33,18.4h0s-.05,0-.06,0-.07,0-.08.07,0,.08,0,.09a.21.21,0,0,0,.2.05s.08,0,.12,0a1.34,1.34,0,0,0,.2,0,.17.17,0,0,0,.06-.08s0-.06,0-.06l-.13,0h-.15Zm3.32-9.1s-.06,0-.07,0a.13.13,0,0,0,0,.21l.11,0a.18.18,0,0,1,.11.1.44.44,0,0,0,.08.11l.05,0c.06,0,.09-.13,0-.17l-.24-.27A1,1,0,0,0,14.65,9.3ZM4.52,6.16c.08,0,.1,0,.08-.08l-.1-.16a1,1,0,0,0-.13-.16l-.18-.12-.06,0-.06,0s0,0,0,.06l.38.48ZM10.41,11l.22,0h.12a.09.09,0,0,0,.08-.09.12.12,0,0,0-.08-.12.37.37,0,0,0-.18,0l-.26,0c-.05,0-.07,0-.05.08S10.33,11,10.41,11Zm.85,2a.19.19,0,0,0,.13.18.25.25,0,0,0,.22,0q.08-.06,0-.12l-.12-.15a.14.14,0,0,0-.17-.06C11.27,12.87,11.27,12.94,11.26,13ZM.91,8.53s0-.07,0-.08A2,2,0,0,0,.62,8.2s-.08,0-.1,0,0,.07,0,.11l0,0,.21.25s.05.07.1,0Zm15.81.86.11-.05c.08-.07.08-.11,0-.18L16.63,9a.15.15,0,0,0-.13,0s0,.07,0,.09a1.58,1.58,0,0,0,.15.24S16.68,9.38,16.72,9.39ZM9.58,19.67h.09c.06,0,.08-.05.07-.11a.19.19,0,0,0-.13-.13l-.18,0s-.09,0-.12,0,0,.1,0,.15A.33.33,0,0,0,9.58,19.67Zm1-18.42s0,.11.07.14a.67.67,0,0,0,.23.1s.06,0,.07,0a.12.12,0,0,0,0-.16l-.12-.14a.16.16,0,0,0-.09,0C10.64,1.09,10.61,1.14,10.59,1.25Zm.53,16.81c-.06,0-.08,0-.1.08s0,.11.09.15a.63.63,0,0,0,.31.05c.05,0,.12-.09.11-.14a.1.1,0,0,0,0,0l-.25-.07ZM16,7.4s-.07,0-.07,0a.13.13,0,0,0,0,.12.79.79,0,0,0,.33.2.08.08,0,0,0,.08,0,.17.17,0,0,0,0-.1l-.1-.1A.5.5,0,0,0,16,7.4ZM18.54,5a.16.16,0,0,0,0-.06.38.38,0,0,0-.17-.08,2.63,2.63,0,0,1-.3-.08.07.07,0,0,0-.07,0c0,.06,0,.12.06.15l.08,0a.42.42,0,0,0,.19,0,.55.55,0,0,1,.18,0S18.52,5,18.54,5ZM6.34,6.72h0l.07,0-.05,0a.22.22,0,0,0-.24-.06s0,0,0,0-.18-.09-.29,0-.06,0-.09,0l-.06,0s0,0,0,0v0a.3.3,0,0,0,.24.09h.07A.85.85,0,0,0,6.34,6.72Zm8.49.2a.23.23,0,0,0-.24-.21l-.09,0a.21.21,0,0,0,0,.11l.13.18c0,.08.12.08.16,0S14.82,7,14.83,6.92ZM9.92,9.67c-.09,0-.12,0-.15.1s0,.05,0,.06a1.29,1.29,0,0,0,.39,0c.06,0,.1,0,.06-.09a.26.26,0,0,0-.12-.09A.75.75,0,0,0,9.92,9.67Zm7.54,5.23h0l.14,0c.05,0,.05,0,0-.07a.14.14,0,0,0-.16-.07.76.76,0,0,1-.3,0c-.05,0-.08,0-.08.07a.1.1,0,0,0,.14.09A.33.33,0,0,1,17.46,14.9Zm.18-1.35s.05,0,.06-.05a.1.1,0,0,0-.06-.12c-.09-.05-.18-.11-.28,0h0a.05.05,0,0,0-.05.07s0,.08.07.08A2.34,2.34,0,0,0,17.64,13.55ZM14.45,2.18c-.07,0-.1,0-.1.09s0,.09.09.1l.16,0s0,0,.05,0a.64.64,0,0,0,.1-.13s-.05-.09-.1-.1A.68.68,0,0,0,14.45,2.18ZM7.26,8.92c-.13,0-.17.07-.13.16a.36.36,0,0,0,.22.11.13.13,0,0,0,.12-.08.12.12,0,0,0,0-.13Zm-4.8-.17s0,.06,0,.08a.26.26,0,0,0,.15.22l.08,0c0,.05.08.05.12,0s0-.08,0-.12l-.12-.12ZM19.29,7.18v0l-.14.07a.06.06,0,0,0,0,.06.12.12,0,0,0,.14.09h.09s.08,0,.09,0a.38.38,0,0,0,.05-.16h-.22ZM7,2.29v0s.06,0,.07,0a.13.13,0,0,0,0-.08l-.16-.07H6.86a.09.09,0,0,1-.12,0l-.07,0a.06.06,0,0,0-.07,0s0,.06,0,.07a.76.76,0,0,0,.18.09ZM5.33,3.54h0l.2.11H5.6c.05-.06.1,0,.16,0a.08.08,0,0,0,.12,0c0-.06,0-.11-.1-.12H5.55ZM14.63,2a.16.16,0,0,0,.08.14s.09,0,.14,0l.07,0C15,2,15,2,15,1.94s-.07-.09-.13-.08H14.7A.08.08,0,0,0,14.63,2ZM10.76,4.5a.36.36,0,0,0,0-.11s-.06-.07-.08-.11a.11.11,0,1,0-.16.14l.14.14s.07,0,.09,0A.73.73,0,0,0,10.76,4.5ZM1.46,8.36a.64.64,0,0,0-.08-.14c0-.06-.11-.1-.16-.15s-.08,0-.11,0a.07.07,0,0,0,0,.11l.12.12.12.1A.07.07,0,0,0,1.46,8.36ZM11.07,18l.14,0s0-.05,0-.07a.11.11,0,0,0-.11-.08l-.16,0a.09.09,0,0,0-.11,0,.09.09,0,0,0,0,.13ZM6.83,8.44a.11.11,0,0,0,0-.06.41.41,0,0,0-.11-.07.14.14,0,0,0-.19.07.07.07,0,0,0,0,0,.31.31,0,0,0,.24.13S6.83,8.51,6.83,8.44Zm4.71,6,.17,0a.13.13,0,0,0,.09-.2.07.07,0,0,0-.05,0,.26.26,0,0,0-.25.2S11.51,14.41,11.54,14.41Zm.1,4.71h-.07s-.06.07,0,.1a.18.18,0,0,0,.15.07H12s0,0,0,0a.49.49,0,0,0-.15-.1A.54.54,0,0,0,11.64,19.12ZM11.52,12l0,0a.12.12,0,0,0-.2.08s0,.07,0,.07l.2,0s.05,0,.09,0,.06,0,.09,0a.13.13,0,0,0,0-.09C11.64,12,11.59,12,11.52,12Zm2.66-8.26h0s.07,0,.08,0a.07.07,0,0,0,0-.07.08.08,0,0,0-.08,0,.09.09,0,0,1-.13,0s-.08-.06-.11,0a.17.17,0,0,0,0,.11s0,.08.08.08Zm-.72,11.76h.22l.05,0a.2.2,0,0,0-.06-.09s-.05,0-.07,0a.05.05,0,0,1-.08,0c-.11-.08-.14-.07-.22,0s0,.07,0,.08Zm-2.55-1.62h0a.16.16,0,0,0,.16-.15s0,0,0,0-.18-.05-.25.06,0,.11,0,.13ZM9.59,8.15A.1.1,0,0,0,9.44,8,.14.14,0,0,1,9.3,8a.08.08,0,0,0-.11.05s0,.08,0,.09h.15a.08.08,0,0,1,.1,0h.08A.07.07,0,0,0,9.59,8.15Zm1.63,11.14s-.07,0-.09.07,0,.09,0,.12l.1.07c.05,0,.09,0,.11,0A.17.17,0,0,0,11.22,19.29Zm8.23-7.77c0,.09.07.18.14.17a.19.19,0,0,0,.12-.11c0-.06,0-.09-.07-.12l-.05,0C19.5,11.39,19.45,11.42,19.45,11.52Zm-8.5.91a.15.15,0,0,0,.13.16.14.14,0,0,0,.11-.15.13.13,0,0,0-.14-.12C11,12.31,11,12.36,11,12.43ZM5.86,7.48a.21.21,0,0,0-.19-.17.08.08,0,0,0-.06,0,.13.13,0,0,0,.09.18l.06,0C5.83,7.58,5.86,7.56,5.86,7.48ZM7.59,9.36c-.08,0-.11,0-.08.09a.27.27,0,0,0,.08.07.21.21,0,0,0,.1.06H7.8s0-.05,0-.08a.1.1,0,0,0-.08-.08l-.09,0ZM12.87,8c0,.07,0,.1.09.11l.07,0s.06,0,.09,0,0,0,0-.06a.23.23,0,0,0-.05-.1A.52.52,0,0,0,13,8C12.92,8,12.87,8,12.87,8ZM10.59,14.5h0l-.13,0s-.05,0,0,.05a.18.18,0,0,0,.06.09s0,0,0,0h.11s.07,0,.08,0a.16.16,0,0,0,0-.1l0,0ZM15.12,2.78A.1.1,0,0,0,15,2.67a.18.18,0,0,1-.09,0s-.08,0-.1,0-.05.06,0,.09a.16.16,0,0,0,.07.07.2.2,0,0,1,.15,0s.05,0,.08,0A.11.11,0,0,0,15.12,2.78Zm-9.91,4c0-.08-.12-.19-.2-.17A.07.07,0,0,0,5,6.7a.22.22,0,0,0,.13.17A.08.08,0,0,0,5.21,6.79ZM3.67,4.51h.06l.07,0,0-.06,0,0a.14.14,0,0,0-.24,0s0,.08,0,.09ZM9.76,14.88s.07,0,.08,0a.13.13,0,0,0,0-.11.25.25,0,0,0-.12-.08.08.08,0,0,0-.11.06C9.57,14.81,9.63,14.87,9.76,14.88Zm.85,2.48a1.12,1.12,0,0,0,.1.16.16.16,0,0,0,.1,0s0-.06,0-.09a.26.26,0,0,0,0-.11.08.08,0,0,0-.11,0S10.65,17.32,10.61,17.36Zm.6-4.38a.2.2,0,0,0-.1-.19s0,0-.07,0S11,13,11.1,13,11.21,13,11.21,13Zm5.33,2.73.15,0c.08,0,.11,0,.17,0s0-.05,0-.07l-.08,0h-.13C16.6,15.61,16.55,15.64,16.54,15.71Zm.65-7h0a.43.43,0,0,0-.1-.09.09.09,0,0,0-.15,0,.14.14,0,0,0,.06.15.3.3,0,0,0,.18-.08Zm2.06-2.18c0-.07,0-.12-.1-.12a.16.16,0,0,0-.12.14.12.12,0,0,0,.13.1A.11.11,0,0,0,19.25,6.49ZM19,14.09a.19.19,0,0,0-.08-.15c-.06,0-.11,0-.12.05a.18.18,0,0,0,.09.18C19,14.2,19,14.18,19,14.09Zm-7.37,3.14a.11.11,0,0,0,.12.11l.08,0c.07,0,.07,0,0-.08s0,0,0,0a.15.15,0,0,0-.15-.06A.23.23,0,0,0,11.67,17.23Zm-2-1.18c-.07,0-.1,0-.1.07s.07.14.15.15.07,0,.07-.08S9.71,16.05,9.63,16.05ZM17.18,5l-.13,0-.07,0s0,.05.07.06h.05a.13.13,0,0,1,.12,0,.13.13,0,0,0,.09,0,0,0,0,0,0,0-.08ZM12.77,3.18h0l.06,0a.19.19,0,0,0,0-.07.14.14,0,0,0-.21,0,.18.18,0,0,0-.05.07s.05,0,.09.06ZM9.36,19.83q0-.12-.15-.12a.11.11,0,0,0-.11.11c0,.06.05,0,.07,0l.05,0A.09.09,0,0,0,9.36,19.83ZM11.07,19c-.09,0-.14,0-.13.09a.12.12,0,0,0,.13.11s.09,0,.09-.12A.09.09,0,0,0,11.07,19Zm2.47-11s-.06,0,0,.07.12.14.17.11a.31.31,0,0,0,.07-.09s0-.05,0-.05Zm4.08-2.81.08-.06s0,0,0,0l-.16-.1s-.08,0-.08,0,0,.09,0,.1A.71.71,0,0,0,17.62,5.25Zm-9.39,4.9a.36.36,0,0,0,0,.09.86.86,0,0,0,.14.13h0l0,0s0,0,0-.07l-.11-.16-.06,0S8.25,10.12,8.23,10.15Zm1.86,5a.13.13,0,0,0-.12.11s.06.09.12.09.09-.06.09-.11A.09.09,0,0,0,10.09,15.2ZM9.1,16,9,16s-.07,0,0,.09a.09.09,0,0,0,.12,0h.08l.05,0a0,0,0,0,0,0,0Zm4.33.13s-.1,0-.08.06a.28.28,0,0,0,.12.12s.08,0,.08-.1S13.52,16.08,13.43,16.08ZM1.68,7.77a.09.09,0,0,0-.07-.09c-.05,0-.1.07-.1.13s0,.08.09.09S1.68,7.84,1.68,7.77ZM13.36,3.88a.11.11,0,0,0-.11.08.14.14,0,0,0,.13.11c.06,0,.06-.06.06-.1S13.42,3.88,13.36,3.88Zm-.24,7.55a.1.1,0,0,0,.09-.08s0-.07-.05-.08l-.05,0H13a.15.15,0,0,0,0,.09S13.08,11.4,13.12,11.43Zm.57-8s.09-.05.11-.08,0-.07,0-.09-.09,0-.12,0-.05,0,0,.07A.3.3,0,0,0,13.69,3.39Zm1.79,11.36a.34.34,0,0,0-.11.05s0,0,0,0l0,0a.15.15,0,0,1,.13,0,.07.07,0,0,0,.1,0c0-.05,0-.07-.06-.08ZM7.73,13v0l-.13-.18s0,0-.08,0,0,.06,0,.08a.87.87,0,0,0,.13.15.05.05,0,0,0,0,0Zm4.73-9.64s-.05,0-.05.07a.08.08,0,0,0,0,.06l.12,0,0,0s0,0,0,0A1,1,0,0,0,12.46,3.39Zm-.24-.45a.07.07,0,0,0-.06.08.09.09,0,0,0,.09.1s.07,0,.07-.07A.12.12,0,0,0,12.22,2.94Zm3.56,12,.06-.06a.08.08,0,0,0,0-.06.14.14,0,0,0-.09,0,.08.08,0,0,0-.06,0s0,.05,0,.06ZM5.51,6.8a.12.12,0,0,0,.06.06s.11-.07.1-.11a.06.06,0,0,0,0,0A.09.09,0,0,0,5.51,6.8Zm13.2,4.53.06.05s.1-.05.1-.09a.05.05,0,0,0-.05-.07S18.72,11.27,18.71,11.33Zm-.94-2.49c0-.05,0-.09-.06-.09a.07.07,0,0,0-.08.08c0,.05,0,.08.08.08S17.78,8.88,17.77,8.84Zm-8-.77h0l0,0s0,0,0,.05.12.08.17,0,0,0,0,0ZM9.54,5.6a.07.07,0,0,0,.06-.07c0-.06,0-.07-.1-.07s-.07,0-.07,0S9.46,5.59,9.54,5.6Zm7.54,7.88s.08,0,.08-.06a.07.07,0,0,0-.08-.08s-.06,0-.06.07S17,13.48,17.08,13.48ZM6.13,5.88l.12,0a.07.07,0,0,0,0,0s0,0,0,0a.08.08,0,0,0-.07,0A.16.16,0,0,0,6.13,5.88ZM3.49,17.44s.15-.1.14-.13,0,0,0,0l-.12.07a.13.13,0,0,0,0,.06A0,0,0,0,0,3.49,17.44Zm15.53-5c0,.07.05.12.1.11s0,0,0,0-.05-.12-.09-.11S19,12.48,19,12.49Zm.29-.15s0,0,0,0,.11,0,.1-.09a.06.06,0,0,0-.05,0S19.31,12.26,19.31,12.34ZM3.73,3s0,0,0,0,.05.1.09.09.05,0,.06,0S3.79,3,3.73,3Zm2.57.63s0,0,0,0-.06-.09-.1-.09,0,0-.05,0S6.23,3.67,6.3,3.67ZM8,6.68,8,6.76s0,.06.08.06.06,0,.06-.07S8.07,6.72,8,6.68Zm-2-3.16S6,3.57,6,3.58a.15.15,0,0,0,0,.09s.07,0,.07-.06Zm8.41-2.08s-.05-.06-.07-.06-.06,0-.06.08a.18.18,0,0,0,.05.07Zm3.42,13-.12-.08-.05,0a.23.23,0,0,0,.1.07S17.85,14.43,17.89,14.4Zm-2.07-3.71a.42.42,0,0,0-.12-.08l0,0,.11.08Zm-3.75-2.6S12,8,12,8l-.05,0a.09.09,0,0,0,.06.06S12,8.12,12.07,8.09ZM6,5.83l.07-.06L6,5.72s0,0,0,0ZM12,12l0,0-.1.07,0,0ZM5.28,14.65l.12.13C5.42,14.69,5.37,14.63,5.28,14.65ZM12.81,4.31s-.05,0-.07,0,0,0-.05,0a.15.15,0,0,0,.05.06ZM3.56,3.16s0-.05,0-.06,0,0-.06-.06l0,0ZM6.5,5.9l-.08-.06,0,0,.07.06ZM7.07.55,7,.61l.05,0a.07.07,0,0,0,0,0ZM17.67,14.4s-.05-.05-.07-.05,0,0,0,0a.1.1,0,0,0,0,0Zm-4.44,1.7s0,0,0,.06,0,0,0,0,0,0,0,0S13.25,16.13,13.23,16.1ZM1,9.55s0,0,0,0l0,.05s0,0,0,0A.23.23,0,0,0,1,9.55Zm10.86.34-.06,0,0,0s0,0,0,0Z" transform="translate(0)"/></svg>