<?xml version="1.0" encoding="utf-8"?>
<!-- Generator: Adobe Illustrator 25.0.1, SVG Export Plug-In . SVG Version: 6.00 Build 0)  -->
<svg version="1.1" id="Layer_1" xmlns="http://www.w3.org/2000/svg" xmlns:xlink="http://www.w3.org/1999/xlink" x="0px" y="0px"
	 viewBox="0 0 20 20" style="enable-background:new 0 0 20 20;" xml:space="preserve">
<style type="text/css">
	.st0{fill:#5F5F5F;}
</style>
<g>
	<path class="st0" d="M4.8,1.4c0,0,0.1-0.1,0.1-0.1c0.1-0.1,0.3-0.1,0.4-0.2C5.5,1.1,5.6,1,5.7,1C5.8,0.9,5.9,0.9,6,0.8
		c0.1,0,0.1-0.1,0.2-0.1c0.1-0.1,0.3-0.1,0.4-0.1C6.7,0.5,6.9,0.5,7,0.5c0,0,0.1,0,0.1,0c0.1,0,0.2-0.1,0.3-0.1
		c0.1,0,0.2-0.1,0.3-0.1c0.1,0,0.2,0,0.3,0c0.1,0,0.3-0.1,0.4-0.1c0.1,0,0.3,0,0.4,0c0.1,0,0.2,0,0.3,0c0,0,0,0,0,0
		c0.1,0,0.2,0,0.2,0c0.1,0,0.2,0,0.3,0c0.1,0,0.2,0,0.3,0c0.1,0,0.2,0,0.3,0c0,0,0.1,0,0.1,0c0.1,0,0.2,0,0.3,0c0.1,0,0.2,0,0.3,0
		c0,0,0,0,0.1,0c0.1,0,0.1,0,0.2,0c0,0,0,0,0.1,0c0.1,0,0.3,0.1,0.4,0.1c0.2,0,0.4,0.1,0.6,0.1c0.1,0,0.1,0,0.2,0.1
		c0.2,0,0.5,0.1,0.7,0.2c0,0,0,0,0,0c0,0,0,0,0,0c0,0-0.1,0-0.1,0c0,0-0.1,0-0.1,0.1c0,0,0,0.1,0,0.1c0,0,0,0,0.1,0.1
		C13.3,1,13.4,1,13.5,1c0.1,0,0.1,0,0.2,0c0,0,0.1,0,0.1,0c0,0,0.1-0.1,0.1-0.1c0,0,0-0.1-0.1-0.1c0.1,0,0.2,0,0.2,0.1
		C14,1,14.2,1.1,14.4,1.1c0.1,0,0.2,0,0.3,0c0.1,0.1,0.3,0.1,0.4,0.2c0,0,0.1,0.1,0.1,0.1c0,0,0,0,0,0c0,0-0.1,0-0.1,0
		c-0.1,0-0.2,0-0.3,0c-0.1,0-0.1,0.1-0.1,0.1c0,0.1,0,0.1,0.1,0.1c0.1,0,0.2,0,0.3,0c0,0,0,0,0,0c0.1,0.1,0.3,0,0.5,0.1
		c0,0,0.1,0,0.1,0c0.1-0.1,0.2,0,0.3,0.1C16,2,16.2,2.1,16.3,2.3c0.1,0.1,0.1,0.1,0.2,0.2c0.1,0.1,0.2,0.1,0.2,0.2
		c0.1,0.1,0.1,0.1,0,0.2c0,0-0.1,0-0.1,0c0,0,0,0-0.1,0.1c0,0,0,0.1,0,0.1c0,0,0.1,0,0.1,0c0.1,0,0.1-0.1,0.2-0.1c0,0,0.1,0,0.1,0
		c0.1,0.1,0.2,0.2,0.3,0.3c0.2,0.2,0.3,0.3,0.5,0.5c0,0,0,0,0,0c0,0,0,0.1,0,0c-0.1,0-0.2-0.1-0.3-0.1c-0.1,0-0.2,0-0.3,0.1
		c0,0-0.1,0-0.1,0.1c0,0,0,0.1,0,0.1c0,0,0,0.1,0.1,0.1C17.3,4,17.5,4,17.7,4.1c0.1,0,0.1,0,0.2,0.1c0,0,0.1,0,0.1,0
		c0.1,0,0.2,0.1,0.2,0.1c0,0,0,0.1-0.1,0.1c-0.1,0-0.2,0-0.3-0.1c0,0-0.1,0-0.1,0c-0.1,0-0.1,0-0.2,0c-0.1,0-0.1,0.1,0,0.1
		c0.1,0.1,0.2,0.1,0.3,0.2c0.1,0.1,0.3,0.1,0.5,0.1c0.1,0,0.2,0,0.2,0.1c0.1,0.1,0.1,0.1,0.2,0.2c0,0,0,0.1,0.1,0.1
		c0.1,0.1,0.1,0.2,0.2,0.3c0.1,0.1,0.1,0.2,0.2,0.3c0,0,0,0.1,0,0.1c0,0-0.1,0-0.1,0c-0.1,0-0.2-0.1-0.2-0.1c0,0,0,0-0.1,0
		c-0.1,0-0.1,0-0.2,0c-0.1,0-0.2-0.1-0.3-0.1c-0.1,0-0.2-0.1-0.3-0.1c-0.1,0-0.1,0-0.2,0c0,0-0.1,0-0.1,0c-0.1-0.1-0.1-0.1-0.2-0.1
		c0,0-0.1,0-0.1,0c0,0-0.1,0-0.1,0c0,0-0.1,0-0.1,0c0,0,0,0-0.1,0c-0.1,0-0.3,0-0.4-0.1c-0.2,0-0.4-0.1-0.5-0.1c0,0,0,0-0.1,0
		c-0.1,0-0.1,0-0.2,0c0,0-0.1,0-0.1,0c-0.1,0-0.1,0-0.2,0c-0.1,0-0.1,0-0.2,0.1c0,0.1,0,0.1,0,0.1c0,0,0,0,0,0c0.1,0,0.1,0,0.2,0
		c0.1,0,0.1,0.1,0.2,0.1c0,0,0.1,0,0.1,0c0.1,0,0.2,0,0.3,0.1c0,0,0.1,0,0.1,0c0.1,0,0.1,0,0.2,0.1c0.1,0,0.1,0.1,0.2,0
		c0.1,0,0.1,0,0.2,0.1c0.1,0,0.1,0,0.2,0c0,0,0.1,0,0.1,0c0.1,0,0.2,0.1,0.2,0.1c0.1,0,0.2,0,0.3,0.1c0,0,0.1,0,0.1,0
		c0.1,0,0.2,0,0.3,0.1c0.1,0,0.1,0,0.2,0c0,0,0.1,0,0.1,0C18.5,6,18.6,6,18.7,6c0,0,0.1,0,0.1,0c0.1,0.1,0.2,0,0.3,0
		c0.1-0.1,0.1-0.1,0.1,0c0,0.1,0.1,0.2,0.2,0.4c0,0.1,0.1,0.2,0.1,0.3c0,0.1,0.1,0.2,0.1,0.3c0.1,0.2,0.1,0.4,0.2,0.6
		c0,0.1,0,0.1,0.1,0.2c0,0.1,0,0.1-0.1,0.1c-0.1,0-0.1,0-0.2,0c-0.1,0.1,0,0.1,0,0.2c0,0,0.1,0,0.1,0.1c0,0,0.1,0,0.1,0
		c0.1,0,0.1,0,0.1,0.1c0,0.1,0,0.1,0,0.2c0,0,0,0.1,0,0.1c0,0,0,0-0.1,0c0,0-0.1,0-0.1-0.1c-0.1,0-0.1,0-0.2-0.1c-0.1,0-0.1,0-0.2,0
		c-0.1,0.1-0.1,0.1-0.1,0.2c0,0,0,0.1,0,0.1c0,0.1,0,0.1,0,0.1c-0.1,0-0.1,0.1-0.1,0.1c0,0.1,0.1,0.1,0.1,0.1c0.1,0,0.2,0.1,0.3,0.1
		c0,0,0,0,0,0c0.1,0,0.2,0.1,0.3,0.1c0.1,0,0.1,0.1,0.1,0.1c0,0.1,0,0.2-0.1,0.3c0,0-0.1,0-0.1,0.1c0,0,0.1,0.1,0.1,0.1c0,0,0,0,0,0
		c0,0,0.1,0,0.1,0c0,0.1,0,0.1,0,0.2c0,0,0,0-0.1,0c-0.1,0-0.2-0.1-0.3-0.1c-0.1,0-0.2,0-0.3,0c0,0-0.1,0-0.1,0
		c-0.1,0-0.1,0.1-0.1,0.2c0,0,0,0,0.1,0c0,0,0.1,0,0.1,0c0.1,0,0.1,0,0.2,0c0.1,0,0.2,0,0.2,0.1c0.1,0,0.1,0.1,0.2,0.1
		c0,0,0.1,0,0.1,0.1c0,0.1,0,0.1,0,0.2c0,0,0,0.1-0.1,0.1c0,0-0.1,0-0.1,0c-0.2,0-0.4-0.1-0.5-0.1c0,0,0,0,0,0c0,0-0.1,0-0.1,0
		c0,0,0,0.1,0,0.1c0,0,0.1,0.1,0.1,0.1c0.2,0.1,0.3,0.1,0.5,0.2c0.1,0,0.1,0,0.1,0.1c0,0,0,0.1,0,0.1c0,0,0,0,0,0
		c-0.1,0-0.1-0.1-0.2-0.1c0,0-0.1,0-0.1,0c-0.1,0-0.1,0-0.1,0.1c0,0.1,0.1,0.2,0.3,0.2c0.1,0,0.1,0,0.1,0.1c0,0.1,0,0.2-0.1,0.2
		c0,0,0,0-0.1,0.1c-0.1,0-0.1,0.1,0,0.2c0,0,0,0,0,0.1c0,0.2-0.1,0.4-0.1,0.6c0,0.1-0.1,0.3-0.1,0.4c0,0.1-0.1,0.2-0.1,0.3
		c0,0.1-0.1,0.2-0.1,0.3c0,0.1-0.1,0.2-0.1,0.3c0,0.1-0.1,0.2-0.1,0.2c0,0.1-0.1,0.2-0.1,0.3c0,0.1-0.1,0.2-0.1,0.3
		c0,0.1-0.1,0.1-0.1,0.2c0,0,0,0.1-0.1,0.1c-0.1,0-0.2,0-0.3,0c0,0,0,0-0.1,0c-0.1,0-0.1,0-0.2,0c0,0-0.1,0-0.1,0c0,0-0.1,0-0.1,0
		c0,0,0,0,0,0.1c0,0,0,0,0,0.1c0,0,0.1,0,0.1,0c0,0,0.1,0,0.1,0c0,0,0.1,0,0.1,0c0.1,0,0.2,0,0.2,0c0,0,0,0,0,0.1c0,0-0.1,0-0.1,0
		c0,0-0.1,0-0.1,0c-0.1,0-0.1,0-0.2,0c-0.1,0-0.3-0.1-0.4-0.1c0,0,0,0,0,0c-0.1,0-0.1,0-0.2,0c0,0-0.1,0-0.1,0c-0.1,0-0.1,0-0.2,0
		c-0.1,0-0.1,0-0.2,0c0,0-0.1,0-0.1,0c0,0-0.1,0-0.1,0c0,0,0,0-0.1,0c-0.1,0-0.1,0-0.2,0c0,0,0,0,0,0c-0.1,0-0.1,0-0.2,0
		c0,0-0.1,0-0.1,0c-0.1,0-0.2,0-0.3,0c0,0,0,0-0.1,0c-0.1,0-0.1,0-0.2,0c-0.1,0-0.2,0-0.3,0c0,0-0.1,0-0.1,0c0,0-0.1,0-0.1,0
		c-0.2,0-0.3,0-0.5,0c0,0-0.1,0-0.1,0c-0.1,0-0.1,0-0.2,0c0,0-0.1,0-0.1,0c-0.1,0-0.2,0-0.3,0c-0.1,0-0.1,0-0.2,0
		c-0.1,0-0.1,0-0.2,0c0,0,0,0,0,0c-0.1,0-0.1,0-0.2,0.1c0,0,0,0,0,0.1c0,0.1,0.1,0.1,0.2,0.1c0,0,0.1,0,0.1,0c0,0,0.1,0,0.1,0
		c0,0,0.1,0,0.1,0c0,0,0,0,0.1,0c0.1,0,0.3,0,0.4,0c0.1,0,0.2,0,0.4,0c0,0,0,0,0.1,0c0.1,0,0.1,0,0.2,0c0,0,0,0,0.1,0
		c0.2,0,0.4,0,0.6,0c0,0,0.1,0,0.1,0c0,0,0,0,0.1,0c0.1,0,0.1,0,0.2,0c0,0,0,0,0,0c0.1,0,0.2,0,0.3,0c0,0,0.1,0,0.1,0
		c0.1,0,0.2,0,0.4,0c0.1,0,0.1,0,0.2,0c0,0,0,0,0.1,0c0.1,0,0.2,0,0.2,0c0.1,0,0.2,0,0.3,0c0.1,0,0.2,0,0.3,0c0,0,0,0,0,0
		c0.1,0,0.1,0,0.2,0c0,0,0.1,0,0.1,0c0,0,0.1,0,0.1,0c0,0,0.1,0,0.1,0c0,0,0,0,0.1,0c0,0,0.1,0,0.1,0c0,0,0,0.1,0,0.1
		c0,0,0,0-0.1,0.1c0,0.1-0.1,0.1-0.1,0.1c0,0-0.1,0-0.1,0c0,0,0,0-0.1,0c0,0-0.1,0-0.1,0c0,0,0,0,0,0c-0.1,0-0.1,0.1,0,0.1
		c0,0,0.1,0,0.1,0c0,0,0.1,0,0.1,0c0,0,0,0.1,0,0.1c0,0,0,0.1-0.1,0.1c0,0.1-0.1,0.1-0.1,0c0,0,0,0,0,0c-0.1,0-0.2,0-0.2,0
		c0,0-0.1,0-0.1,0c0,0-0.1,0-0.1,0c0,0,0,0,0,0c-0.1,0-0.2,0-0.3,0c-0.1,0-0.1,0-0.2,0c0,0-0.1,0-0.1,0c0,0,0,0-0.1,0
		c-0.1,0-0.2,0-0.4,0c0,0-0.1,0-0.1,0c-0.1,0-0.3,0-0.4,0c0,0-0.1,0-0.1,0c-0.2,0-0.3,0-0.5,0c-0.1,0-0.1,0-0.2,0c0,0,0,0-0.1,0
		c0,0-0.1,0-0.1,0c0,0-0.1,0-0.1,0c-0.1,0-0.1,0-0.1,0c0,0,0,0.1,0,0.1c0,0.1,0.1,0.1,0.2,0.1c0.2,0,0.3,0,0.5,0c0.1,0,0.3,0,0.4,0
		c0,0,0,0,0.1,0c0,0,0.1,0,0.1,0c0.1,0,0.2,0,0.3,0c0,0,0.1,0,0.1,0c0,0,0,0,0.1,0c0.1,0,0.1,0,0.2,0c0,0,0,0,0,0
		c0.1-0.1,0.2,0,0.2,0c0.1,0,0.2,0,0.3,0c0.1,0,0.2,0,0.3,0c0,0,0,0,0.1,0c0.1,0,0.1,0,0.2,0c0.1,0,0.1,0,0.2,0c0,0,0,0,0,0
		c0,0,0,0,0,0.1c-0.1,0.1-0.1,0.1-0.2,0.2c-0.1,0.1-0.1,0.1-0.2,0.2c0,0,0,0,0,0c0,0.1-0.1,0.2-0.2,0.2c-0.1,0-0.2,0-0.2,0
		c-0.1,0-0.3,0-0.4,0c-0.1,0-0.2,0-0.3,0c-0.2,0-0.3,0-0.5,0c0,0,0,0-0.1,0c0,0-0.1,0-0.1,0c-0.1,0-0.1,0-0.1,0.1c0,0.1,0,0.1,0,0.1
		c0.1,0.1,0.2,0.1,0.3,0.1c0.1,0,0.1,0,0.2,0c0.1,0,0.3,0,0.4-0.1c0.1,0,0.1,0,0.2,0c0.1,0,0.2,0,0.3,0c0.1,0,0.1,0,0.2,0
		c0,0,0,0,0,0c0,0,0,0,0,0c-0.1,0.1-0.1,0.1-0.2,0.1c-0.1,0-0.2,0-0.3,0c0,0-0.1,0-0.1,0.1c0,0,0,0.1,0.1,0.1c0,0,0.1,0,0.1,0
		c0,0,0,0,0,0c0,0,0,0,0,0c-0.1,0-0.1,0-0.2,0c-0.1,0-0.1,0-0.2,0c0,0-0.1,0-0.1,0c-0.1,0-0.2,0-0.2,0.1c0,0,0,0.1,0,0.1
		c0,0,0.1,0.1,0.2,0.1c0.1,0,0.1,0,0.2,0c0,0,0,0,0,0c0,0,0,0,0,0c-0.1,0.1-0.2,0.1-0.2,0.2c0,0-0.1,0-0.1,0
		c-0.1-0.1-0.2-0.1-0.3-0.1c-0.1,0-0.1,0-0.2,0c-0.1,0-0.2,0-0.2,0c0,0-0.1,0-0.1,0c0,0-0.1,0-0.1,0c-0.1,0-0.2,0-0.2,0
		c-0.1,0-0.2,0-0.3,0c0,0,0,0,0,0c-0.1,0-0.3,0-0.4,0c-0.1,0-0.1,0-0.2,0c-0.1,0-0.2,0-0.3,0c0,0,0,0,0,0c-0.1,0-0.1,0-0.2,0.1
		c-0.1,0-0.2,0-0.2,0c0,0-0.1,0-0.1,0c0,0,0,0.1,0,0.1c0.1,0.1,0.2,0.2,0.4,0.2c0,0,0.1,0,0.1,0c0.1-0.1,0.2,0,0.3-0.1
		c0,0,0,0,0.1,0c0.1-0.1,0.1,0,0.2-0.1c0,0,0,0,0,0c0.2,0,0.3,0,0.5,0c0.1,0,0.3,0,0.4,0c0,0,0.1,0,0.1,0c0,0,0.1,0,0.1,0
		c0,0,0.1,0,0.1,0c0.1,0,0.2,0,0.3,0c0,0,0.1,0,0.1,0c0,0,0,0,0,0c-0.1,0.1-0.2,0.1-0.3,0.1c-0.1,0-0.2,0-0.3,0c-0.1,0-0.2,0-0.2,0
		c-0.1,0-0.1,0-0.2,0c-0.1,0-0.3,0-0.4,0c0,0,0,0-0.1,0c-0.1,0-0.2,0-0.3,0c0,0,0,0,0,0c-0.1,0-0.2,0-0.3,0c-0.1,0-0.1,0.1-0.1,0.1
		c0,0,0,0.1,0.1,0.1c0,0,0,0,0.1,0c0,0,0,0,0.1,0c0.1,0,0.2,0,0.2,0c0.1,0,0.2,0,0.3,0c0.1,0,0.2-0.1,0.2,0c0,0,0,0,0.1,0
		c0,0,0,0,0.1,0c0.1,0,0.3,0,0.4,0c0,0,0,0,0.1,0c0,0,0,0,0,0c0,0,0,0,0,0c-0.1,0-0.1,0.1-0.2,0.1c0,0-0.1,0-0.1,0
		c-0.1,0-0.1,0-0.2,0c0,0,0,0,0,0c-0.1,0-0.1,0-0.2,0c0,0-0.1,0-0.1,0c0,0-0.1,0-0.1,0c-0.1,0-0.2,0-0.3,0c-0.1,0.1-0.1,0.1,0,0.2
		c0,0,0,0,0,0c0,0,0,0-0.1,0c-0.1,0-0.2,0.1-0.3,0.1c-0.1,0-0.2,0.1-0.3,0.1c0,0,0,0-0.1,0c-0.1-0.1-0.1-0.1-0.2-0.1c0,0,0,0-0.1,0
		c0,0-0.1,0-0.1,0c0,0,0,0.1,0,0.1c0,0,0,0,0,0c0,0,0,0,0,0c0,0,0,0-0.1-0.1c0,0,0,0,0-0.1c0,0,0,0,0-0.1c0,0,0,0-0.1,0
		c0,0-0.1,0-0.1,0c-0.1,0-0.1,0-0.2,0c0,0-0.1,0-0.1,0.1c0,0,0,0.1,0.1,0.1c0.1,0,0.1,0,0.1,0.1c0,0,0,0,0,0c0,0,0,0.1,0.1,0.1
		c0,0-0.1,0-0.1,0.1c0,0-0.1,0-0.1,0c0,0,0,0-0.1,0c0,0-0.1,0-0.1,0c-0.1,0-0.1,0-0.2,0c0,0-0.1,0-0.1,0c0,0-0.1,0-0.1,0
		c-0.1-0.1-0.2-0.1-0.3-0.1c-0.1,0-0.1,0-0.2,0c0,0-0.1,0-0.1,0c0,0-0.1,0-0.1,0c0,0,0,0-0.1,0c0,0,0,0,0.1,0c0,0,0,0,0.1,0
		c0,0,0,0-0.1,0c0,0-0.1,0-0.1,0c-0.1,0-0.1,0-0.1-0.1c0,0-0.1,0-0.1,0c0,0-0.1,0-0.1,0c0,0-0.1,0-0.1,0c0,0-0.1,0-0.1,0
		c0,0,0,0.1,0,0.1c0.1,0.1,0.2,0.1,0.3,0.1c0,0,0,0,0.1,0c0,0,0.1,0,0.1,0c0,0,0,0,0,0c0,0,0,0-0.1,0c-0.1,0-0.1,0-0.1,0.1
		c0,0,0,0.1,0,0.1c0,0,0,0.1,0.1,0.1c0,0,0,0,0,0c0,0-0.1,0-0.1,0C10,20,10,20,10,19.9c0-0.1-0.2-0.3-0.4-0.2c-0.1,0,0,0.1,0,0.1
		c0,0,0.1,0.1,0,0.1c0,0-0.1,0-0.1,0c-0.1,0-0.2,0-0.3,0c-0.1,0-0.3,0-0.4,0c0,0,0,0,0,0c-0.1,0-0.2,0-0.3,0c0,0,0,0,0,0
		c0,0,0-0.1,0.1-0.1c0.1-0.1,0.2-0.1,0.3-0.2c0.1,0,0.1-0.1,0.1-0.1c0,0,0-0.1,0-0.1c-0.1-0.1-0.1-0.2-0.2-0.3c0-0.1-0.1-0.1-0.2,0
		c-0.1,0.1-0.2,0.2-0.2,0.3c0,0,0,0.1-0.1,0.1c0,0.1-0.1,0.1-0.1,0.2c0,0,0,0.1-0.1,0.1c0,0,0,0-0.1,0.1c0,0-0.1,0-0.1,0
		c0,0,0-0.1,0-0.1c0.1-0.1,0.1-0.2,0.2-0.3c0.1-0.1,0.2-0.2,0.2-0.3c0.1-0.1,0.1-0.2,0.2-0.3c0,0,0-0.1,0-0.1
		c-0.1-0.1-0.1-0.2-0.2-0.2c-0.1-0.1-0.2-0.2-0.2-0.3c-0.2-0.3-0.5-0.6-0.7-0.8c-0.2-0.2-0.3-0.4-0.5-0.6c0,0-0.1-0.1-0.1-0.1
		c-0.2-0.2-0.4-0.4-0.5-0.6c-0.1-0.1-0.2-0.1-0.3,0c-0.2,0.2-0.5,0.4-0.7,0.6c-0.1,0-0.1,0.1-0.2,0.1C5,16.8,5,16.9,5,17
		c0.1,0.1,0.2,0.3,0.3,0.4c0.1,0.1,0.2,0.2,0.3,0.3c0.2,0.2,0.3,0.4,0.5,0.6c0.2,0.2,0.4,0.5,0.6,0.7c0.1,0.1,0.2,0.2,0.3,0.4
		c0,0,0.1,0.1,0.1,0.1c0,0,0,0.1,0,0.1c0,0-0.1,0-0.1,0c-0.2-0.1-0.3-0.1-0.5-0.2c-0.1,0-0.2-0.1-0.4-0.1c0,0-0.1-0.1-0.1-0.1
		C6,19,5.9,18.9,5.8,18.7c-0.1-0.1-0.2-0.2-0.3-0.4c-0.1-0.1-0.2-0.2-0.3-0.3c-0.1-0.1-0.2-0.3-0.4-0.4c-0.1-0.1-0.1-0.2-0.2-0.3
		c-0.1-0.1-0.2-0.1-0.3,0c-0.2,0.2-0.3,0.3-0.5,0.5c0,0-0.1,0-0.1,0c-0.1-0.1-0.3-0.2-0.4-0.4c0,0,0,0,0,0c-0.1-0.1-0.1-0.1,0-0.1
		c0.1,0,0.1-0.1,0.2-0.1c0.1,0,0.2-0.1,0.2-0.1c0,0,0,0,0.1-0.1C3.9,16.9,4,16.9,4,16.8c0.1-0.1,0.1-0.2,0-0.2
		c-0.2-0.2-0.3-0.3-0.4-0.5c-0.1-0.1-0.2-0.2-0.2-0.3c-0.1-0.1-0.1-0.2-0.2-0.3C3.1,15.3,3,15.2,2.9,15c0,0,0,0,0,0
		c0-0.1-0.1-0.1-0.2-0.1c-0.1,0-0.1,0-0.1-0.1c0-0.1-0.1-0.2-0.2-0.3c-0.1-0.1-0.1-0.2-0.2-0.3C2.1,14.1,2.1,14,2,13.9
		c-0.2-0.2-0.3-0.4-0.5-0.6c-0.1-0.2-0.3-0.3-0.4-0.5c-0.1-0.1-0.1-0.1-0.2-0.2c-0.1-0.1-0.2-0.2-0.3-0.3c-0.1-0.1-0.2-0.2-0.3-0.3
		c0,0,0,0-0.1-0.1c-0.1-0.1-0.1-0.2-0.1-0.3c0,0,0,0,0-0.1c0,0,0,0,0.1,0c0,0,0,0.1,0.1,0.1c0,0,0,0,0.1,0c0,0,0,0,0-0.1
		c0,0-0.1-0.1-0.1-0.1c0,0,0-0.1-0.1-0.1C0.1,11.4,0,11.3,0,11.2c0-0.1,0-0.2,0-0.3c0,0,0,0,0-0.1c0,0,0,0,0-0.1c0,0,0,0,0,0
		c0.1,0.1,0.1,0.1,0.1,0.2c0.2,0.3,0.4,0.5,0.6,0.8c0.1,0.2,0.3,0.4,0.4,0.6c0.1,0.1,0.2,0.3,0.3,0.4c0.1,0.2,0.2,0.3,0.3,0.5
		c0.1,0.1,0.1,0.2,0.2,0.3c0.1,0.2,0.2,0.3,0.4,0.5c0.1,0.1,0.1,0.1,0.2,0.2c0,0,0.1,0.1,0.1,0.1c0.1,0.1,0.1,0.1,0.2,0
		c0.1-0.1,0.2-0.2,0.3-0.3c0.2-0.2,0.3-0.3,0.6-0.5c0,0,0.1-0.1,0.1-0.1c0.1-0.1,0.1-0.1,0-0.2c-0.1-0.1-0.3-0.3-0.4-0.4
		c-0.1-0.1-0.2-0.3-0.4-0.4c-0.2-0.2-0.3-0.4-0.5-0.6c-0.1-0.1-0.2-0.2-0.3-0.4c-0.1-0.1-0.2-0.3-0.3-0.4c-0.1-0.2-0.3-0.3-0.4-0.5
		c-0.1-0.1-0.2-0.2-0.3-0.4c-0.1-0.1-0.1-0.1-0.2-0.2C1,9.9,0.9,9.7,0.7,9.5C0.5,9.3,0.4,9.2,0.2,9c0,0-0.1,0-0.1-0.1
		C0,9,0,8.9,0,8.9c0-0.1,0-0.1,0-0.2c0,0,0,0,0,0c0,0,0,0,0,0c0.1,0.1,0.1,0.1,0.2,0.2C0.4,8.9,0.4,9,0.5,9c0,0,0.1,0,0.1,0
		c0,0,0-0.1,0-0.1c0,0,0-0.1,0-0.1C0.5,8.7,0.4,8.6,0.3,8.5c0,0-0.1-0.1-0.1-0.1c-0.1,0-0.1,0-0.1-0.1c0-0.1,0-0.2,0-0.2
		c0-0.1,0-0.1,0-0.2c0-0.1,0-0.1,0-0.2c0,0,0-0.1,0-0.1c0-0.2,0.1-0.3,0.1-0.5c0-0.1,0.1-0.2,0.1-0.3c0-0.1,0.1-0.2,0.1-0.4
		c0-0.1,0.1-0.2,0.1-0.3c0-0.1,0.1-0.2,0.1-0.3c0-0.1,0.1-0.2,0.1-0.3C1,5.5,1,5.5,1.1,5.4c0-0.1,0.1-0.2,0.1-0.3
		C1.3,5,1.4,4.9,1.4,4.8c0-0.1,0.1-0.1,0.1,0C1.6,4.9,1.7,5,1.8,5.1c0.1,0.1,0.1,0.1,0.2,0C2,5.1,2.1,5,2.1,5C2.2,5,2.2,4.9,2.2,4.9
		c0-0.1-0.1-0.1-0.1-0.1c0,0,0,0-0.1,0c0,0-0.1,0-0.1-0.1c0,0,0-0.1,0.1-0.1c0,0,0.1,0,0.1,0c0.1,0,0.2,0.1,0.3,0.2
		c0.1,0,0.1,0,0.2,0.1c0,0,0.1,0,0.1,0c0,0,0,0,0.1,0c0.1,0,0.1,0,0.2,0.1c0,0,0.2,0,0.2,0c0,0,0.1-0.1,0-0.1C3.1,4.7,3.1,4.7,3,4.6
		C2.9,4.4,2.8,4.3,2.7,4.1C2.6,4,2.5,3.9,2.4,3.8c0,0-0.1-0.1-0.1-0.1c0,0,0-0.1,0-0.1c0.1-0.2,0.3-0.3,0.4-0.5C2.9,3,3,2.8,3.2,2.7
		c0,0,0.1-0.1,0.1-0.1c0-0.1,0.1-0.1,0.1,0c0.1,0.1,0.2,0,0.2-0.1c0,0,0-0.1,0-0.1c0-0.1,0-0.1,0-0.1c0.1-0.1,0.2,0,0.3,0
		c0,0,0.1,0,0.1,0c0,0,0,0,0.1,0c0.1,0,0.3,0,0.4,0c0,0,0.1,0,0.1,0c0.1,0,0.1,0,0.1,0c0-0.1,0-0.1,0-0.2C4.6,2,4.4,2,4.3,2
		c0,0,0,0-0.1,0C4.2,2,4.1,2,4,2c0,0,0,0,0,0C4,2,4,2,4,2c0.1,0,0.1-0.1,0.2-0.1c0.1-0.1,0.2-0.1,0.3-0.2c0,0,0,0,0.1,0
		c0.1,0,0.2,0,0.2,0c0,0,0,0,0.1,0c0.1,0,0.1,0,0.2,0c0.2,0,0.4,0,0.6,0.1c0,0,0.1,0,0.1,0c0,0,0,0,0.1,0c0.1,0,0.2,0,0.3,0
		c0.1,0,0.2,0,0.3,0.1c0.1,0,0.1,0,0.2,0c0.1,0,0.2,0,0.2,0c0.1,0,0.1,0,0.2,0C7,2,7.1,2,7.2,2c0,0,0.1-0.1,0.1-0.1
		c0,0,0-0.1-0.1-0.1c0,0-0.1,0-0.1,0C7.1,1.7,7,1.7,6.9,1.7c-0.1,0-0.2-0.1-0.3-0.1c-0.1,0-0.1,0-0.2,0c0,0,0,0,0,0
		c-0.1,0-0.2,0-0.3,0c0,0,0,0,0,0c-0.1,0-0.3,0-0.4,0c-0.1,0-0.2,0-0.3,0c0,0,0,0-0.1,0c0,0-0.1,0-0.1,0c0,0-0.1,0-0.1,0
		c0,0-0.1,0-0.1,0C5,1.5,5,1.5,4.8,1.4C4.9,1.5,4.9,1.5,4.8,1.4C4.8,1.4,4.8,1.4,4.8,1.4z M5,7c0-0.1,0-0.1-0.1-0.2
		C4.8,6.7,4.7,6.5,4.6,6.4C4.4,6.3,4.3,6.1,4.2,6C4,5.8,3.9,5.6,3.7,5.4C3.6,5.3,3.5,5.3,3.4,5.3c0,0-0.1,0-0.1,0
		c-0.1,0-0.2,0-0.2,0.1c0,0,0,0.1-0.1,0.1c0,0-0.1,0-0.1,0c0,0-0.1,0-0.1,0c-0.1,0-0.1-0.1-0.2-0.1c0,0-0.1,0-0.1-0.1
		c0-0.1-0.1-0.1-0.1,0c-0.1,0-0.1,0.1-0.2,0.2c0,0,0,0.1,0,0.1c0.1,0.1,0.2,0.2,0.2,0.3c0,0,0,0.1,0,0.1c0,0-0.1,0-0.1,0.1
		C2.4,5.9,2.3,6,2.3,6c0,0,0.1,0,0.1,0C2.5,6,2.6,6,2.7,6C2.8,5.9,3,5.9,3.1,5.9c0.1,0,0.1,0,0.2,0.1c0,0.1,0,0.1,0,0.2
		C3.2,6.3,3.1,6.4,3.1,6.4c0,0.1,0,0.1,0.1,0.1c0,0,0.1,0,0.1,0.1c0,0,0,0.1,0,0.1c0,0,0,0-0.1,0C3.1,6.7,3,6.7,3,6.8
		C3,6.9,3,6.9,3,7c0.1,0.1,0.2,0.2,0.3,0.3c0.2,0.2,0.3,0.3,0.5,0.5C3.8,7.8,3.9,7.9,4,8c0.2,0.2,0.3,0.4,0.5,0.7
		C4.7,8.9,4.8,9.1,5,9.3c0.1,0.1,0.2,0.2,0.3,0.3c0.1,0.1,0.1,0.1,0.2,0.2c0.1,0.1,0.2,0.3,0.3,0.4c0,0,0.1,0.1,0.1,0.1
		c0.1,0,0.1,0.1,0.2,0.1c0.1,0,0.1,0.1,0.2,0.1c0,0,0,0,0,0c0,0,0.1,0,0.1,0c0.1,0,0.1,0.1,0.2,0.1c0.1,0.1,0.2,0.1,0.3,0.2
		C6.9,11,7,11,7.1,11.1c0,0,0.1,0,0.1,0.1c0,0,0.1,0.1,0.2,0c0.1,0,0.1-0.1,0.2-0.1c0.1-0.1,0.2-0.1,0.3-0.2
		c0.2-0.1,0.4-0.2,0.5-0.3c0.1,0,0.1-0.2,0-0.2c-0.1-0.1-0.2-0.2-0.3-0.3C8,10,7.9,10,7.9,9.9c0,0-0.1-0.1-0.1-0.1
		C7.7,9.7,7.5,9.6,7.4,9.6c-0.1,0-0.1,0-0.2,0c0,0-0.1,0-0.1,0c0,0-0.1,0-0.1,0c-0.1,0-0.2-0.1-0.3-0.2c0,0,0-0.1,0-0.1
		c0,0,0.1-0.1,0.1-0.1c0,0,0.1,0,0.1,0C7,9.1,7,9,7,9C6.9,8.9,6.8,8.9,6.8,8.9c-0.1,0-0.3-0.1-0.4-0.1c-0.1,0-0.1,0-0.2,0
		c0,0-0.1,0-0.1,0c-0.1,0-0.2-0.1-0.3-0.1c0,0,0-0.1,0-0.1c0.1,0,0.1-0.1,0.2,0c0,0,0,0,0,0c0.1,0,0.1,0,0.2,0c0,0,0.1,0,0.1,0
		c0,0,0-0.1-0.1-0.1C6.2,8.2,6.1,8.2,6,8.1C5.9,8.1,5.9,8.1,5.9,8c0-0.1,0-0.1-0.1-0.2c-0.1,0-0.1-0.1-0.2-0.1
		c-0.1,0-0.1-0.1-0.1-0.2c0-0.1,0-0.1,0-0.2c0-0.1-0.1-0.1-0.2-0.1c0,0,0,0,0,0c0,0-0.1,0-0.1,0C5,7.1,5,7.1,5,7z M1,8.8
		C1,9,1,9,1.1,9.1c0,0,0,0.1,0.1,0.1c0.1,0.1,0.1,0.2,0.2,0.3c0.1,0.1,0.3,0.2,0.4,0.3c0,0,0,0,0.1,0c0,0,0.1,0,0.1,0
		c0,0,0-0.1,0-0.1c0,0,0-0.1,0-0.1C1.8,9.5,1.8,9.5,1.7,9.4c0,0,0-0.1,0-0.1c0,0,0.1,0,0.1,0c0,0,0,0,0.1,0.1C2,9.5,2.1,9.6,2.2,9.8
		c0,0.1,0,0.1,0,0.2C2.2,10,2.1,10,2,10c-0.1,0-0.1,0-0.1,0c0,0.1,0,0.1,0.1,0.1c0,0,0,0,0,0c0.1,0.1,0.2,0.2,0.3,0.3
		c0.1,0.1,0.1,0.1,0.2,0.2c0.1,0.2,0.3,0.3,0.4,0.5c0.1,0.2,0.3,0.4,0.4,0.5c0.1,0.1,0.2,0.3,0.3,0.4c0.1,0.1,0.2,0.3,0.3,0.4
		c0.1,0.1,0.2,0.3,0.3,0.4c0.1,0.1,0.1,0.2,0.2,0.3c0.1,0.1,0.2,0.2,0.3,0.4c0.1,0.1,0.2,0.2,0.3,0.3c0.1,0.1,0.2,0.2,0.3,0.3
		c0.2,0.2,0.4,0.5,0.6,0.7C6,15.1,6,15.1,6.1,15.2c0,0.1,0.1,0.1,0.2,0c0.2-0.1,0.3-0.3,0.5-0.4c0.1-0.1,0.1-0.2,0-0.3
		c-0.1-0.1-0.2-0.3-0.3-0.4C6.3,14,6.2,13.9,6,13.8c-0.2-0.2-0.3-0.3-0.5-0.5c-0.1-0.2-0.3-0.3-0.4-0.5c-0.1-0.2-0.3-0.4-0.4-0.5
		c-0.1-0.2-0.3-0.3-0.4-0.5c-0.1-0.1-0.2-0.3-0.3-0.4c-0.2-0.2-0.3-0.3-0.5-0.5c-0.1-0.1-0.2-0.2-0.3-0.3c-0.2-0.2-0.3-0.4-0.5-0.6
		C2.7,10,2.6,9.9,2.5,9.8C2.3,9.6,2.2,9.4,2,9.2C1.9,9.2,1.8,9.1,1.8,9.1C1.7,9,1.6,9,1.6,8.9C1.5,8.8,1.4,8.7,1.3,8.6
		c0,0-0.1,0-0.1-0.1c-0.1,0-0.1,0-0.1,0C1,8.7,1,8.8,1,8.8z M9.8,13.2C9.8,13.2,9.8,13.2,9.8,13.2c0.2,0,0.2,0.1,0.3,0.2
		c0,0.1,0,0.1-0.1,0.2c0,0-0.1,0-0.1-0.1c0-0.1-0.1-0.1-0.2,0c-0.1,0.1-0.3,0.1-0.4,0.2c-0.1,0-0.1,0.2,0,0.2c0,0,0.1,0.1,0.1,0.1
		c0,0.1,0.1,0.1,0.1,0.2c0,0.1,0.1,0.2,0.2,0.2c0,0,0,0,0,0c0,0,0.1,0,0.1,0c0,0,0.1,0,0.1,0c0,0,0.1,0,0.1,0c0,0,0,0,0.1,0
		c0.1,0,0.2,0,0.2,0c0,0,0.1,0,0.1,0c0,0,0.1,0,0.1,0c0.1,0,0.1-0.1,0.2-0.2c0,0,0.1,0,0.1-0.1c0-0.1,0-0.1-0.1-0.1
		c-0.1,0-0.1-0.1-0.2-0.1c0-0.1,0-0.1,0.1-0.2c0.1,0,0.1,0,0.2,0c0.1,0,0.2-0.1,0.3-0.1c0,0,0-0.1,0-0.1c0,0,0-0.1-0.1-0.1
		c0-0.1-0.1-0.1-0.1-0.2c-0.1-0.1-0.2-0.3-0.3-0.4c0,0-0.1-0.1-0.1-0.1c-0.1-0.1-0.2-0.2-0.3-0.3c-0.1-0.1-0.2-0.2-0.3-0.3
		c-0.1-0.1-0.2-0.2-0.3-0.2c0,0-0.1,0-0.1,0c0,0-0.1,0-0.1-0.1c0,0,0-0.1,0-0.1c0.1-0.1,0.1-0.1,0-0.2c-0.1-0.1-0.2-0.2-0.3-0.2
		c-0.2-0.2-0.3-0.3-0.5-0.5c0,0-0.1,0-0.1,0c0,0-0.1,0-0.1,0.1C8.2,10.8,8,10.9,7.8,11c-0.1,0.1-0.2,0.1-0.3,0.2
		c-0.1,0-0.1,0.1,0,0.1c0,0,0.1,0.1,0.1,0.1c0.1,0,0.1,0.1,0.2,0.1c0.1,0.1,0.2,0.1,0.3,0.2c0.1,0,0.2,0.1,0.3,0.1c0,0,0,0,0,0
		c0.1,0.1,0.2,0.1,0.4,0.1C9,11.9,9,12,9.1,12.1c0,0.1,0.1,0.1,0.1,0.2c0.1,0.1,0.1,0.1,0.2,0.2c0.1,0.1,0,0.1,0,0.2
		c-0.1,0-0.2,0-0.3,0c-0.1,0-0.1,0-0.1,0c0,0,0,0.1,0,0.1c0,0,0,0.1,0,0.1C9,13,9,13.2,9,13.3c0,0,0,0.1,0.1,0.1c0,0,0.1,0,0.1,0
		c0.1-0.1,0.2-0.1,0.3-0.2C9.6,13.2,9.7,13.2,9.8,13.2z M4.6,16.4c0,0,0.1,0,0.1-0.1c0.2-0.1,0.3-0.2,0.5-0.4
		c0.1-0.1,0.3-0.2,0.4-0.3c0.1-0.1,0.1-0.1,0-0.2c0,0,0-0.1-0.1-0.1c-0.1-0.1-0.1-0.1-0.2-0.2c-0.2-0.2-0.4-0.5-0.6-0.7
		c-0.2-0.3-0.4-0.6-0.6-0.8c-0.1-0.1-0.2-0.1-0.3,0c0,0-0.1,0-0.1,0.1c-0.1,0.1-0.3,0.2-0.4,0.3c0,0-0.1,0.1-0.1,0.1
		c-0.1,0.1-0.2,0.2-0.3,0.3c0,0.1-0.1,0.1,0,0.2c0,0,0.1,0.1,0.1,0.1c0.2,0.2,0.3,0.4,0.5,0.5c0.1,0.2,0.3,0.3,0.4,0.5
		c0.1,0.1,0.1,0.2,0.2,0.3c0.1,0.1,0.2,0.2,0.3,0.3C4.6,16.4,4.6,16.4,4.6,16.4z M7.2,15.1c-0.1,0-0.1,0-0.2,0.1
		c-0.2,0.1-0.3,0.2-0.5,0.3c-0.1,0.1-0.1,0.2-0.1,0.3c0.1,0.1,0.2,0.2,0.3,0.3c0.1,0.1,0.2,0.3,0.3,0.4c0.1,0.1,0.2,0.3,0.3,0.4
		c0.1,0.1,0.2,0.2,0.3,0.3c0.1,0.1,0.3,0.3,0.4,0.4c0.1,0.1,0.1,0.2,0.2,0.3c0.1,0.1,0.2,0.2,0.3,0.3c0.1,0.1,0.2,0.2,0.3,0.2
		c0.1,0,0.2,0,0.3-0.1c0-0.1,0.1-0.1,0.2-0.1c0,0,0.1-0.1,0.1-0.1c0-0.1-0.1-0.1-0.1-0.1c-0.1,0-0.1,0-0.2-0.1
		c-0.1-0.1-0.1-0.1,0-0.2c0,0,0-0.1,0-0.1c-0.1-0.2-0.2-0.3-0.4-0.5c0-0.1-0.1-0.1-0.2-0.1c-0.1,0-0.1,0-0.1-0.1c0-0.1,0-0.1,0-0.1
		c-0.1-0.1-0.1-0.1-0.2-0.2c0-0.1-0.1-0.1-0.1-0.2C8,16,7.8,15.8,7.7,15.6c-0.1-0.2-0.2-0.3-0.4-0.5C7.3,15.1,7.2,15.1,7.2,15.1z
		 M7.6,13.8c0,0,0-0.1-0.1-0.1c0,0-0.1-0.1-0.1-0.1c-0.1-0.1-0.3-0.3-0.4-0.4c-0.1-0.1-0.2-0.2-0.3-0.4c0-0.1-0.1-0.2-0.1-0.2
		c-0.1-0.1-0.1-0.1-0.2-0.2c-0.1-0.1-0.2-0.3-0.4-0.4c-0.1-0.1-0.2-0.2-0.3-0.3c-0.1-0.1-0.3-0.3-0.4-0.4C5.4,11.1,5.3,11,5.2,11
		c0-0.1-0.1-0.1-0.2-0.1c-0.1-0.1-0.2-0.1-0.3-0.2c-0.1-0.1-0.2-0.1-0.3-0.1c0,0-0.1,0-0.1,0c-0.1,0-0.1-0.1-0.2-0.2c0,0,0,0-0.1,0
		c0,0,0,0.1,0,0.1c0.1,0.1,0.1,0.2,0.2,0.2c0.1,0.1,0.1,0.1,0.1,0.2c0,0.1,0.1,0.2,0.2,0.3c0.1,0.1,0.2,0.1,0.2,0.2
		C5,11.4,5,11.5,5.1,11.6c0.1,0.1,0.2,0.2,0.3,0.3c0,0.1,0.1,0.1,0.1,0.2c0.1,0.1,0.2,0.3,0.3,0.4C6,12.7,6.1,12.9,6.3,13
		c0,0.1,0.1,0.1,0.1,0.2c0.1,0.1,0.2,0.3,0.3,0.4C6.8,13.7,6.9,13.8,7,14c0.1,0.1,0.1,0.1,0.2,0.2c0,0,0.1,0,0.1,0
		C7.4,14.1,7.5,14,7.6,13.8C7.6,13.9,7.6,13.9,7.6,13.8z M8.6,6.8c0,0,0.1,0.1,0.1,0.1c0.1,0,0.1,0,0.2,0c0,0,0.1,0,0.1,0
		c0.1,0,0.1,0,0.2,0c0,0,0,0,0.1,0C9.3,7,9.4,7,9.4,7c0.1,0,0.2,0,0.2,0c0.1,0,0.1,0,0.2,0c0,0,0,0,0,0c0.1,0,0.2,0.1,0.3,0
		c0,0,0,0,0,0c0.1,0,0.1,0,0.2,0c0.1,0,0.1,0,0.2,0c0,0,0,0,0.1,0c0.1,0,0.3,0,0.4,0c0,0,0,0,0,0c0.1,0,0.1,0,0.2,0
		c0.1,0,0.1,0,0.2,0c0.1,0,0.3,0,0.4,0C12,7.1,12.1,7,12.1,7c0,0,0,0,0-0.1c0-0.1-0.1-0.2-0.2-0.2c-0.1,0-0.2-0.1-0.4-0.1
		c-0.1,0-0.2,0-0.3-0.1c-0.1,0-0.3,0-0.4-0.1c0,0,0,0,0,0c-0.1,0-0.2,0-0.4,0c-0.2-0.1-0.4,0-0.6-0.1c0,0,0,0,0,0
		c-0.2,0-0.3,0-0.5,0c0,0-0.1,0-0.1,0c-0.1,0-0.1,0-0.2,0c-0.1,0-0.2,0-0.2,0c-0.1,0-0.3,0.1-0.4,0c-0.1,0-0.1-0.1-0.2,0
		c0,0-0.1,0-0.1,0c0,0,0,0-0.1,0c-0.1,0-0.2,0-0.3,0c0,0,0,0,0,0c-0.1,0-0.1,0-0.2,0c-0.1,0-0.2,0-0.2,0c-0.1,0-0.1,0-0.1,0
		c0,0,0,0.1,0,0.2c0,0,0,0,0.1,0c0.1,0.1,0.2,0.2,0.3,0.1c0,0,0.1,0,0.1,0c0.1,0,0.2,0,0.3,0.1c0.1,0,0.1,0,0.2,0c0,0,0,0,0.1,0
		c0.1,0,0.1,0,0.2,0c0,0,0,0,0.1,0c0,0,0,0-0.1,0c0,0,0,0,0,0c0,0.1,0.1,0.1,0.1,0.1c0,0,0.1,0,0.1,0C8.5,6.8,8.5,6.9,8.6,6.8
		C8.6,6.9,8.6,6.8,8.6,6.8z M12.3,13.7c-0.1,0-0.2,0.1-0.3,0.1c-0.1,0.1-0.1,0.1,0,0.2c0,0,0.1,0.1,0.1,0.1c0.1,0.1,0.2,0.1,0.3,0.1
		c0,0,0.1,0,0.1,0c0.1,0,0.2,0,0.3,0c0.1,0,0.2,0,0.2,0c0,0,0,0,0,0c0.1,0.1,0.2,0,0.3,0c0.1,0,0.2,0,0.3,0c0.1,0,0.1,0,0.2,0
		c0,0,0,0,0,0c0,0,0.1,0,0.1,0c0.2,0,0.4,0,0.6,0c0.1,0,0.2,0,0.3,0c0,0,0,0,0,0c0.1,0,0.2,0,0.3,0c0,0,0,0,0,0c0.1,0,0.2,0,0.3,0
		c0.1,0,0.2,0,0.3,0c0.2,0,0.4,0,0.5,0c0.1,0,0.3,0,0.4,0c0.1,0,0.1,0,0.2,0c0,0,0,0,0.1,0c0,0,0,0,0.1,0c0.1,0,0.2,0,0.3,0
		c0,0,0,0,0,0c0,0,0.1,0,0.1,0c0.1,0,0.3,0,0.4,0c0.1,0,0.2,0,0.3,0c0,0,0.1,0,0.1,0c0-0.1,0-0.1-0.1-0.1c-0.1,0-0.1-0.1-0.2-0.1
		c0,0-0.1,0-0.1,0c-0.1,0-0.2,0-0.4,0c-0.2,0-0.4,0-0.6,0c0,0,0,0,0,0c-0.1,0-0.2,0-0.3,0c0,0,0,0,0,0c-0.1,0-0.2,0-0.3,0
		c0,0,0,0,0,0c-0.1,0-0.2,0-0.3,0c-0.1,0-0.2,0-0.4,0c-0.1,0-0.2,0-0.3,0c0,0,0,0,0,0c-0.1,0-0.2,0-0.4-0.1c0,0,0,0,0,0
		c-0.1,0-0.2,0-0.3,0c0,0,0,0-0.1,0c0,0,0,0-0.1,0c-0.1,0-0.2,0-0.3,0c-0.1,0-0.2,0-0.3,0c0,0,0,0,0,0c0,0-0.1,0-0.1,0
		c-0.1,0-0.1,0-0.1,0c0,0,0,0-0.1,0c-0.1,0-0.2,0-0.3,0c-0.1,0-0.1,0-0.2,0c0,0-0.1,0-0.1,0c0,0-0.1,0-0.1,0c0,0-0.1,0-0.1,0
		c0,0-0.1,0-0.1,0C12.4,13.7,12.3,13.7,12.3,13.7z M8.8,7.5c-0.1,0-0.1,0-0.1,0c-0.1,0-0.1,0-0.1,0.1c0,0,0,0.1,0,0.1
		c0,0,0.1,0,0.1,0.1C8.8,7.9,8.9,7.9,9,7.9c0.1,0,0.1,0,0.2,0c0.1,0,0.2,0,0.3,0c0.1,0,0.2,0,0.3,0c0,0,0,0,0,0c0.1,0,0.2,0,0.3,0
		c0.1,0,0.1,0,0.2,0c0.1,0,0.2,0,0.3,0c0.1,0,0.2,0,0.2,0c0.1,0,0.2,0,0.3,0c0,0,0.1,0,0.1,0c0,0,0.1,0,0.1,0c0.1,0,0.2,0,0.3,0
		c0,0,0,0,0,0c0.1,0,0.1,0,0.2,0c0,0,0.1,0,0.1,0c0.1-0.1,0.2-0.1,0.3-0.2c0,0,0.1-0.1,0-0.1c0-0.1-0.1-0.1-0.1-0.1
		c-0.1,0-0.2,0-0.2,0c0,0,0,0,0,0c-0.1,0-0.2,0-0.2,0c0,0-0.1,0-0.2,0c0,0-0.1,0-0.1,0c-0.1,0-0.1,0-0.2,0c0,0,0,0-0.1,0
		c0,0-0.1,0-0.1,0c-0.1,0-0.3,0-0.4,0c0,0,0,0,0,0c0,0-0.1,0-0.1,0c-0.1,0-0.1,0-0.2,0c-0.2,0-0.3-0.1-0.5,0c0,0,0,0,0,0
		c-0.1,0-0.2,0-0.4-0.1c0,0,0,0,0,0c-0.1,0-0.2,0-0.4,0c0,0,0,0,0,0c-0.1,0-0.2,0-0.4,0c-0.1,0-0.2,0-0.3,0c-0.1,0-0.1,0-0.2,0.1
		c0,0.1,0,0.1,0,0.1c0.1,0.1,0.2,0.1,0.4,0.2c0,0,0.1,0,0.1,0C8.6,7.4,8.7,7.5,8.8,7.5z M10.6,10.3C10.7,10.3,10.7,10.3,10.6,10.3
		C10.7,10.3,10.7,10.3,10.6,10.3c0.1,0.1,0.1,0.2,0.1,0.2c0,0.1,0.1,0.1,0.2,0.1c0.1,0,0.2,0,0.3,0c0.1,0,0.2,0,0.3,0c0,0,0,0,0,0
		c0.1,0,0.2,0,0.2,0c0.1,0,0.3,0,0.4,0c0,0,0,0,0,0c0,0,0.1,0,0.1,0c0,0,0.1,0,0.1,0c0.1,0,0.3,0,0.4-0.1c0.1,0,0.2,0,0.2,0
		c0.1,0,0.2,0,0.2,0c0.1,0,0.2,0,0.3,0c0.1,0,0.3-0.1,0.4,0c0,0,0,0,0,0c0.1,0,0.2,0,0.3-0.1c0.1,0,0.1,0,0-0.1
		c0-0.1-0.1-0.1-0.2-0.1c-0.1,0-0.2,0-0.4,0c-0.1,0-0.2,0-0.3,0c0,0,0,0,0,0c-0.1,0-0.1,0-0.2,0c0,0-0.1,0-0.1,0c0,0,0,0-0.1,0
		c-0.1,0-0.2,0-0.3,0c0,0,0,0,0,0c0,0-0.1,0-0.1,0c-0.1,0-0.2,0-0.3,0c-0.1,0-0.2,0-0.3,0c0,0,0,0,0,0c-0.1,0-0.1,0-0.2,0
		c0,0-0.1,0-0.1,0c0,0-0.1,0-0.1,0c0,0-0.1,0-0.1,0c0,0-0.1,0-0.1,0c-0.1,0-0.1,0-0.2,0c-0.1,0-0.1,0-0.2,0c-0.1,0-0.1,0-0.2,0
		c0,0-0.1,0-0.1,0c-0.1-0.1-0.2,0-0.3,0c0,0-0.1,0-0.1,0.1C10.6,10.2,10.6,10.2,10.6,10.3c0-0.1-0.1-0.1-0.1-0.1
		c0,0-0.1-0.1-0.1-0.1c-0.1,0-0.2,0-0.3,0c-0.2,0-0.3,0-0.5-0.1c0,0,0,0,0,0c0,0-0.1,0-0.1,0c-0.1,0-0.1,0-0.1,0.1
		c0,0.1,0,0.1,0.1,0.1c0.1,0,0.2,0,0.3,0c0,0,0.1,0,0.1,0c0.1,0.2,0.3,0.2,0.4,0.3c0.1,0,0.2,0,0.3,0.1c0.1,0,0.2,0,0.1-0.1
		c0,0,0-0.1,0-0.1C10.6,10.4,10.6,10.3,10.6,10.3z M2.9,9.4c-0.1,0-0.1,0-0.1,0.1c0,0.1,0,0.1,0.1,0.1c0,0,0,0,0,0
		C3,9.8,3.1,10,3.3,10.1c0.1,0.1,0.2,0.3,0.4,0.4C3.8,10.7,3.9,10.8,4,11c0,0,0.1,0.1,0.1,0.1c0.1,0.1,0.2,0.3,0.3,0.4
		c0.1,0.1,0.1,0.2,0.2,0.2C4.8,11.9,4.9,12,5,12.2c0.1,0.2,0.3,0.3,0.4,0.5c0.1,0.1,0.1,0.2,0.2,0.3c0.1,0.1,0.2,0.2,0.2,0.3
		c0.2,0.2,0.3,0.4,0.5,0.6c0.1,0.1,0.2,0.2,0.3,0.3c0.1,0.1,0.2,0.2,0.4,0.4c0,0,0.1,0.1,0.2,0c0,0,0.1-0.1,0.1-0.2c0,0,0-0.1,0-0.1
		c0,0,0-0.1-0.1-0.1c0,0-0.1-0.1-0.1-0.1c-0.2-0.2-0.4-0.4-0.5-0.6C6.2,13.2,6.1,13.1,6,13c-0.1-0.1-0.2-0.2-0.3-0.3
		c-0.2-0.2-0.3-0.4-0.5-0.6c0,0,0,0,0,0C5.1,12,5,11.8,4.9,11.7c-0.1-0.1-0.2-0.3-0.4-0.4c-0.1-0.1-0.2-0.2-0.3-0.3
		c-0.1-0.2-0.2-0.3-0.4-0.5c0-0.1-0.1-0.1-0.1-0.2c0-0.1-0.1-0.1-0.1-0.2C3.6,10,3.5,9.9,3.4,9.8c0,0,0,0-0.1-0.1
		C3.2,9.6,3.1,9.5,2.9,9.4C2.9,9.4,2.9,9.4,2.9,9.4z M13.5,8.9C13.5,8.9,13.5,8.9,13.5,8.9c0.1,0,0.1,0,0.1-0.1c0-0.1,0-0.1,0-0.2
		c0,0,0,0,0-0.1c-0.1-0.1-0.1-0.2-0.2-0.2c-0.1-0.1-0.1-0.1-0.2,0c-0.1,0.1-0.1,0.1-0.2,0.1c0,0,0,0,0,0c0,0-0.1,0-0.1,0
		c-0.1,0-0.2-0.1-0.3-0.1c0,0,0,0-0.1,0c-0.1,0-0.1-0.1-0.2,0c0,0,0,0-0.1,0c0,0,0,0-0.1,0c0,0-0.1,0-0.1,0c-0.1,0-0.2,0-0.3,0
		c0,0-0.1,0-0.1,0c-0.1,0-0.2,0-0.2,0.1c-0.1,0.1-0.3,0.2-0.4,0.3c-0.1,0-0.1,0.1-0.2,0.1c0,0,0,0.1,0,0.1c0,0,0.1,0,0.1,0
		c0,0,0,0,0,0c0.1,0,0.2,0.1,0.3,0c0.1,0.1,0.2,0,0.3,0c0.1,0,0.2,0,0.2,0c0.2,0,0.3,0,0.5,0c0,0,0,0,0,0c0.1,0,0.2,0,0.3,0
		c0.1,0,0.3,0,0.4,0c0.1,0,0.3,0,0.4-0.1C13.3,8.9,13.4,8.9,13.5,8.9z M8.7,3.1C8.7,3.1,8.8,3.1,8.7,3.1C8.8,3,8.8,3,8.7,3
		c0-0.1-0.1-0.1-0.2-0.1C8.5,2.8,8.4,2.7,8.3,2.7c0,0,0,0-0.1,0c-0.1,0-0.2,0-0.3-0.1c0,0-0.1,0-0.1,0c0,0-0.1,0-0.1,0
		c-0.1,0-0.2-0.1-0.4-0.1c0,0-0.1,0-0.1,0c0,0-0.1,0-0.1,0c-0.1,0-0.1,0-0.2,0c0,0-0.1,0-0.1,0c-0.1,0-0.1,0-0.2,0
		c-0.1,0-0.2,0.1-0.2,0c0,0-0.1,0-0.1,0c-0.1,0-0.2,0.1-0.3,0c0,0,0,0,0,0c-0.1,0-0.3,0-0.4,0c0,0-0.1,0-0.1,0c-0.1,0-0.1,0-0.2,0
		c0,0-0.1,0-0.1,0c0,0,0,0.1,0,0.1c0.1,0.1,0.2,0.3,0.4,0.2c0,0,0,0,0,0c0.1,0,0.2,0,0.4,0c0,0,0,0,0.1,0c0,0,0,0,0.1,0
		C6.3,2.9,6.4,3,6.5,3c0.2,0,0.4,0,0.5,0c0,0,0,0,0.1,0c0,0,0.1,0,0.1,0c0.1,0,0.3,0,0.4,0c0.1,0,0.2,0,0.3,0c0,0,0,0,0.1,0
		c0-0.1,0.1-0.1,0.1,0c0,0,0.1,0,0.1,0.1c0.1,0,0.1,0.1,0.2,0.1c0,0,0.1,0,0.1,0C8.6,3.1,8.6,3.1,8.7,3.1z M9.7,4.5
		C9.7,4.5,9.7,4.5,9.7,4.5C9.7,4.5,9.7,4.5,9.7,4.5c0.1,0,0.2,0,0.2,0c0,0,0.1,0,0.1,0.1c0,0,0,0,0.1,0c0,0,0,0,0.1,0
		c0,0,0.1,0,0.1,0c0-0.1,0-0.1,0-0.1c-0.1,0-0.1-0.1-0.2-0.1c-0.1,0-0.1,0-0.2,0c0,0-0.1,0-0.1,0c-0.1,0-0.1-0.1-0.2,0
		c0,0-0.1,0-0.1,0c-0.1-0.1-0.2,0-0.2,0C9,4.3,9,4.3,8.9,4.3C8.9,4.2,8.8,4.1,8.7,4.2c-0.1,0-0.2-0.1-0.3,0c0,0,0,0,0,0
		c-0.1,0-0.2,0-0.3,0c0,0,0,0,0,0c0,0-0.1,0-0.1,0c-0.1,0-0.2,0-0.3,0c-0.2,0-0.4,0-0.5,0c-0.1,0-0.1,0-0.2,0c-0.1,0-0.2,0-0.4,0
		c-0.1,0-0.2,0-0.3,0c-0.2,0-0.3,0-0.5,0c0,0-0.1,0-0.1,0.1c0,0.1,0,0.1,0.1,0.1c0,0,0.1,0,0.1,0c0.1,0,0.2,0,0.3,0c0,0,0.1,0,0.1,0
		c0,0,0.1,0,0.1,0c0.1,0,0.3,0,0.4,0c0,0,0,0,0,0c0.1,0,0.3,0.1,0.4,0.1c0,0,0,0,0.1,0c0.2-0.1,0.4,0,0.6,0c0.1,0,0.2,0,0.4,0.1
		c0,0,0.1,0,0.1,0c0.1,0,0.2,0,0.2,0c0,0,0.1,0,0.1,0c0.1,0,0.3,0,0.4,0.1c0.1,0,0.3,0,0.4,0c0,0,0,0,0,0c0.1,0,0.1,0,0.2,0
		c0.1,0,0.1,0,0.2,0c0,0,0.1,0,0.1,0c0,0,0,0,0-0.1c0-0.1-0.1-0.1-0.1-0.1C9.7,4.5,9.7,4.5,9.7,4.5z M9.2,15.9
		C9.2,15.9,9.2,15.9,9.2,15.9C9.2,15.9,9.3,15.9,9.2,15.9c0.2,0,0.2-0.1,0.2-0.1c0-0.1-0.1-0.1-0.1-0.2c-0.1-0.1-0.2-0.2-0.3-0.3
		c-0.1-0.2-0.3-0.3-0.4-0.5c-0.1-0.1-0.2-0.2-0.3-0.4c0,0-0.1-0.1-0.1,0c0,0-0.1,0.1-0.1,0.1c-0.1,0-0.1,0.1-0.2,0.1
		c-0.1,0-0.1,0.1-0.1,0.2C7.8,15,7.9,15.2,8,15.3c0.1,0.1,0.2,0.3,0.3,0.4c0.1,0.1,0.2,0.2,0.2,0.3c0.1,0.1,0.1,0.2,0.2,0.2
		c0.1,0.1,0.2,0.1,0.2,0c0-0.1,0-0.1,0-0.1c-0.1,0-0.1-0.1-0.2-0.1c-0.1,0-0.1-0.1,0-0.1c0,0,0.1-0.1,0.1-0.1
		C9,15.9,9.1,15.9,9.2,15.9z M17.3,13C17.3,13,17.2,12.9,17.3,13c-0.1-0.1-0.1-0.1-0.1-0.1c-0.1,0-0.2,0-0.3,0c-0.1,0-0.2,0-0.3,0
		c0,0,0,0,0,0c-0.1-0.1-0.2,0-0.4,0c-0.1,0-0.2,0-0.3,0c0,0,0,0,0,0c-0.1,0-0.1,0-0.2,0c-0.2,0-0.4,0-0.5,0c-0.1,0-0.1,0-0.2,0
		c-0.1,0-0.2,0-0.3,0c0,0,0,0-0.1,0c0,0-0.1,0-0.1,0c-0.1-0.1-0.2,0-0.3,0c-0.2,0-0.4,0-0.6,0c0,0,0,0,0,0c-0.1,0-0.2,0-0.3,0
		c-0.1,0-0.2,0.1-0.3,0.1c-0.1,0-0.1,0.1,0,0.1c0,0.1,0.1,0.1,0.1,0.1c0.1,0,0.3-0.1,0.4,0c0,0,0,0,0,0c0.1,0,0.2,0,0.3,0
		c0,0,0,0,0,0c0.1,0,0.3,0,0.4,0.1c0.1,0,0.3,0,0.4,0c0,0,0,0,0,0c0.1,0,0.1,0,0.2,0c0,0,0,0,0.1,0c0.1,0,0.1,0,0.2,0
		c0.1,0,0.1,0,0.2,0c0.1,0,0.2,0,0.4,0c0,0,0.1,0,0.1,0c0.1,0,0.2,0,0.2,0c0.1,0,0.2,0,0.3,0c0,0,0,0,0,0c0,0,0.1,0,0.1,0
		c0,0,0.1,0,0.1,0c0.1,0,0.3,0,0.4,0c0.1,0,0.1,0,0.1,0c0,0,0,0,0.1,0C17.2,13.1,17.3,13.1,17.3,13z M18.3,6.8
		C18.4,6.7,18.4,6.7,18.3,6.8c0.1-0.1,0.1-0.1,0.1-0.1c0-0.1-0.1-0.1-0.2-0.1c-0.1,0-0.2,0-0.3-0.1c-0.1,0-0.1,0-0.2,0
		c0,0-0.1,0-0.1,0c0,0,0,0-0.1,0c0,0,0,0,0,0c0,0,0.1,0,0.1,0.1c0,0,0,0,0.1,0c0.1,0,0.1,0,0.2,0c0,0,0,0,0,0c0,0,0,0-0.1,0
		c-0.1,0-0.2,0-0.3-0.1c-0.1,0-0.2-0.1-0.3-0.1c-0.1,0-0.2-0.1-0.3-0.1c-0.1,0-0.1-0.1-0.2,0c0,0-0.1,0-0.1,0
		c-0.2,0-0.4-0.1-0.5-0.1c0,0-0.1,0-0.1,0c-0.1,0-0.1,0-0.2,0c0,0-0.1,0-0.1,0c-0.1,0-0.1,0-0.2,0c-0.1,0-0.1,0.1,0,0.2
		c0,0.1,0.1,0.1,0.1,0.2c0.1,0.1,0.1,0.1,0.2,0.2c0.1,0,0.2,0,0.3,0.1c0,0,0,0,0,0c0.1,0,0.2,0,0.3,0.1c0.1,0,0.2,0.1,0.2,0.1
		C17,7,17.2,7,17.4,7c0.1,0,0.1,0,0.2,0.1c0.1,0.1,0.3,0.1,0.4,0.1c0,0,0.1,0,0.1,0c0.1,0,0.1,0,0.1-0.1c0,0,0-0.1,0-0.1
		c0,0-0.1,0-0.1-0.1c0,0-0.1-0.1,0-0.1c0,0,0-0.1,0-0.1c0,0,0-0.1,0-0.1c0,0,0.1,0,0.1,0C18.2,6.7,18.3,6.7,18.3,6.8z M19,6.4
		c0-0.1-0.1-0.2-0.3-0.2c-0.1,0-0.1,0-0.2,0C18.3,6.1,18.1,6.1,18,6c-0.2-0.1-0.4-0.1-0.6-0.1c-0.1,0-0.2-0.1-0.4-0.1c0,0,0,0,0,0
		c-0.2,0-0.3-0.1-0.5-0.1c0,0,0,0,0,0c-0.2,0-0.3-0.1-0.5-0.1c-0.1,0-0.3-0.1-0.4-0.1c0,0,0,0-0.1,0c0,0-0.1,0-0.1,0
		c-0.1,0-0.1,0-0.1,0.1c0,0,0,0.1,0,0.2c0.2,0.1,0.3,0.2,0.5,0.2c0,0,0,0,0.1,0c0.1,0,0.2,0.1,0.3,0.1c0.1,0,0.2,0,0.3,0.1
		c0.1,0,0.1,0,0.2,0c0,0,0.1,0,0.1,0c0.2,0,0.3,0.1,0.5,0.1c0.1,0,0.2,0,0.2,0c0.1,0,0.3,0.1,0.4,0.1c0.1,0,0.1,0,0.2,0
		c0.2,0.1,0.4,0.1,0.6,0.2C18.8,6.6,19,6.5,19,6.4z M5.2,3.3C5.2,3.3,5.2,3.3,5.2,3.3C5.2,3.3,5.3,3.3,5.2,3.3c0.1,0,0.1,0,0.2,0
		c0.2,0,0.4,0,0.5,0.1c0,0,0,0,0,0c0.1,0,0.2,0,0.3,0c0.1,0,0.2,0,0.3,0c0.1,0,0.2,0.1,0.3,0c0,0,0.1,0,0.1,0c0,0,0-0.1,0-0.1
		c0,0,0,0,0,0c0,0,0,0,0.1,0c0,0,0,0,0,0C7,3.4,7.1,3.4,7.2,3.4c0.1,0,0.1,0,0.2,0c0.1,0,0.2,0.1,0.3,0.1c0,0,0.1,0,0.1,0
		c0,0,0.1,0,0.1,0c0.2,0,0.4,0,0.6,0c0.1,0,0.2,0,0.3,0c0,0,0,0,0,0c0.1,0,0.1,0,0.2,0c0.1,0,0.1,0,0.2,0c0,0,0.1,0,0.1,0
		c0.1,0,0.1,0,0.1-0.1c0,0,0-0.1,0-0.1c-0.1,0-0.2-0.1-0.2-0.1C9,3.4,9,3.4,8.9,3.4c0,0-0.1,0-0.1,0c-0.2,0-0.4-0.1-0.6-0.1
		c0,0,0,0,0,0c-0.1,0-0.2,0-0.3-0.1c0,0,0,0-0.1,0c-0.1,0-0.3,0-0.4,0c-0.1,0-0.2,0-0.3,0c0,0,0,0,0,0c-0.1,0-0.1,0-0.1,0
		c0,0-0.1,0-0.1,0c0,0-0.1,0-0.1,0c0,0-0.1,0-0.1,0c0,0,0,0.1,0,0.1c0,0,0,0.1,0,0.1c0,0-0.1,0-0.1,0c-0.1,0-0.1,0-0.2,0
		c0,0-0.1,0-0.1,0c0,0-0.1,0-0.1,0c0,0,0,0-0.1,0c-0.1,0-0.2,0-0.3,0c-0.1,0-0.3,0-0.4-0.1c-0.1,0-0.2,0-0.3,0c-0.1,0-0.2,0-0.3,0
		c-0.1,0-0.1,0-0.2,0C4.4,3,4.3,3,4.2,3c0,0-0.1,0-0.1,0c0,0.1,0,0.1,0,0.1c0.1,0,0.1,0.1,0.2,0c0,0,0.1,0,0.1,0c0.1,0,0.1,0,0.2,0
		c0.1,0,0.2,0,0.3,0C5.1,3.3,5.1,3.3,5.2,3.3z M5.7,4.6C5.7,4.6,5.7,4.6,5.7,4.6C5.7,4.7,5.6,4.6,5.7,4.6c-0.1,0-0.2,0-0.2,0
		c0,0,0,0.1,0,0.1c0.1,0.1,0.2,0.1,0.3,0.1C5.9,4.9,6,5,6.1,5c0,0,0,0,0.1,0c0.1,0,0.3,0.1,0.4,0c0,0,0,0,0,0c0.1,0,0.2,0,0.3,0.1
		c0.1,0,0.1,0,0.2,0c0,0,0.1,0,0.1,0c0.1,0,0.1,0,0.2,0c0,0,0.1,0,0.1,0c0.1,0.1,0.3,0,0.5,0.1c0,0,0,0,0,0c0.1,0,0.2,0,0.3,0
		c0.1,0,0.2,0.1,0.4,0.1c0.1,0,0.3,0,0.4,0c0,0,0,0,0.1,0c0,0,0.1,0,0.1,0c0.1,0,0.2,0,0.2-0.1c0-0.1,0-0.3-0.1-0.3
		c-0.1,0-0.2,0-0.2,0c-0.1,0-0.2,0-0.2,0c0,0,0,0,0,0c-0.1,0-0.2,0-0.3,0c-0.1,0-0.2,0-0.3,0c0,0,0,0,0,0c-0.1,0-0.2,0-0.3,0
		c0,0,0,0,0,0c-0.1,0-0.1,0-0.2,0c0,0-0.1,0-0.1,0c-0.1,0-0.2,0-0.3,0c0,0,0,0,0,0c-0.1,0-0.3,0-0.4-0.1c0,0,0,0-0.1,0
		c0,0,0,0-0.1,0c-0.1,0-0.2,0-0.4,0c0,0,0,0,0,0c-0.1,0-0.2,0-0.3,0c0,0,0,0,0,0C5.8,4.7,5.8,4.7,5.7,4.6z M11.3,15.7
		C11.3,15.7,11.3,15.7,11.3,15.7C11.3,15.7,11.3,15.7,11.3,15.7c-0.1,0.1-0.2,0.1-0.3,0c-0.1,0-0.1,0-0.1,0.1c0,0.1,0,0.1,0,0.2
		c0,0,0,0.1,0.1,0.1c0,0.1,0.1,0.2,0.3,0.2c0.1,0,0.1,0,0.2-0.1c0,0,0,0,0,0c0.1,0,0.2,0,0.4,0c0.1,0,0.1,0,0.2,0c0.1,0,0.2,0,0.3,0
		c0.1,0,0.3,0,0.4,0c0.1,0,0.2-0.1,0.3,0c0,0,0,0,0,0c0.1,0,0.1,0,0.1-0.1c0,0,0-0.1-0.1-0.1c0,0-0.1,0-0.1-0.1
		c-0.1-0.1-0.1,0-0.2,0c-0.1,0-0.2,0-0.3,0c-0.2,0-0.3,0-0.5,0c-0.1,0-0.3,0.1-0.4,0.1c-0.2,0-0.3,0-0.5,0.1c0,0-0.1,0-0.1,0
		c0,0,0-0.1,0-0.1c0-0.1,0-0.1,0.1,0c0,0,0.1,0,0.1,0c0.1,0,0.2,0,0.2,0c0.1,0,0.2,0,0.3-0.1c0.1-0.1,0.2,0,0.3-0.1c0,0,0.1,0,0.1,0
		c0,0,0.1,0,0.1,0c0,0,0.1,0,0.1,0c0,0,0-0.1,0-0.1c0,0,0,0-0.1-0.1c-0.1,0-0.1,0-0.2-0.1c0,0,0,0-0.1,0c-0.2,0-0.4,0.1-0.6,0
		c0,0,0,0,0,0c-0.1,0-0.3,0.1-0.4,0c-0.1,0-0.2,0-0.2,0c0,0-0.1,0-0.1,0.1c0,0.1,0.1,0.1,0.2,0.1C11.2,15.6,11.3,15.6,11.3,15.7z
		 M16.8,14.6C16.9,14.6,16.9,14.5,16.8,14.6c0-0.1,0-0.1,0-0.1c-0.1,0-0.2-0.1-0.4-0.1c0,0,0,0,0,0c-0.1,0-0.1,0-0.2,0
		c0,0-0.1,0-0.1,0c-0.1,0-0.3,0-0.4,0c0,0-0.1,0-0.1,0c0,0-0.1,0-0.1,0c-0.1,0-0.2,0-0.3,0c0,0,0,0,0,0c-0.1,0-0.2,0-0.3,0
		c0,0,0,0,0,0c0,0-0.1,0-0.1,0c0,0-0.1,0-0.1,0c-0.1,0-0.2,0-0.3,0c0,0,0,0-0.1,0c0,0,0,0-0.1,0c-0.1,0-0.2,0-0.2,0
		c-0.1,0-0.2,0-0.3,0c-0.1,0-0.2,0-0.3,0c0,0,0,0-0.1,0c0,0,0,0-0.1,0c-0.1,0-0.3,0-0.4,0c0,0,0,0,0,0c0,0,0,0-0.1,0
		c-0.1,0-0.2,0-0.2,0c0,0-0.1,0-0.1,0c0,0,0,0.1,0,0.1c0.1,0,0.1,0.1,0.2,0.1c0,0,0,0,0.1,0c0.1,0,0.2,0,0.4,0c0,0,0,0,0,0
		c0.1,0,0.1,0,0.2,0c0,0,0,0,0.1,0c0,0,0.1,0,0.1,0c0,0,0.1,0,0.1,0c0.1,0,0.2,0,0.3,0c0,0,0,0,0,0c0,0,0.1,0,0.1,0c0,0,0,0,0.1,0
		c0.1,0,0.2,0,0.3,0c0.1,0,0.3,0,0.4,0c0,0,0,0,0,0c0.1,0,0.2,0,0.3,0c0,0,0,0,0,0c0,0,0.1,0,0.1,0c0,0,0.1,0,0.1,0c0,0,0,0,0,0
		c0.1,0,0.2,0,0.3,0c0,0,0.1,0,0.1,0c0.1,0,0.2,0,0.2,0c0.1,0,0.1,0,0.2,0c0,0,0,0,0.1,0c0,0,0.1,0,0.1,0c0,0,0.1,0,0.1,0
		C16.7,14.5,16.7,14.5,16.8,14.6C16.8,14.6,16.8,14.6,16.8,14.6z M14.8,11.5c0-0.1,0-0.1-0.1-0.1c-0.1,0-0.2,0.1-0.2,0c0,0,0,0,0,0
		c0,0,0,0,0,0c-0.1,0-0.2,0-0.3,0c-0.1,0-0.2,0-0.2,0c-0.1,0-0.2,0-0.3,0c0,0-0.1,0-0.1,0c-0.1,0-0.2,0-0.3,0c-0.2,0-0.4,0-0.6,0
		c0,0-0.1,0-0.1,0c-0.1,0-0.2,0-0.3,0c-0.1,0-0.1,0-0.2,0c0,0-0.1,0-0.1,0c-0.1,0-0.1,0-0.2,0c0,0,0,0,0,0c-0.1,0-0.2,0-0.3,0
		c0,0-0.1,0-0.1,0.1c0,0,0,0.1,0,0.1c0,0,0.1,0,0.1,0c0,0,0.1,0,0.1,0c0,0,0.1,0,0.1,0c0.1,0,0.1,0,0.2,0c0,0,0,0,0,0
		c0.2,0,0.3,0,0.5,0c0.1,0,0.1,0,0.2,0c0.1,0,0.2,0,0.3,0c0,0,0,0,0,0c0,0,0,0,0,0c0,0,0.1,0,0.1,0c0,0,0,0,0,0c0.1,0,0.2-0.1,0.4,0
		c0,0,0,0,0.1,0c0.1,0,0.1,0,0.2,0c0.1,0,0.2,0,0.3,0c0.1,0,0.2,0,0.3,0c0.1,0,0.1,0,0.2,0c0,0,0.1,0,0.1,0
		C14.6,11.7,14.7,11.6,14.8,11.5C14.8,11.6,14.8,11.5,14.8,11.5z M7.6,8.3C7.6,8.3,7.6,8.3,7.6,8.3C7.6,8.3,7.6,8.3,7.6,8.3
		c-0.1,0-0.1,0-0.1,0.1c0,0,0,0.1,0.1,0.1c0,0,0,0,0.1,0c0.1,0,0.2,0,0.2,0.1c0.1,0,0.1,0,0.2,0c0,0,0.1,0,0.1,0
		c0.1,0.1,0.3,0.1,0.4,0.1c0.1,0,0.1,0,0.2,0c0.1,0,0.3,0.1,0.4,0.1c0,0,0,0,0,0c0.1,0,0.3,0,0.4,0c0,0,0.1,0,0.1,0c0,0,0,0,0.1,0
		c0.1,0,0.1,0,0.2,0c0,0,0.1,0,0.1,0c0.1-0.1,0.1-0.1,0-0.2c0,0,0,0-0.1,0C9.8,8.7,9.7,8.7,9.5,8.6C9.5,8.5,9.4,8.5,9.3,8.4
		C9.1,8.3,9,8.4,8.8,8.4c-0.1,0-0.2,0-0.3,0c-0.1,0-0.1-0.1-0.2,0c0,0,0,0-0.1,0c-0.1,0-0.2,0-0.3,0C7.8,8.3,7.7,8.3,7.6,8.3z
		 M6.5,6.5C6.5,6.5,6.5,6.5,6.5,6.5C6.5,6.5,6.5,6.5,6.5,6.5c0.1,0,0.1,0,0.1,0c0,0,0-0.1,0-0.1c0,0-0.1-0.1-0.1-0.1
		c-0.1,0-0.1-0.1,0-0.2c0,0,0-0.1,0.1-0.1c0,0,0-0.1,0-0.1c-0.1,0-0.1,0-0.2,0c-0.2,0-0.3,0-0.5-0.1c0,0,0,0,0,0
		c-0.1,0-0.1-0.1-0.2,0c0,0,0,0-0.1,0c-0.1,0-0.2,0-0.3-0.1C5.1,5.7,5,5.7,4.9,5.7c0,0-0.1,0-0.1,0c-0.1,0-0.2-0.1-0.2-0.1
		c0,0-0.1,0-0.1,0c0,0.1,0,0.1,0,0.2C4.7,5.9,4.8,6,4.9,6.2C5,6.2,5,6.2,5,6.3c0.1,0,0.2,0,0.3,0.1c0.1,0,0.2,0,0.4,0.1
		c0,0,0.1,0,0.1,0c0.2,0,0.3,0.1,0.5,0.1C6.4,6.5,6.4,6.5,6.5,6.5z M8.3,12.7c0.1,0,0.1,0,0.1-0.1c0-0.1,0-0.2,0-0.3
		c0-0.1,0-0.2-0.1-0.2c0,0,0,0,0,0C8.2,12,8.1,11.9,8,11.9c-0.1-0.1-0.2-0.2-0.4-0.2c0,0,0,0,0,0c-0.1-0.1-0.2-0.1-0.3-0.2
		c0,0-0.1,0-0.1,0c-0.1,0-0.2,0.1-0.3,0.2c-0.1,0.1,0,0.2,0,0.2c0.2,0,0.3,0.1,0.4,0.2c0.1,0.1,0.2,0.1,0.4,0.2c0,0,0.1,0,0.1,0
		c0,0,0,0,0,0.1c0,0,0,0-0.1,0c-0.1,0-0.2,0-0.2,0c-0.1,0-0.2-0.1-0.2-0.1c0,0-0.1,0-0.1,0c0,0-0.1,0-0.1,0.1c0,0,0,0,0,0.1
		c0.1,0.1,0.1,0.1,0.2,0.2c0.1,0.1,0.2,0.1,0.3,0.1c0,0,0,0,0.1,0c0,0,0.1,0,0.1,0.1c0,0,0.1,0,0.1,0C8.1,12.6,8.2,12.7,8.3,12.7z
		 M13.9,2.6C13.9,2.6,13.9,2.6,13.9,2.6C14,2.6,14,2.5,14,2.5c0-0.1-0.1-0.1-0.1-0.1c0,0,0,0-0.1,0c0,0-0.1,0-0.1,0
		c-0.2,0-0.3,0-0.5-0.1c0,0-0.1,0-0.1,0c0,0-0.1,0-0.1,0c-0.1,0-0.2,0-0.2,0c-0.1,0-0.1,0-0.2,0c0,0-0.1,0-0.1,0
		c-0.1,0-0.1,0-0.2-0.1c-0.1,0-0.1,0-0.2,0c0,0,0,0,0,0c-0.1,0-0.1,0-0.2,0c-0.1,0-0.1,0-0.1,0.1c0,0,0,0.1,0.1,0.1
		c0.1,0.1,0.2,0.2,0.2,0.3c0.1,0.1,0.2,0.1,0.4,0.1c0,0,0.1,0,0.1,0c0.1,0,0.1,0,0.2,0c0,0,0,0,0.1,0c0,0,0.1,0,0.1,0
		c0.1,0,0.1,0,0.2,0c0,0,0.1,0,0.1,0c0,0,0.1-0.1,0.1-0.1c0.1-0.1,0.2-0.1,0.2,0C13.7,2.6,13.8,2.6,13.9,2.6z M8.4,7.9
		C8.4,7.9,8.4,7.9,8.4,7.9C8.4,7.9,8.4,7.9,8.4,7.9c0.1,0,0.1,0,0.1-0.1c0,0,0-0.1-0.1-0.1C8.4,7.6,8.3,7.6,8.2,7.5
		c0,0-0.1-0.1-0.1-0.1c-0.1,0-0.2,0-0.2,0c-0.1,0-0.3,0-0.4,0C7.2,7.4,7,7.4,6.9,7.3c-0.1,0-0.1,0-0.2-0.1c-0.1-0.1-0.1-0.1-0.2,0
		c0,0-0.2,0-0.2,0c-0.1,0-0.1,0-0.2,0c0,0.1,0,0.1,0.1,0.2c0,0,0,0,0.1,0.1c0.1,0.1,0.2,0.2,0.3,0.1c0,0,0,0,0.1,0
		c0.1,0,0.3,0,0.4,0.1c0.1,0,0.1,0,0.2,0c0.1,0,0.2,0,0.4,0c0.1,0,0.2,0,0.3,0c0,0,0.1,0,0.1,0C8.1,7.8,8.2,7.9,8.4,7.9z M8.6,4
		C8.6,4,8.7,4,8.6,4c0.1,0,0.1,0,0.1,0c0,0,0.1,0,0.1,0c0,0,0-0.1,0-0.1c0,0-0.1-0.1-0.2-0.1c0,0,0,0-0.1,0c-0.1,0-0.2,0-0.3,0
		c-0.1,0-0.2,0-0.3,0c-0.1,0-0.3,0-0.4,0c0,0,0,0,0,0c-0.1,0-0.1,0-0.2,0c0,0,0,0,0,0c0,0-0.1,0-0.1,0c0,0,0,0-0.1,0
		c-0.1,0-0.1,0-0.2,0c0,0,0,0-0.1,0c0,0-0.1,0-0.1,0c0,0-0.1,0-0.1,0c0,0,0,0-0.1,0c0,0-0.1,0-0.1,0c-0.1,0-0.1,0-0.2,0
		c-0.2,0-0.3,0-0.5,0c0,0-0.1,0-0.1,0c0,0-0.1,0-0.1,0c0,0,0,0-0.1,0c0,0-0.1,0-0.1,0c-0.2,0-0.4,0-0.6,0c0,0-0.1,0-0.1,0
		c0,0-0.1,0-0.1,0.1c0,0,0,0.1,0,0.1c0,0,0.1,0.1,0.2,0.1c0.1,0,0.2,0,0.3,0c0,0,0,0,0,0c0,0,0.1,0,0.1,0c0,0,0.1,0,0.1,0
		c0.1,0,0.2,0,0.3,0c0.1,0,0.2,0,0.3,0c0.1,0,0.2,0,0.3,0c0.1,0,0.3,0,0.4,0C6.8,4,6.9,4,7,4c0.2,0,0.4,0,0.7,0c0.1,0,0.1,0,0.2,0
		C7.9,4,8,4,8.1,4C8.3,4,8.4,4,8.6,4z M7.1,5.6C7.1,5.6,7.1,5.6,7.1,5.6C7.1,5.6,7,5.6,7.1,5.6C7,5.7,7,5.7,6.9,5.7
		C7,5.7,7,5.7,7.1,5.6c0,0.1,0,0.1,0.1,0.2c0,0,0,0,0,0c0.1,0,0.1,0,0.2,0c0,0,0.1,0,0.1,0c0.1,0,0.1,0,0.2,0c0.1,0,0.2,0,0.3,0
		c0.2,0,0.4,0,0.7,0c0,0,0,0,0,0c0.1,0,0.2,0,0.4,0c0.1,0,0.3,0,0.4,0c0.1,0,0.2,0,0.3,0c0,0,0,0,0,0c0,0,0.1,0,0.1,0
		c0,0,0.1,0,0.1,0c0.1,0,0.2,0,0.2,0c0.1,0,0.2,0,0.3,0c0,0,0.1-0.1,0-0.1c0,0-0.1-0.1-0.1-0.1c-0.1,0-0.2,0-0.3-0.1
		c-0.1,0-0.1,0-0.2,0c0,0-0.1,0-0.1,0c-0.1,0-0.2,0-0.2,0c-0.1,0-0.3,0-0.4,0c0,0,0,0,0,0c-0.1,0-0.1,0-0.2,0c0,0-0.1,0-0.1,0
		c0,0-0.1,0-0.1,0c-0.1,0-0.2,0-0.4,0c-0.1,0-0.2,0-0.3,0c-0.1,0-0.1,0-0.2,0c-0.1,0-0.1,0-0.2,0c-0.1,0-0.2,0-0.3,0
		C7.4,5.6,7.3,5.6,7.1,5.6z M14.2,9.4C14.2,9.4,14.2,9.4,14.2,9.4c-0.1-0.1-0.1-0.2-0.2-0.2c0,0-0.1-0.1-0.2-0.1c-0.1,0-0.3,0-0.4,0
		c-0.1,0-0.2,0-0.3,0c-0.1,0-0.2,0-0.3,0c-0.1,0-0.2,0-0.2,0c-0.1,0-0.2,0-0.3,0c-0.1,0-0.2,0-0.3,0c-0.1,0-0.2,0-0.4,0
		c0,0,0,0-0.1,0.1c0,0,0,0,0.1,0c0.1,0,0.1,0,0.2,0c0,0,0.1,0,0.1,0c0.1,0,0.2,0,0.2,0c0.1,0,0.2,0,0.3,0c0,0,0.1,0,0.1,0
		c0.2,0,0.4,0,0.6,0.1c0.1,0,0.1,0,0.2,0c0.1,0,0.2,0,0.3,0c0.1,0,0.2,0,0.3,0C14.2,9.5,14.2,9.5,14.2,9.4z M14,16.1
		C14,16.1,14,16.1,14,16.1C14,16.1,13.9,16.1,14,16.1c-0.1,0.1,0,0.1,0,0.1c0.1,0.1,0.3,0,0.4,0.1c0,0,0,0,0,0c0,0,0.1,0,0.1,0
		c0,0,0.1,0,0.1,0c0.1,0,0.2,0,0.3,0c0,0,0.1,0,0.1,0c0.1,0,0.2,0,0.4,0c0.1,0,0.1,0,0.2,0c0.1,0,0.2,0,0.3,0c0.2,0,0.4,0,0.5,0
		c0,0,0,0,0.1,0c0.1,0,0.2,0,0.3,0c0.1,0,0.2,0,0.3,0c0.1,0,0.2-0.1,0.3,0c0,0,0,0,0.1,0c0,0,0,0,0,0c0,0,0-0.1,0-0.1c0,0,0,0-0.1,0
		c0,0,0,0-0.1,0c-0.1,0-0.2,0-0.3-0.1c-0.1,0-0.1,0-0.2,0c-0.1,0-0.2,0-0.2,0c-0.2,0-0.3,0-0.5,0c-0.1,0-0.3,0.1-0.4,0c0,0,0,0,0,0
		c-0.1,0-0.2,0-0.2,0c0,0,0,0,0,0c-0.1,0-0.3,0-0.4,0c-0.1,0-0.3,0-0.4,0c-0.1,0-0.1,0-0.2,0C14.2,16,14.1,16.1,14,16.1z M12,17.1
		C12,17.1,12,17.1,12,17.1c0.2,0.1,0.3,0.1,0.4,0.2c0.1,0,0.2,0,0.4,0c0.2,0,0.3,0,0.5,0c0.1,0,0.3,0,0.4,0c0.2,0,0.4-0.1,0.6,0
		c0,0,0,0,0,0c0,0,0.1,0,0.1,0c0,0,0.1,0,0.1,0c0,0,0-0.1,0-0.1c0,0-0.1-0.1-0.1-0.1c0,0-0.1-0.1-0.2-0.1c-0.1,0-0.2,0-0.3,0
		c-0.1,0-0.1,0-0.2,0c0,0-0.1,0-0.1,0c0,0-0.1,0-0.1,0c-0.1,0-0.2,0-0.3,0c0,0-0.1,0-0.1,0c0,0-0.1,0-0.1,0c0,0-0.1,0-0.1,0
		c0,0-0.1,0-0.1,0c-0.1,0-0.1,0-0.2,0c-0.1,0-0.2,0-0.3,0c0,0,0,0,0,0c-0.1,0.1-0.2,0-0.3,0C12,17,12,17,12,17.1z M4.1,9.3
		c0,0,0.1,0,0.1-0.1c0,0,0-0.1,0-0.1c0,0,0,0,0,0C4.1,8.9,4,8.8,3.9,8.7C3.7,8.5,3.6,8.3,3.5,8.2c0,0-0.1-0.1-0.1-0.1
		C3.3,8,3.2,8,3.2,8.1c0,0,0,0,0,0c0,0.1-0.1,0.1-0.2,0C2.9,8.1,2.9,8.1,2.9,8c0-0.1,0-0.1-0.1-0.1C2.8,7.8,2.8,7.7,2.7,7.6
		c0,0-0.1-0.1-0.1-0.1c0,0-0.1-0.1-0.1-0.1c0,0-0.1,0-0.1,0c0,0,0,0.1,0,0.1c0.1,0.1,0.2,0.2,0.3,0.4C2.7,8,2.7,8,2.8,8.1
		C2.9,8.1,2.9,8.2,3,8.3c0.1,0.2,0.2,0.3,0.3,0.4c0,0,0.1,0.1,0.1,0.1C3.5,8.9,3.6,8.9,3.7,9c0,0,0.1,0.1,0.2,0.1
		c0,0,0.1,0.1,0.1,0.1C4.1,9.2,4.1,9.2,4.1,9.3z M11.9,12.5C12,12.5,12,12.5,11.9,12.5C12,12.5,12,12.5,11.9,12.5c0.2,0,0.3,0,0.4,0
		c0,0,0.1,0,0.1,0c0.1,0,0.1,0,0.2,0c0.1,0,0.2-0.1,0.2,0c0,0,0,0,0,0c0,0,0.1,0,0.1,0c0,0,0,0,0.1,0c0.2,0,0.3-0.1,0.4-0.2
		c0,0,0-0.1,0-0.1c0,0-0.1,0-0.1,0c-0.1,0-0.2,0-0.3,0c-0.1,0-0.1,0-0.2,0c-0.1,0-0.2,0-0.3,0c-0.1,0-0.2,0-0.2,0
		c-0.1,0-0.2,0-0.3,0c-0.1,0-0.2,0-0.3,0c-0.1,0-0.3,0-0.4,0.1c-0.1,0-0.1,0.1-0.1,0.2c0,0.1,0,0.1,0.1,0.1c0,0,0.1,0,0.1,0
		c0.1,0,0.2,0,0.2-0.1c0,0,0,0,0.1,0C11.8,12.5,11.9,12.5,11.9,12.5z M13.5,13.5c-0.1-0.1-0.1-0.1-0.2,0c0,0,0,0-0.1,0
		c0,0-0.1,0-0.1,0c0,0,0,0-0.1,0c0,0,0,0-0.1,0c0,0,0,0,0.1,0.1c0,0,0,0,0.1,0c0.1,0,0.1,0,0.2,0C13.3,13.5,13.4,13.5,13.5,13.5
		c0,0.1,0.1,0.1,0.1,0.1c0,0,0.1,0,0.1,0c0,0,0.1,0,0.1,0c0.1,0,0.2,0.1,0.2,0c0,0,0,0,0.1,0c0,0,0.1,0,0.1,0c0,0,0.1,0,0.1,0
		c0.1,0,0.2,0,0.4,0c0.1,0,0.2,0,0.3,0c0,0,0,0,0,0c0.1,0,0.2,0,0.3,0c0,0,0,0,0,0c0,0,0.1,0,0.1,0c0.1,0,0.2,0,0.3,0
		c0.1,0,0.2,0,0.3,0c0,0,0,0,0,0c0.1,0,0.1,0,0.2,0c0.1,0,0.3,0,0.4,0c0,0,0.1,0,0.1,0c0,0,0-0.1,0-0.1c-0.1-0.1-0.1-0.1-0.2-0.1
		c-0.1,0-0.2,0-0.4,0c-0.1,0-0.1-0.1-0.2,0c0,0,0,0,0,0c-0.1,0-0.1,0-0.2,0c0,0,0,0-0.1,0c-0.1,0-0.3-0.1-0.4,0c0,0,0,0,0,0
		c-0.1-0.1-0.2,0-0.3,0c-0.1,0-0.2,0-0.4,0c-0.1,0-0.2,0-0.3,0c-0.1,0-0.2,0-0.3,0c-0.1,0-0.2,0-0.3,0
		C13.6,13.4,13.5,13.4,13.5,13.5z M12.6,0.9C12.6,0.9,12.6,0.9,12.6,0.9c0.2-0.1,0.2-0.2,0.2-0.3c0,0,0-0.1,0-0.1
		c-0.1,0-0.2,0-0.3,0c-0.1,0-0.2,0-0.3,0c0,0,0,0,0,0c-0.1,0-0.3-0.1-0.4-0.1c0,0,0,0,0,0c-0.1,0-0.1,0-0.2,0c-0.1,0-0.2,0-0.3,0
		c-0.1,0-0.1,0-0.2,0c-0.1,0-0.1,0-0.2,0c0,0,0,0.1,0,0.1c0,0,0.1,0.1,0.1,0.1c0.1,0,0.2,0.1,0.3,0.1c0,0,0,0,0,0
		c0.2,0,0.3,0.1,0.5,0.1c0,0,0,0,0,0c0,0,0.1,0,0.1,0c0.1,0,0.2,0,0.3,0c0.1,0,0.2,0,0.3,0c0,0,0,0,0,0C12.4,0.9,12.5,0.9,12.6,0.9z
		 M14.9,17.5c0-0.1-0.1-0.2-0.2-0.2c-0.1,0-0.1,0-0.2,0c-0.1,0-0.3,0-0.4,0c0,0,0,0,0,0c-0.1,0-0.1,0-0.2,0c-0.1,0-0.1,0-0.2,0
		c-0.1,0-0.2,0-0.2,0c-0.1,0-0.2,0-0.3,0c-0.1,0-0.2,0-0.2,0c0,0,0,0,0,0c-0.1,0-0.2,0-0.3,0c0,0,0,0-0.1,0c-0.1,0-0.2,0.1-0.3,0
		c0,0,0,0-0.1,0c-0.1,0-0.1,0-0.2,0c0,0,0,0-0.1,0c-0.1,0-0.1,0-0.2,0c-0.1,0-0.1,0-0.1,0.1c0,0,0.1,0.2,0.1,0.2c0,0,0,0,0,0
		c0.1,0,0.1,0,0.2,0c0.1,0,0.2,0,0.3-0.1c0.2,0,0.4-0.1,0.6-0.1c0.1,0,0.1,0,0.2,0c0.1,0,0.1,0,0.2,0c0,0,0.1,0,0.1,0
		c0.1,0,0.2,0,0.2,0c0,0,0,0,0,0c0,0,0.1,0,0.2,0c0,0,0.1,0,0.1,0c0,0,0,0,0.1,0c0.1,0,0.2,0,0.3,0.1C14.5,17.5,14.6,17.5,14.9,17.5
		C14.8,17.5,14.9,17.5,14.9,17.5z M7.9,13.6C7.9,13.6,7.9,13.5,7.9,13.6c-0.1-0.2-0.2-0.3-0.3-0.4c-0.2-0.2-0.3-0.4-0.5-0.6
		c-0.1-0.1-0.2-0.3-0.3-0.4c-0.1-0.1-0.1-0.1-0.2-0.2c0-0.1-0.1-0.1-0.2-0.1c-0.1,0-0.1,0-0.1,0c0,0,0-0.1-0.1-0.1
		c0,0-0.1-0.1-0.1-0.1c-0.1-0.1-0.2-0.1-0.2-0.2c0,0-0.1,0-0.1,0c0,0,0,0.1,0,0.1c0.1,0.1,0.2,0.3,0.3,0.4c0.1,0,0.1,0.1,0.2,0.2
		c0,0,0,0,0,0c0,0,0.1,0.1,0.1,0.1c0.2,0.2,0.3,0.4,0.5,0.5C7,12.9,7.1,13,7.2,13c0,0,0.1,0.1,0.1,0.1c0.1,0.2,0.3,0.3,0.4,0.5
		c0,0,0.1,0.1,0.1,0.1C7.9,13.7,7.9,13.7,7.9,13.6z M11.1,6.4c-0.1-0.1-0.2-0.2-0.3-0.2c0,0-0.1,0-0.1,0c0,0,0,0-0.1,0
		c0,0-0.1,0-0.1,0c0,0-0.1,0-0.1,0c-0.1,0-0.1,0-0.2,0c0,0,0,0,0,0c-0.1,0.1-0.2,0-0.3,0c0,0,0,0,0,0c0,0-0.1,0-0.1,0
		c-0.2,0-0.3,0-0.5,0c-0.1,0-0.2,0-0.2,0c0,0,0,0-0.1,0c-0.1,0-0.1,0-0.2,0c0,0-0.1,0-0.1,0c-0.1,0-0.1,0-0.2,0c0,0-0.1,0-0.1,0
		C8.3,6,8.3,6,8.2,6c0,0-0.1,0-0.1,0C8,6,8,6,7.9,6C7.8,6,7.7,6,7.6,6c0,0,0,0,0,0c-0.1,0-0.1-0.1-0.2,0c0,0,0,0,0,0
		c-0.1,0-0.2-0.1-0.3,0c0,0,0,0,0,0c-0.1,0-0.2,0-0.2,0c-0.1,0-0.1,0-0.1,0.1C6.7,6,6.9,6.1,6.9,6c0,0,0,0,0.1,0c0,0,0.1,0,0.1,0
		c0.1,0,0.1,0,0.2,0c0,0,0.1,0,0.1,0c0.1,0,0.3,0,0.4,0c0,0,0,0,0,0c0,0,0.1,0,0.1,0c0,0,0.1,0,0.1,0c0.1,0,0.1,0,0.2,0
		c0,0,0,0,0.1,0c0.1,0,0.1,0.1,0.2,0.1c0,0,0,0,0.1,0c0.1,0,0.1,0,0.1,0c0,0,0.1,0,0.1,0c0,0,0.1,0,0.1,0c0,0,0.1,0,0.1,0
		c0,0,0.1,0,0.1,0c0.1,0,0.2,0.1,0.3,0c0,0,0.1,0,0.1,0c0,0,0.1,0,0.1,0c0.1-0.1,0.1,0,0.2,0c0,0,0,0,0,0c0.1,0,0.1,0,0.2,0
		c0.1,0,0.2,0,0.3,0c0.1,0,0.1,0,0.2,0c0,0,0.1,0,0.1,0c0,0,0.1,0,0.1,0c0,0,0,0,0.1,0c0.1,0,0.2,0,0.3,0C11,6.4,11,6.4,11.1,6.4z
		 M5.7,11.1C5.8,11.1,5.8,11.1,5.7,11.1c0-0.2-0.1-0.3-0.1-0.4c-0.1-0.1-0.2-0.2-0.3-0.3c-0.1-0.1-0.2-0.2-0.3-0.3
		C4.9,10,4.8,9.9,4.7,9.8c-0.1,0-0.1-0.1-0.2-0.1C4.4,9.6,4.3,9.5,4.2,9.5c-0.1,0-0.1,0-0.1,0.1c0,0,0,0.1,0,0.1
		c0.1,0.2,0.3,0.4,0.4,0.5c0.1,0.2,0.3,0.3,0.4,0.4c0,0,0.1,0.1,0.1,0.1c0.1,0.1,0.1,0.1,0.2,0.2c0,0,0.1,0,0.1,0.1
		c0,0,0.1,0.1,0.1,0.1C5.6,11.1,5.7,11.1,5.7,11.1z M14.7,10C14.7,9.9,14.7,9.9,14.7,10c-0.1-0.1-0.1-0.1-0.2-0.1
		c-0.1-0.1-0.2-0.1-0.4-0.1c-0.1,0-0.2,0-0.3,0c-0.1,0-0.2,0-0.3,0c-0.1,0-0.1,0-0.2,0c-0.1,0-0.2,0-0.3,0c-0.1,0-0.1,0-0.2,0
		c0,0,0,0-0.1,0c0,0-0.1,0-0.1,0c0,0-0.1,0-0.1,0c0,0,0,0.1,0,0.1c0.1,0,0.1,0.1,0.2,0.1c0.1,0,0.2,0,0.3,0.1c0,0,0,0,0,0
		c0.1,0,0.2,0,0.3,0c0.1,0,0.1,0,0.2,0c0.1,0,0.2,0,0.3,0c0.1,0,0.3,0,0.4,0c0.1,0,0.1,0,0.2,0C14.7,10.1,14.7,10.1,14.7,10z
		 M7.4,5.6C7.4,5.5,7.4,5.5,7.4,5.6c0.1,0,0.1,0,0.2,0c0.2,0,0.3,0,0.5,0c0.1,0,0.3,0,0.4,0c0.1,0,0.2,0,0.2,0c0,0,0,0,0.1,0
		c0,0,0,0,0-0.1c0,0-0.1-0.1-0.1,0c-0.1,0-0.1,0-0.2,0c0,0-0.1,0-0.1,0c0,0,0,0-0.1,0c0,0,0,0-0.1,0c-0.1,0-0.3,0-0.4,0
		c-0.1,0-0.2,0-0.3,0c-0.1,0-0.2,0-0.3,0c-0.1,0-0.2,0-0.3,0c-0.1,0-0.3-0.1-0.4-0.1c-0.1,0-0.2,0-0.3-0.1c0,0-0.1,0-0.1,0
		c0,0-0.1,0.1,0,0.1c0.1,0.1,0.3,0.2,0.4,0.2c0,0,0.1,0,0.1,0c0.1,0,0.2,0,0.3,0c0,0,0,0,0,0c0,0,0,0,0.1,0C7.1,5.5,7.3,5.5,7.4,5.6
		z M4.1,4.9C4.1,4.9,4,4.9,4.1,4.9C4,5,4,5,4,5.1c0.1,0.1,0.3,0.2,0.5,0.2c0,0,0,0,0,0c0,0,0.1,0,0.1,0c0.1,0,0.2,0,0.3,0.1
		c0,0,0.1,0,0.1,0c0.1,0.1,0.3,0,0.4,0.1c0.1,0,0.2,0,0.3,0c0,0,0.1,0,0.1,0c0,0,0-0.1,0-0.1c0,0,0-0.1-0.1-0.1
		C5.8,5.1,5.6,5.1,5.5,5.1c0,0-0.1,0-0.1,0C5.3,5,5.1,5,5,5.1c0,0,0,0-0.1,0C4.8,5,4.7,5,4.6,5c0,0,0,0,0,0c0,0-0.1,0-0.1,0
		C4.3,5,4.2,4.9,4.1,4.9z M10.6,15.2C10.6,15.2,10.6,15.3,10.6,15.2c0,0.2,0,0.2,0.1,0.1c0,0,0.1,0,0.1,0c0.1,0,0.2-0.1,0.4,0
		c0,0,0,0,0,0c0.2,0,0.4-0.1,0.6,0c0.1,0,0.3,0,0.4,0c0.1,0,0.2,0,0.3-0.1c0.1,0,0.1-0.1,0-0.1c0,0-0.1-0.1-0.1-0.1
		c-0.1,0-0.2,0-0.3,0c0,0,0,0,0,0c0,0-0.1,0-0.1,0c0,0-0.1,0-0.1,0c0,0,0,0-0.1,0c-0.1,0-0.2,0-0.3,0c-0.1,0-0.1,0-0.2,0
		c-0.1,0-0.2,0-0.3,0c-0.1,0-0.2,0-0.3,0c0,0,0,0,0,0C10.6,15.1,10.6,15.1,10.6,15.2z M2.8,3.5C2.8,3.5,2.7,3.5,2.8,3.5
		C2.7,3.5,2.7,3.6,2.7,3.6C2.8,3.7,2.9,3.8,3,4c0,0,0.1,0.1,0.1,0c0.1,0,0.2-0.1,0.2-0.1c0,0,0,0,0.1,0c0.1,0,0.1,0.1,0.2,0
		c0,0,0,0,0,0c0,0,0.1,0,0.1,0c0.1,0,0.1,0,0.2,0c0.1,0,0.3,0,0.4,0c0.1,0,0.1-0.1,0.1-0.1c0-0.1-0.1-0.1-0.1-0.1
		c-0.1,0-0.1,0-0.2,0c0,0-0.1,0-0.1,0c-0.1,0-0.3,0-0.4,0c0,0,0,0,0,0c0,0-0.1,0-0.1,0c-0.1,0-0.2,0-0.3,0c0,0,0,0-0.1,0
		C3.1,3.5,2.9,3.5,2.8,3.5z M7.8,8.8c-0.1,0-0.1,0-0.1,0.1c0,0.1,0,0.1,0.1,0.1c0,0,0.1,0.1,0.1,0.1c0.1,0.1,0.2,0.1,0.3,0.1
		c0.1,0,0.2,0,0.3,0c0.1,0,0.2,0,0.3,0.1c0.1,0,0.3,0,0.4,0.1c0.1,0,0.1,0,0.1-0.1c0-0.1-0.1-0.1-0.1-0.2C9.1,9,9,9,8.9,9
		c0,0,0,0-0.1,0C8.7,9,8.6,9,8.4,8.9c-0.1,0-0.3,0-0.4-0.1c0,0,0,0,0,0c-0.1,0-0.1,0-0.2,0C7.8,8.9,7.8,8.9,7.8,8.8z M11.2,8.5
		C11.1,8.4,11.1,8.4,11.2,8.5C11.1,8.4,11,8.4,11,8.4c-0.1,0-0.3,0.1-0.4,0c0,0,0,0,0,0c-0.1,0-0.2,0-0.3,0c0,0-0.1,0-0.1,0
		c0,0,0,0-0.1,0c-0.1,0-0.1,0-0.2,0c0,0-0.1,0-0.1,0c-0.1,0-0.1,0-0.1,0c0,0.1,0,0.1,0,0.2c0.1,0.1,0.2,0.1,0.3,0.2
		c0.1,0,0.1,0.1,0.2,0.1c0,0,0.1,0,0.1,0c0.1,0.1,0.2,0.1,0.2,0C10.8,8.8,10.9,8.7,11.2,8.5C11.1,8.5,11.1,8.5,11.2,8.5z M13.3,17.8
		C13.3,17.8,13.3,17.8,13.3,17.8c0,0,0.1,0,0.1,0c0.1,0,0.2,0,0.3-0.1c0.1,0,0.3,0,0.4-0.1c0,0,0,0,0.1-0.1c0,0,0,0-0.1-0.1
		c-0.1,0-0.3,0-0.4,0c0,0,0,0,0,0c0,0-0.1,0-0.1,0c0,0-0.1,0-0.1,0c-0.1,0-0.2,0-0.3,0c-0.1,0-0.1,0-0.2,0c-0.2,0-0.4,0-0.5,0.1
		c-0.1,0-0.3,0-0.4,0.1c-0.1,0-0.1,0.1-0.1,0.2c0,0,0.1,0.1,0.1,0.1c0.1,0.1,0.2,0.1,0.3,0c0,0,0.1,0,0.1,0c0.2,0,0.3-0.1,0.5-0.1
		C13.1,17.9,13.2,17.9,13.3,17.8z M14.4,15.9C14.4,15.9,14.4,15.9,14.4,15.9c0.2,0,0.4,0,0.5,0c0.1,0,0.2,0,0.3,0
		c0.2,0,0.3,0,0.5-0.1c0,0,0.1,0,0.1-0.1c0,0,0-0.1-0.1-0.1c-0.1,0-0.2,0-0.3,0c-0.1,0-0.2-0.1-0.3,0c0,0,0,0,0,0c0,0-0.1,0-0.1,0
		c0,0-0.1,0-0.1,0c-0.1,0-0.1,0-0.2,0c0,0-0.1,0-0.1,0c0,0,0,0-0.1,0c-0.1,0-0.2,0-0.2,0c0,0-0.1,0-0.1,0c0,0-0.1,0-0.1,0
		c0,0-0.1,0-0.1,0c0,0-0.1,0-0.1,0c0,0,0,0-0.1,0c0,0-0.1,0-0.1,0c0,0,0,0-0.1,0c-0.1,0-0.1,0.1-0.1,0.1c0,0.1,0.1,0.1,0.1,0.1
		c0.1,0,0.2,0,0.3,0C14.2,15.9,14.3,15.9,14.4,15.9z M14.1,1.5C14.1,1.4,14.1,1.4,14.1,1.5c-0.1-0.2-0.2-0.2-0.4-0.2
		c-0.2,0-0.3,0-0.5-0.1c0,0,0,0-0.1,0c0,0,0,0-0.1,0c-0.1,0.1-0.2,0-0.3,0c-0.1,0-0.1,0-0.2,0c-0.1,0-0.1,0-0.2,0c0,0-0.1,0-0.1,0
		c0,0-0.1,0-0.1,0c0,0-0.1,0-0.1,0c-0.1,0-0.1,0-0.2,0c0,0-0.1,0-0.1,0c-0.1,0-0.1,0-0.2,0c0,0-0.1,0-0.1,0c0,0,0,0.1,0,0.1
		c0,0,0,0,0.1,0c0.1,0,0.2,0.1,0.3,0.1c0,0,0,0,0,0c0.1,0,0.1,0,0.2,0c0.1,0,0.1,0,0.2,0c0.1,0,0.1,0.1,0.2,0c0,0,0,0,0,0
		c0.1,0.1,0.3,0.1,0.5,0.1c0.1,0,0.1,0,0.2,0c0.2,0,0.3,0.1,0.4,0.1c0.1,0,0.2,0,0.3,0.1C14,1.6,14.1,1.5,14.1,1.5z M14,2.1
		C14,2.1,14,2.1,14,2.1C14,2,14.1,2,14,2.1c0.1,0,0.2,0,0.2,0c0.1,0,0.1-0.1,0.1-0.1c0-0.1,0-0.1-0.1-0.1c-0.1,0-0.2,0-0.2,0
		c0,0,0,0,0,0c-0.1,0-0.3,0-0.4-0.1c0,0,0,0-0.1,0c0,0,0,0-0.1,0c-0.1,0-0.2,0-0.3,0c0,0,0,0,0,0c0,0-0.1,0-0.1,0
		c-0.1,0-0.2,0-0.2,0c0,0-0.1,0,0,0.1c0,0,0.1,0.1,0.2,0.1c0,0,0.1,0,0.1,0c0,0,0.1,0,0.1,0c0.1,0,0.1,0,0.1,0.1
		c0,0.1,0.1,0.1,0.2,0.1c0,0,0.1,0,0.1,0c0.1,0,0.1,0,0.2,0c0,0,0.1,0,0.1,0c0.1,0,0.1,0.1,0.2,0.1c0.1,0,0.1,0,0.2-0.1
		C14.2,2.2,14.1,2.1,14,2.1C14.1,2.1,14,2.1,14,2.1z M15.5,12.6C15.5,12.6,15.5,12.6,15.5,12.6C15.5,12.6,15.5,12.6,15.5,12.6
		C15.5,12.6,15.6,12.6,15.5,12.6c0.1-0.1,0.1-0.1,0.1-0.1c0-0.1-0.1-0.1-0.2-0.1c-0.2,0-0.3-0.1-0.5-0.1c-0.1,0-0.1,0-0.2,0
		c-0.2,0-0.3-0.1-0.5-0.1c0,0-0.1,0-0.1,0c-0.1,0-0.2,0.1-0.2,0.2c-0.1,0-0.1,0.1,0,0.1c0,0,0,0,0.1,0.1c0,0,0.1,0,0.1,0
		c0,0,0,0,0.1,0c0,0,0.1,0,0.1,0c0,0,0.1,0,0.1,0c0.1,0,0.1,0,0.2,0c0.1,0,0.2,0,0.3,0C15,12.6,15.2,12.6,15.5,12.6z M7,1.5
		c0.2,0,0.2-0.1,0.2-0.2c0-0.1-0.1-0.1-0.1-0.1c-0.1,0-0.1,0-0.2-0.1c0,0-0.1,0-0.1,0c-0.1,0-0.2,0-0.4,0c-0.1,0-0.2,0-0.3,0
		c0,0,0,0,0,0c-0.1,0-0.2,0-0.2,0c-0.1,0-0.2,0-0.3,0c0,0-0.1,0.1,0,0.1c0.1,0,0.1,0.1,0.2,0.1c0.1,0,0.2,0,0.4,0c0,0,0,0,0,0
		c0,0,0.1,0,0.1,0c0.1,0,0.3,0,0.4,0.1c0,0,0,0,0,0C6.8,1.5,6.9,1.5,7,1.5z M14.9,16.8C14.8,16.8,14.8,16.8,14.9,16.8
		c-0.1,0-0.1,0.1-0.1,0.1c0,0,0,0.1,0.1,0.1c0,0,0,0,0.1,0c0.1,0,0.1,0.1,0.2,0.1c0.1,0,0.3,0,0.4,0c0.2,0,0.3,0,0.5,0
		c0.1,0,0.1,0,0.2,0c0,0,0,0,0,0c0,0,0.1,0,0.1,0c0,0,0,0,0.1,0c0.1,0,0.1,0,0.2,0c0,0,0,0,0.1,0c0.1,0,0.1,0,0.2,0c0,0,0.1,0,0.1,0
		c0,0,0-0.1,0-0.1c0,0-0.1,0-0.1,0c0,0,0,0-0.1,0c-0.1,0-0.1,0-0.2,0c0,0-0.1,0-0.1,0c0,0,0,0,0,0c-0.1-0.1-0.1,0-0.2,0
		c0,0,0,0-0.1,0c0,0-0.1,0-0.1,0c0,0,0,0-0.1,0c0,0-0.1,0-0.1,0c0,0-0.1,0-0.1,0c-0.1,0-0.1,0-0.2,0c-0.1,0-0.2,0-0.3,0
		C15.1,16.8,15,16.8,14.9,16.8z M6.1,2.4c0.1,0,0.3,0,0.4-0.2c0,0,0-0.1,0-0.1c-0.1,0-0.2,0-0.3,0c-0.1,0-0.2,0-0.2,0
		c-0.2,0-0.3,0-0.5,0c0,0,0,0,0,0C5.3,2,5.2,2,5.2,2c0,0-0.1,0-0.2,0C5,2,4.9,2,4.9,2c0,0-0.1,0,0,0.1c0,0,0.1,0.1,0.1,0.1
		C5,2.3,5,2.3,5.1,2.3c0,0,0.1,0,0.1,0c0.1,0,0.1,0,0.2,0c0.1,0,0.1,0,0.2,0c0,0,0.1,0,0.1,0C5.8,2.4,5.9,2.4,6.1,2.4z M15.3,12.1
		C15.3,12.1,15.3,12.1,15.3,12.1C15.2,12.2,15.2,12.2,15.3,12.1c-0.1,0.1,0.1,0.2,0.1,0.2c0.1,0,0.1,0,0.2,0c0.1,0,0.1,0,0.2,0
		c0.1,0,0.2,0,0.2,0.1c0,0,0.1,0,0.1,0c0,0,0.1,0,0.1,0c0.2,0.1,0.3,0.1,0.5,0c0.1,0,0.1-0.1,0-0.2c0,0-0.1-0.1-0.1-0.1
		c-0.1-0.2-0.3-0.1-0.4-0.1c0,0-0.1,0-0.1,0c0,0-0.1,0-0.1,0c-0.1,0-0.1,0-0.2,0C15.7,12.1,15.5,12.1,15.3,12.1z M11.9,1.6
		c0.1,0,0.1,0,0.2,0c0.1,0,0.1,0,0.2,0c0.1,0,0.2,0,0.4,0c0.1,0,0.2,0,0.3,0c0.1,0.1,0.2,0,0.3,0c0,0,0,0,0,0c0,0,0,0,0-0.1
		c-0.1,0-0.1-0.1-0.2-0.1c-0.1,0-0.2,0-0.2-0.1c0,0,0,0-0.1,0c-0.2,0-0.3,0-0.5-0.1c-0.1,0-0.2-0.1-0.4-0.1c0,0,0,0-0.1,0
		c-0.1,0-0.2,0-0.3-0.1c0,0,0,0,0,0c0,0-0.1,0-0.1,0c0,0,0,0.1,0,0.1c0,0,0.1,0.1,0.1,0.1C11.7,1.6,11.8,1.7,11.9,1.6z M2.9,8.6
		C3,8.6,3,8.5,2.9,8.6c0.1-0.1,0-0.2,0-0.2C2.8,8.2,2.7,8.1,2.6,8C2.5,7.9,2.4,7.7,2.3,7.6c0,0-0.1,0-0.1-0.1c0,0-0.1,0-0.1-0.1
		c0-0.1-0.1-0.1-0.2-0.2c0,0-0.1,0-0.1,0c0,0,0,0.1,0,0.1C2,7.7,2.2,7.9,2.4,8.2c0.1,0.1,0.2,0.2,0.3,0.3c0,0,0.1,0,0.1,0.1
		C2.8,8.5,2.9,8.6,2.9,8.6z M3.9,2.4C3.9,2.4,3.9,2.4,3.9,2.4C3.9,2.4,3.9,2.4,3.9,2.4c-0.1,0-0.2,0-0.2,0c0,0,0,0.1,0,0.1
		c0,0,0.1,0,0.1,0.1c0.2,0.1,0.4,0,0.5,0.1c0,0,0,0,0,0c0.1,0,0.2,0,0.3,0.1c0,0,0,0,0.1,0c0.1,0,0.1,0,0.2,0c0,0,0.1,0,0.1,0
		c0,0,0.1,0,0.1,0c0,0,0.1,0,0.1,0c0,0,0-0.1,0-0.1C5.1,2.6,5,2.6,5,2.5C4.9,2.5,4.9,2.5,4.8,2.5c-0.1,0-0.2,0-0.4,0
		c0,0-0.1,0-0.1,0C4.2,2.4,4.1,2.4,3.9,2.4z M8.7,8.2c0,0,0.1,0,0.1,0c0,0,0-0.1,0-0.1c0,0-0.1-0.1-0.1-0.1C8.7,8,8.6,8,8.5,8
		c0,0,0,0,0,0C8.5,8,8.4,8,8.4,8C8.3,8,8.2,8,8.1,8C8,8,7.9,8,7.9,8c0,0,0,0,0,0c-0.1,0-0.1,0-0.2,0c0,0-0.1,0-0.1,0
		c0,0-0.1,0-0.1,0c-0.1,0-0.2,0-0.3,0c0,0,0,0-0.1,0c0,0-0.1,0-0.1,0c-0.1-0.1-0.2,0-0.2,0.1c0,0,0,0,0,0.1c0,0,0,0,0.1,0
		c0,0,0.1,0,0.1,0C6.9,8,7,8.1,7,8c0,0,0,0,0,0c0.1,0,0.2,0.1,0.3,0c0,0,0,0,0.1,0c0.1,0.1,0.1,0,0.2,0c0,0,0.1,0,0.1,0
		c0.1,0,0.1,0,0.2,0c0.1,0,0.1,0,0.2,0c0,0,0.1,0,0.1,0c0,0,0.1,0,0.1,0c0.1,0,0.2,0,0.3,0c0,0,0,0,0,0C8.6,8.2,8.6,8.2,8.7,8.2
		C8.7,8.2,8.7,8.2,8.7,8.2z M16.3,12C16.3,12,16.3,12,16.3,12c0,0,0.1,0,0.1,0c0,0,0-0.1,0-0.1c0,0,0-0.1-0.1-0.1
		c-0.1,0-0.1,0-0.1,0c0,0-0.1,0-0.1,0c0,0,0,0-0.1,0c-0.1,0-0.2,0-0.4,0c-0.1,0-0.2,0.1-0.3,0c-0.1,0.1-0.1,0-0.2,0
		c-0.1,0-0.1,0-0.2,0c-0.1,0-0.1,0-0.2,0c0,0-0.1,0-0.1,0c0,0-0.1,0-0.1,0c0,0,0,0.1,0,0.1c0,0,0.1,0.1,0.1,0.1c0.1,0,0.2,0,0.2,0
		c0.1,0,0.1,0,0.2,0c0,0,0,0,0,0c0.1-0.1,0.1,0,0.2,0c0,0,0,0,0.1,0c0,0,0.1,0,0.1,0c0.1,0,0.2,0,0.3,0c0,0,0,0,0,0
		c0.1,0,0.2,0,0.3,0C16.1,12,16.2,12,16.3,12z M11.2,9.7c0.1,0,0.1,0,0.1-0.1c0-0.1,0-0.1-0.1-0.1c-0.1-0.1-0.2-0.1-0.3-0.2
		c0,0,0,0,0,0c-0.1,0-0.2-0.1-0.3-0.1c0,0-0.1,0-0.1,0c0,0-0.1,0-0.1,0c-0.1,0-0.1,0-0.1,0c-0.1,0.1-0.1,0.1-0.2,0.2
		c-0.1,0.1-0.1,0.1,0,0.1c0,0,0.1,0,0.1,0c0.1,0,0.2,0,0.3,0c0.1,0,0.2,0,0.3,0c0.1,0,0.1,0,0.2,0C11.1,9.7,11.1,9.7,11.2,9.7z
		 M13.8,16.6C13.8,16.6,13.8,16.6,13.8,16.6c0.1,0,0.2,0,0.2-0.1c0-0.1,0-0.1-0.1-0.1c-0.1,0-0.2,0-0.3,0c0,0,0,0,0,0c0,0,0,0,0,0
		c-0.1,0-0.1,0-0.2,0c-0.1,0-0.2,0-0.3,0c-0.1,0-0.2,0-0.3,0c-0.1,0-0.2,0-0.3,0c0,0,0,0-0.1,0c0,0-0.1,0-0.1,0c0,0-0.1,0.1,0,0.1
		c0,0,0,0,0,0c0.1,0,0.1,0,0.2,0c0.1,0,0.2,0,0.2,0c0.1,0,0.2,0,0.3,0c0,0,0,0,0.1,0c0.1,0.1,0.2,0,0.4,0c0.1,0,0.2,0,0.3,0
		C13.7,16.6,13.7,16.6,13.8,16.6C13.7,16.6,13.7,16.6,13.8,16.6z M13.1,10.7c-0.1,0-0.1,0-0.2,0.1c0,0,0,0,0,0.1
		c0,0,0.1,0.1,0.2,0.1c0,0,0.1,0,0.1,0c0,0,0.1,0,0.1,0c0.1,0,0.2,0,0.3,0c0.1,0,0.1,0,0.2,0c0,0,0,0,0.1,0c0.1,0,0.1,0,0.1,0
		c0,0,0,0,0,0c0.1,0,0.3,0,0.4-0.1c0,0,0.1,0,0.1,0c0,0,0.1,0,0.1,0c0.1-0.1,0-0.1-0.1-0.1c-0.1,0-0.2,0-0.2,0c0,0-0.1,0-0.1,0
		c-0.1,0-0.3,0-0.4,0c-0.1,0-0.2,0-0.3,0c0,0,0,0,0,0c-0.1,0.1-0.1,0-0.2,0C13.3,10.8,13.2,10.8,13.1,10.7z M13,11.4
		c0-0.1,0-0.1-0.1-0.1c0,0-0.1,0-0.1,0c-0.1,0-0.2,0-0.2,0c0,0-0.1,0-0.1,0c0,0-0.1,0-0.1,0c0,0-0.1,0-0.1,0c-0.1,0-0.1,0-0.2,0
		c0,0-0.1,0-0.1,0c-0.1,0-0.2,0-0.3,0c-0.1,0-0.2,0-0.3,0c-0.1,0-0.1,0.1-0.1,0.1c0,0.1,0.1,0.1,0.1,0.1c0.1,0,0.3,0,0.4,0
		c0,0,0.1,0,0.1,0c0,0,0.1,0,0.1,0c0,0,0,0,0.1,0c0,0,0.1,0,0.1,0c0.1,0,0.1,0,0.2,0c0,0,0,0,0,0c0.1,0,0.1,0,0.2,0c0,0,0.1,0,0.1,0
		c0,0,0.1,0,0.1,0c0.1,0,0.2,0,0.3,0C12.9,11.4,13,11.4,13,11.4z M12.9,9.6C12.9,9.6,12.9,9.6,12.9,9.6c0,0-0.1,0-0.1,0
		c0-0.1-0.1-0.1-0.2-0.1c-0.1,0-0.1,0-0.2,0c-0.1,0-0.2,0-0.4-0.1c-0.2,0-0.4-0.1-0.6-0.1c0,0-0.1,0-0.1,0c-0.1,0.1,0,0.2,0.1,0.2
		c0.1,0,0.3,0.1,0.4,0.2c0.1,0,0.1,0,0.2,0c0,0,0,0,0.1,0c0.2,0,0.4,0,0.6,0C12.7,9.7,12.8,9.7,12.9,9.6C12.9,9.6,12.9,9.6,12.9,9.6
		z M10.3,17.6c0.1,0,0.2-0.1,0.1-0.2c-0.1-0.1-0.2-0.2-0.4-0.2c-0.2,0-0.3,0-0.5-0.1c-0.1,0-0.1,0-0.2,0.1c0,0.1,0,0.1,0,0.1
		c0,0,0.1,0,0.1,0c0.1,0.1,0.2,0.2,0.4,0.2c0.1,0,0.1,0,0.1,0C10.2,17.5,10.2,17.6,10.3,17.6z M15.2,18C15.2,18,15.2,18,15.2,18
		C15.2,18,15.2,18,15.2,18c0.1-0.1,0.1-0.1,0.1-0.1c-0.1-0.1-0.1-0.1-0.2-0.1c0,0,0,0-0.1,0c-0.1,0.1-0.3,0-0.4,0.1c0,0,0,0,0,0
		c-0.1,0-0.3,0-0.4,0c0,0,0,0,0,0c0,0-0.1,0-0.1,0c0,0,0,0-0.1,0c-0.1,0.1-0.2,0.1-0.3,0.1c0,0,0,0,0,0c0,0,0,0.1,0.1,0.1
		c0,0,0,0,0.1,0c0,0,0,0,0.1,0c0.1,0,0.1,0,0.2,0c0,0,0.1,0,0.1,0c0,0,0.1,0,0.1,0c0,0,0.1,0,0.1,0c0,0,0.1,0,0.1,0c0,0,0,0,0.1,0
		c0.1,0,0.2,0,0.3,0C14.9,18,15,18,15.2,18z M8,7.3C8,7.3,8,7.2,8,7.3C7.9,7.2,7.8,7.1,7.8,7.1C7.6,7.1,7.5,7.1,7.3,7
		C7.2,7,7.1,7,7,7c0,0,0,0,0,0c0,0-0.1,0-0.1,0c0,0-0.1,0-0.1,0c-0.1,0-0.2,0-0.2,0c0,0-0.1,0,0,0.1c0,0,0,0.1,0.1,0.1
		c0,0,0.1,0,0.1,0c0.1,0,0.2,0.1,0.3,0.1c0.1,0,0.2,0.1,0.3,0.1c0.2,0,0.3,0,0.5,0.1c0,0,0,0,0,0C7.9,7.4,8,7.4,8,7.3z M15.5,11.7
		C15.5,11.7,15.5,11.7,15.5,11.7c0.1,0,0.1,0,0.2,0c0.1,0,0.2,0,0.3-0.1c0,0,0.1-0.1,0-0.1c-0.1-0.1-0.1-0.1-0.2-0.1
		c-0.1,0-0.2,0-0.2,0c0,0-0.1,0-0.1,0c0,0-0.1,0-0.1,0c-0.1,0-0.2,0-0.2,0c0,0,0,0,0,0c-0.1,0-0.1,0.1-0.2,0.1c0,0-0.1,0.1,0,0.1
		c0,0,0.1,0.1,0.2,0.1c0.1,0,0.2,0,0.2,0C15.4,11.7,15.5,11.7,15.5,11.7z M9.9,19.2C9.9,19.3,9.9,19.3,9.9,19.2
		c0.1,0.2,0.1,0.2,0.2,0.2c0,0,0.1,0,0.1,0c0.1,0,0.2,0.1,0.2,0c0,0,0,0,0,0c0.1,0,0.1,0,0.2,0.1c0.1,0,0.1,0,0.1,0c0,0,0-0.1,0-0.1
		c-0.1,0-0.1-0.1-0.2-0.1c0,0-0.1,0-0.1,0c0,0-0.1,0-0.1,0c0,0-0.1,0-0.1,0c0,0-0.1,0-0.1,0c0,0,0,0-0.1,0c0,0,0,0,0,0
		c0,0,0.1,0,0.1,0c0,0,0.1,0,0.1,0c0-0.1-0.1-0.2-0.2-0.2c-0.2,0-0.3,0-0.5-0.1c-0.1,0-0.1,0-0.1,0.1c0,0.1,0.1,0.1,0.2,0.2
		C9.7,19.2,9.8,19.2,9.9,19.2c0.1-0.1,0.1-0.1,0.2,0C10,19.2,9.9,19.2,9.9,19.2z M3.2,8.9C3.1,8.9,3.1,8.9,3.1,9
		c0,0,0.1,0.1,0.1,0.1c0.1,0.1,0.2,0.2,0.3,0.3C3.6,9.6,3.8,9.8,4,9.9c0,0,0,0,0,0c0,0,0.1,0,0.1,0c0,0,0-0.1,0-0.1c0,0,0,0,0-0.1
		C4,9.6,3.8,9.4,3.6,9.2c0,0-0.1-0.1-0.1-0.1C3.4,9,3.4,9,3.3,8.9C3.2,8.9,3.2,8.9,3.2,8.9z M9.5,9.7C9.5,9.7,9.5,9.7,9.5,9.7
		c-0.1,0-0.1,0-0.1-0.1c0,0-0.1,0-0.1,0c-0.1,0-0.2,0-0.2,0c-0.1,0-0.2,0-0.3,0c-0.2,0-0.3-0.1-0.5-0.1c-0.1,0-0.1,0-0.1,0.1
		c0,0.1,0,0.1,0.1,0.1c0.1,0,0.1,0.1,0.2,0.1c0.1,0,0.3,0,0.4,0.1c0.1,0,0.3,0,0.4,0c0.1,0,0.1,0,0.2,0c0,0,0,0,0.1,0
		C9.5,9.8,9.5,9.8,9.5,9.7z M13.7,5.1c0.1,0,0.1-0.1,0.2-0.1c0-0.1,0-0.1-0.1-0.1c-0.1,0-0.2-0.1-0.2-0.1c-0.1-0.1-0.2-0.1-0.3-0.1
		c-0.1,0-0.2,0-0.3,0c0,0,0,0-0.1,0c-0.1,0-0.1,0.2,0,0.2c0,0,0.1,0.1,0.2,0.1c0,0,0.1,0,0.1,0c0.1,0,0.1,0,0.2,0
		C13.4,5,13.6,5.1,13.7,5.1z M10.8,5.4C10.7,5.4,10.7,5.3,10.8,5.4c-0.1-0.1-0.2-0.1-0.2-0.2c-0.1,0-0.2,0-0.4-0.1
		c-0.1,0-0.1,0-0.2,0c0,0-0.1,0-0.1,0c-0.1,0-0.1,0-0.2,0c-0.1,0-0.1,0.1-0.2,0.1c-0.1,0.1,0,0.1,0.1,0.2c0.1,0,0.1,0,0.2,0
		c0,0,0,0,0.1,0c0,0,0.1,0,0.1,0c0.1,0,0.3,0,0.4,0C10.5,5.5,10.6,5.5,10.8,5.4C10.7,5.4,10.7,5.4,10.8,5.4z M16.4,7
		c-0.1-0.1-0.2-0.1-0.3-0.1c0,0-0.1,0-0.1,0.1c0,0,0,0.1,0.1,0.1c0,0,0.1,0,0.1,0C16.3,7.1,16.3,7.1,16.4,7
		C16.4,7.1,16.4,7.1,16.4,7c0.1,0.1,0.1,0.1,0.2,0.1c0,0,0.1,0,0.1,0c0.1,0.1,0.2,0.1,0.2,0c0,0,0,0,0,0c0,0,0,0,0,0
		c0,0.1,0.1,0.1,0.2,0.1c0,0,0.1,0,0.1,0c0.1,0,0.1,0.1,0.2,0.1c0.1,0,0.1,0,0.2,0c0,0,0.1,0,0.1,0c0,0,0.1-0.1,0.1-0.1
		c0,0-0.1-0.1-0.1-0.1c-0.1,0-0.1,0-0.2,0c-0.1,0-0.2-0.1-0.3,0c0,0,0,0-0.1,0c0,0-0.1-0.1-0.1-0.1c-0.1,0-0.2,0-0.3,0
		c0,0-0.1,0-0.1,0C16.6,7,16.5,6.9,16.4,7C16.5,7,16.5,7,16.4,7z M10.4,15.3C10.4,15.3,10.4,15.3,10.4,15.3c0,0-0.1,0-0.1,0
		c0,0,0,0.1-0.1,0.1c-0.1,0.1-0.1,0.2,0,0.3c0.1,0.1,0.1,0.1,0.2,0.2c0.1,0.1,0.2,0.3,0.3,0.4c0,0,0.1,0,0.1,0
		c0.1,0,0.1-0.1,0.1-0.1c0-0.1-0.1-0.1-0.1-0.1c-0.1-0.1-0.1-0.2-0.1-0.3c0,0,0-0.1,0-0.1c0,0-0.1,0-0.1,0c0,0,0,0-0.1,0
		c0,0-0.1,0-0.1,0c0,0,0-0.1,0-0.1C10.4,15.4,10.5,15.4,10.4,15.3C10.6,15.3,10.5,15.3,10.4,15.3C10.5,15.3,10.4,15.3,10.4,15.3z
		 M17.4,4.9C17.4,4.9,17.4,4.9,17.4,4.9C17.4,4.9,17.5,4.9,17.4,4.9c0.1,0,0.1-0.1,0.1-0.1c0-0.1-0.1-0.1-0.2-0.1c0,0-0.1,0-0.1,0
		c-0.1,0-0.2-0.1-0.3-0.1c-0.1,0-0.2,0-0.2,0c0,0-0.1,0-0.1,0c-0.1,0-0.1,0-0.1,0c-0.1,0-0.1-0.1-0.2,0c-0.1,0-0.1,0-0.1,0
		c0,0-0.1,0-0.1,0c0,0,0,0.1,0,0.1c0.1,0,0.1,0.1,0.2,0.1c0.1,0,0.1,0,0.2,0c0.1,0,0.2,0.1,0.3,0.1c0,0,0,0,0.1,0
		c0.1,0,0.2,0,0.3,0.1c0,0,0.1,0,0.1,0C17.2,4.8,17.3,4.9,17.4,4.9z M9.4,16.4C9.4,16.4,9.4,16.4,9.4,16.4c0,0-0.1,0-0.1,0
		c-0.1,0-0.1,0.1-0.1,0.1c0,0.1,0,0.1,0.1,0.1c0,0,0.1,0,0.1,0.1c0.1,0.1,0.2,0.1,0.4,0.1c0,0,0.1,0,0.1,0c0,0,0.1,0,0.1,0
		c0.1-0.1,0.1-0.1,0-0.2c0-0.1-0.1-0.1-0.1-0.2c0,0-0.1-0.1-0.1-0.1c-0.1,0-0.2-0.1-0.2,0c0,0,0,0-0.1,0C9.5,16.5,9.5,16.5,9.4,16.4
		z M14.7,14.9C14.7,14.9,14.7,14.9,14.7,14.9c0,0,0.1,0,0.1-0.1c0,0,0,0,0-0.1c0,0,0,0-0.1,0c0,0-0.1,0-0.1,0c0,0,0,0-0.1,0
		c0,0-0.1,0-0.1,0c0,0-0.1,0-0.1,0c0,0-0.1,0-0.1,0c0,0-0.1,0-0.1,0c0,0-0.1,0-0.1,0c-0.1,0-0.1,0-0.1,0c0,0-0.1,0-0.1,0
		c0,0-0.1,0-0.2,0c0,0-0.1,0-0.1,0c0,0-0.1,0-0.1,0c-0.1,0.1-0.1,0.1-0.1,0c0,0-0.1,0-0.1,0c0,0-0.1,0-0.1,0c0,0-0.1-0.1-0.1,0
		c0,0-0.1,0-0.1,0c0,0-0.1,0-0.1,0c0,0,0,0,0,0.1c0,0,0,0.1,0.1,0.1c0.1,0,0.3,0.1,0.4,0c0,0,0,0,0.1,0c0.1,0,0.1,0,0.2,0
		c0.1,0,0.2,0,0.3,0c0.2,0,0.3,0,0.5,0c0,0,0,0,0,0c0,0,0.1,0,0.1,0c0,0,0.1,0,0.1,0C14.6,14.9,14.6,14.9,14.7,14.9z M19,9.4
		c0,0.1,0,0.2,0.2,0.2c0,0,0.1,0,0.1,0c0.1,0,0.1,0.1,0.2,0c0.1,0,0.2-0.1,0.3-0.1c0.1,0,0-0.1,0-0.2c-0.1-0.1-0.3-0.1-0.4-0.1
		c0,0-0.1,0-0.1,0c-0.1,0-0.1,0-0.2,0.1C19,9.3,19,9.3,19,9.4z M16.7,4C16.7,4,16.7,4,16.7,4c-0.1,0-0.2,0.1-0.3,0.2
		c-0.1,0-0.1,0.1,0,0.2c0,0,0.1,0,0.1,0c0,0,0.1,0,0.1,0c0.1,0,0.1,0,0.2,0c0.1,0,0.2,0,0.2,0.1c0.1,0,0.1,0,0.2,0c0,0,0-0.1,0-0.2
		c0,0,0,0-0.1,0C17,4.1,16.8,4.1,16.7,4C16.7,4,16.7,4,16.7,4z M8.4,14.2C8.4,14.2,8.3,14.2,8.4,14.2c-0.1,0.1-0.1,0.2,0,0.2
		c0.2,0.2,0.3,0.4,0.5,0.6c0.1,0.1,0.1,0.2,0.2,0.3c0,0,0.1,0,0.1,0.1c0,0,0,0,0,0c0-0.1,0-0.1-0.1-0.2C9.2,15.1,9.1,15,9,14.9
		c-0.1-0.1-0.1-0.2-0.2-0.3c-0.1-0.1-0.1-0.2-0.2-0.3C8.5,14.3,8.5,14.2,8.4,14.2z M12.4,7.5C12.4,7.5,12.4,7.5,12.4,7.5
		C12.4,7.5,12.4,7.5,12.4,7.5c-0.1,0.1-0.2,0.2-0.3,0.3c0,0,0,0.1,0,0.1c0,0,0.1,0.1,0.1,0.1c0.1,0,0.1,0,0.2,0c0.1,0,0.1,0,0.2,0
		c0.1,0,0.1,0,0.2,0c0,0,0.1,0,0.1,0c0,0,0-0.1,0-0.1c0-0.1-0.1-0.1-0.1-0.2c0,0-0.1,0-0.1-0.1C12.5,7.5,12.5,7.5,12.4,7.5z
		 M11.1,10.8C11.1,10.8,11.1,10.8,11.1,10.8C11.1,10.8,11.1,10.8,11.1,10.8c-0.1,0-0.2,0-0.2,0.1c0,0.1,0,0.1,0.1,0.1
		c0.1,0,0.2,0,0.3,0.1c0.1-0.1,0.2,0,0.3,0c0,0,0,0,0,0c0.1,0,0.1,0,0.2,0c0,0,0,0,0.1,0c0.1,0,0.1,0,0.1,0c0,0,0,0,0.1,0
		c0,0,0,0,0,0c0,0,0,0,0,0c0,0,0,0-0.1,0c0,0-0.1,0-0.1,0c0,0,0,0-0.1,0c-0.1,0-0.2,0-0.2,0c-0.1,0-0.1,0-0.2,0
		C11.3,10.8,11.2,10.8,11.1,10.8z M11.4,18.8c0,0.1,0.1,0.2,0.3,0.2c0,0,0.1,0,0.1,0c0.1,0,0.3,0.1,0.4,0.1c0,0,0.1,0,0.1-0.1
		c0-0.1,0-0.1,0-0.1c-0.1,0-0.1-0.1-0.2-0.1c0,0-0.1,0-0.1,0c-0.1,0-0.3,0-0.4,0C11.4,18.7,11.3,18.7,11.4,18.8z M10.5,11.9
		c0.1,0,0.1,0,0.2,0c0,0,0,0,0.1,0c0.1,0,0.1,0,0.2,0c0,0,0.1,0,0-0.1c0-0.1-0.1-0.1-0.2-0.1c-0.2,0-0.3,0.1-0.5,0c0,0,0,0,0,0
		c0,0-0.1,0-0.1,0c-0.1,0-0.1,0-0.2,0.1c0,0,0,0.1,0,0.1c0,0,0.2,0.1,0.2,0.1C10.3,11.9,10.4,11.9,10.5,11.9z M9.8,10.9
		c0.1,0,0.1,0,0.2-0.1c0,0,0-0.1,0-0.1c0,0-0.1-0.1-0.2,0c0,0-0.1,0-0.1,0c-0.1,0-0.1,0-0.2,0c-0.1,0-0.2,0-0.2-0.1c0,0-0.1,0-0.1,0
		c0,0,0,0.1,0,0.1c0.1,0.1,0.1,0.2,0.3,0.2C9.5,10.9,9.7,10.9,9.8,10.9z M6.8,11.5c0.1,0,0.1,0,0.2-0.1C7,11.4,7,11.3,7,11.3
		c0,0-0.1,0-0.1-0.1C6.8,11,6.6,11,6.4,10.8c0,0-0.1,0-0.1,0c0,0,0,0.1,0,0.1c0,0.1,0.1,0.1,0.1,0.1c0.1,0.1,0.1,0.2,0.2,0.3
		C6.7,11.5,6.8,11.5,6.8,11.5z M18.8,8.6C18.8,8.6,18.8,8.6,18.8,8.6c0,0,0.1,0,0.1,0c0,0,0.1,0,0.1,0c0,0,0.1-0.1,0.1-0.1
		c0,0,0-0.1,0-0.2c0,0-0.1,0-0.1,0c0,0,0,0-0.1,0c0,0-0.1,0-0.1,0c-0.1,0-0.1,0.1-0.1,0.2c0,0.1,0,0.1-0.1,0.1c0,0-0.1,0-0.1,0
		c0,0-0.1,0-0.1,0c0,0,0,0.1,0,0.1c0,0,0,0,0.1,0.1c0.1,0,0.2,0.1,0.3,0.1c0,0,0.1,0,0.2-0.1c0-0.1,0-0.1,0-0.1
		C18.9,8.6,18.9,8.6,18.8,8.6C18.8,8.6,18.8,8.6,18.8,8.6z M12.3,3.7C12.3,3.7,12.3,3.7,12.3,3.7C12.2,3.7,12.2,3.7,12.3,3.7
		c-0.1,0.1-0.1,0.2,0,0.2c0,0,0,0,0.1,0c0.2,0,0.3,0.1,0.5,0.1c0,0,0,0,0.1,0c0,0,0.1,0,0.1,0c0,0,0.1,0,0.1-0.1c0,0,0-0.1,0-0.1
		c-0.1-0.1-0.1-0.2-0.3-0.1c0,0-0.1,0-0.1,0C12.5,3.7,12.4,3.7,12.3,3.7z M15.8,8C15.8,8,15.8,8,15.8,8C15.8,8,15.8,7.9,15.8,8
		c-0.1-0.1-0.2-0.2-0.2-0.2c-0.1-0.1-0.2-0.1-0.3-0.2c0,0,0,0,0,0c0,0-0.1,0-0.1,0c0,0,0,0,0,0.1c0,0,0,0,0,0.1
		c0.1,0.1,0.2,0.2,0.3,0.3c0.1,0.1,0.1,0.1,0.2,0.2c0,0.1,0.1,0.1,0.1,0.1c0.1,0,0.1-0.1,0.1-0.1C15.8,8.1,15.8,8.1,15.8,8z
		 M9.9,18.8C9.9,18.8,9.9,18.8,9.9,18.8C9.9,18.8,10,18.8,9.9,18.8c0.1,0,0.2,0,0.2-0.1c0,0,0-0.1,0-0.1c0,0,0,0,0,0
		c-0.1-0.1-0.2,0-0.3-0.1c0,0,0,0-0.1,0c0,0,0,0,0.1,0c0,0,0,0,0,0c0,0,0.1,0,0.1,0c0,0,0,0,0-0.1c-0.1,0-0.1-0.1-0.2-0.1
		c0,0-0.1,0-0.1,0c-0.1,0-0.1,0-0.1,0.1c0,0,0,0.1,0,0.1c0,0,0.1,0,0.1,0c0,0,0.1,0,0.1,0c0.1,0,0.1,0,0,0.1c0,0,0,0,0,0.1
		c0,0,0,0,0,0c0,0,0,0,0.1,0c0,0,0.1,0,0.1,0C9.8,18.8,9.8,18.8,9.9,18.8z M11,14.2c0,0-0.1,0-0.1,0c0,0-0.1,0.1-0.1,0.1
		c0,0,0,0.1,0.1,0.1c0,0,0.1,0,0.1,0c0,0,0.1,0,0.1,0c0.1,0,0.1,0,0.2,0c0.1-0.1,0.2-0.2,0.3-0.3c0,0,0-0.1,0-0.1c0,0-0.1,0-0.1,0
		c0,0-0.1,0.1-0.1,0.1C11.2,14.1,11.1,14.2,11,14.2z M16.9,9.6C16.9,9.7,16.9,9.7,16.9,9.6C17,9.7,17,9.8,17.1,9.8
		c0.2,0.1,0.3,0.1,0.5,0.2c0,0,0.1,0,0.1,0c0,0,0-0.1,0-0.1c0,0-0.1,0-0.1-0.1c0,0-0.1,0-0.1,0c-0.1,0-0.1-0.1-0.2-0.1
		c0,0-0.1,0-0.1-0.1c-0.1-0.1-0.1,0-0.2,0C16.9,9.5,16.9,9.6,16.9,9.6z M11.1,16.7c0.1,0,0.1,0,0.2,0c0,0,0.1,0,0.1,0
		c0.1-0.1,0.1-0.1,0.2-0.2c0,0,0-0.1,0-0.1c0,0,0,0-0.1,0c-0.1,0-0.2,0-0.3,0.1c-0.1,0-0.1,0.1-0.2,0.1c0,0-0.1,0-0.1,0
		c-0.1,0-0.1,0-0.1,0.1C10.9,16.6,11,16.6,11.1,16.7z M17.6,9.4c-0.1,0-0.2,0-0.2,0.1c0,0,0,0.1,0.1,0.1c0.2,0.1,0.4,0.2,0.5,0.3
		c0,0,0.1,0,0.1,0c0,0,0-0.1,0-0.1c0,0,0-0.1,0-0.1c-0.1-0.1-0.2-0.2-0.3-0.2C17.8,9.4,17.7,9.4,17.6,9.4z M16.9,14.9
		c0.1,0,0.1,0,0.2,0c0,0,0.1,0,0.1-0.1c0-0.1-0.1-0.1-0.2-0.1c0,0-0.1,0-0.1,0c0,0-0.1,0-0.1,0c0,0-0.1,0-0.1,0c-0.1,0-0.2,0-0.2,0
		c0,0,0,0,0,0c0,0-0.1,0-0.1,0c0,0-0.1,0-0.1,0c0,0-0.1,0-0.1,0c0,0-0.1,0-0.1,0c0,0,0,0.1,0.1,0.1c0.1,0,0.1,0,0.2,0
		c0.1,0,0.1,0,0.2,0c0,0,0,0,0.1,0c0,0,0.1,0,0.1,0c0,0,0.1,0,0.1,0c0,0,0.1,0,0.1,0C16.8,14.9,16.8,14.9,16.9,14.9
		C16.8,14.9,16.9,14.9,16.9,14.9z M8.2,15.9C8.2,15.9,8.2,15.9,8.2,15.9C8.2,15.9,8.2,15.9,8.2,15.9c0-0.1-0.1-0.2-0.1-0.2
		c-0.1-0.1-0.1-0.2-0.2-0.3c-0.1-0.1-0.1-0.2-0.2-0.2c-0.1-0.1-0.2-0.2-0.3-0.3c0,0-0.1,0-0.1,0c0,0,0,0.1,0,0.1
		c0.1,0.1,0.2,0.3,0.3,0.3c0,0,0,0,0,0c0,0,0.1,0.1,0.1,0.1c0.1,0.1,0.1,0.2,0.2,0.3C8.1,15.8,8.1,15.9,8.2,15.9
		C8.2,15.9,8.2,15.9,8.2,15.9z M17.6,10.2C17.5,10.2,17.5,10.2,17.6,10.2c-0.1,0.1-0.1,0.2,0,0.2c0.1,0.1,0.1,0.1,0.2,0.2
		c0.1,0.1,0.1,0.1,0.2,0c0-0.1,0.1-0.2,0.1-0.2c0,0,0-0.1,0-0.1C17.9,10.2,17.7,10.2,17.6,10.2z M10.2,17.9
		C10.2,17.9,10.2,17.9,10.2,17.9c0,0-0.1,0-0.1,0c0,0-0.1,0-0.1,0c0,0,0,0.1,0.1,0.1c0.1,0,0.1,0.1,0.2,0.1c0,0,0,0,0,0
		c0,0,0.1,0,0.1,0c0,0,0.1,0,0.1,0c0,0,0.1,0,0.1,0c0.1,0,0.1,0,0.1-0.1c0-0.1,0-0.1,0-0.1c-0.1,0-0.1,0-0.2-0.1c0,0-0.1,0-0.1,0
		C10.4,17.9,10.3,17.9,10.2,17.9z M11.4,2c0,0-0.1,0-0.1,0c0,0,0,0.1,0,0.1c0,0,0,0,0,0c0.1,0.1,0.2,0.2,0.3,0.3c0,0,0.1,0,0.1,0
		c0,0,0.1-0.1,0-0.2c-0.1-0.1-0.1-0.2-0.2-0.3C11.5,2,11.5,2,11.4,2z M18.7,9.1c-0.1,0-0.2,0-0.2,0.1c0,0,0,0-0.1,0c0,0,0,0.1,0,0.1
		c0,0,0,0.1,0.1,0.1c0.1,0,0.1,0,0.2,0.1c0.2,0,0.2,0,0.3-0.2C18.9,9.2,18.9,9.1,18.7,9.1z M3.1,4.3C3,4.3,3,4.4,3,4.4
		c0,0,0,0,0,0.1c0.1,0.1,0.1,0.2,0.2,0.3C3.3,4.9,3.4,5,3.5,5c0,0,0.1,0,0.1,0c0,0,0-0.1,0-0.1c0,0,0,0,0-0.1
		C3.5,4.7,3.3,4.6,3.2,4.4C3.2,4.4,3.1,4.4,3.1,4.3z M12.3,13.1C12.3,13.1,12.3,13.1,12.3,13.1C12.3,13.1,12.3,13.1,12.3,13.1
		c0.2,0,0.3-0.1,0.4-0.1c0,0,0.1-0.1,0.1-0.1c0-0.1,0-0.1-0.1-0.1c0,0-0.1,0-0.1,0c0,0-0.1,0-0.1,0c0,0-0.1,0-0.1,0c0,0-0.1,0-0.1,0
		c-0.1,0-0.1,0-0.2,0c0,0,0,0,0,0c0,0.1,0,0.1,0.1,0.1C12.1,13.1,12.2,13.1,12.3,13.1C12.2,13.1,12.3,13.1,12.3,13.1z M16.4,8.4
		c0,0-0.1,0-0.1,0c0,0-0.1,0-0.1,0.1c0,0,0,0.1,0.1,0.1c0.1,0,0.2,0.1,0.2,0.2c0.1,0.1,0.2,0,0.2-0.1c0,0,0-0.1,0-0.1
		c0,0,0-0.1,0-0.1c0,0-0.1,0-0.1,0C16.6,8.5,16.5,8.5,16.4,8.4C16.4,8.4,16.4,8.4,16.4,8.4z M11,5.9C11,5.9,11,5.9,11,5.9
		C11.1,6,11.2,6,11.3,6c0,0,0.1,0,0.1,0c0,0,0.1,0,0.1,0c0,0,0-0.1,0-0.1c0,0-0.1-0.1-0.1-0.1c-0.1,0-0.1,0-0.2,0
		c-0.1,0-0.1,0-0.1,0c0,0-0.1,0-0.1,0c0,0-0.1,0.1-0.1,0c0,0,0,0,0,0c0,0.1,0,0.1,0.1,0.1C10.8,5.9,10.9,6,11,5.9z M9.9,17.6
		C9.9,17.6,9.9,17.6,9.9,17.6c0,0-0.1,0-0.1,0c0,0,0,0.1,0,0.1c0.1,0,0.1,0,0.2,0.1c0,0,0.1,0,0.1,0c0.1,0,0.1,0,0.2,0
		c0.1,0,0.2,0,0.2,0c0,0,0.1,0,0.1,0c0,0,0.1-0.1,0-0.1c0,0-0.1-0.1-0.1-0.1c-0.1,0-0.2,0-0.3,0C10.1,17.6,10,17.6,9.9,17.6z
		 M10.2,9.2C10.1,9.2,10.1,9.2,10.2,9.2C9.9,9.2,9.8,9.2,9.7,9.2c-0.1,0-0.1,0-0.2,0c-0.1,0-0.1,0.1,0,0.1c0.1,0.1,0.1,0.1,0.2,0.1
		c0,0,0.1,0,0.1,0c0.1,0,0.1,0,0.1,0c0,0,0,0,0,0C10.1,9.4,10.2,9.3,10.2,9.2z M10.5,12c0,0-0.1,0.1-0.1,0.1c0,0.1,0,0.1,0.1,0.1
		c0,0,0,0,0,0c0.1,0.1,0.2,0.2,0.2,0.3c0,0,0.1,0,0.1,0c0.1,0,0.1-0.1,0-0.2c0,0-0.1-0.1,0-0.1c0-0.1,0-0.1,0-0.2
		C10.7,12.1,10.6,12.1,10.5,12z M11.3,16.7C11.3,16.7,11.3,16.7,11.3,16.7c-0.1,0-0.2,0.1-0.2,0.1c0,0,0.1,0.1,0.1,0.1
		c0,0,0.1,0,0.1,0c0.1,0,0.2,0.1,0.3,0c0.1,0,0.2,0,0.3-0.1c0,0,0,0,0.1,0c0,0,0,0,0.1,0c0,0,0,0,0,0c0,0-0.1,0-0.1,0
		c0,0-0.1,0-0.1,0c0,0-0.1,0-0.1,0c0,0,0,0-0.1,0C11.5,16.7,11.4,16.7,11.3,16.7z M17.4,7.9C17.4,7.9,17.4,7.9,17.4,7.9
		C17.4,7.9,17.4,7.9,17.4,7.9c0.1,0,0.1,0,0.2-0.1c0-0.1,0-0.1-0.1-0.1c-0.1,0-0.2-0.1-0.3-0.1c0,0,0,0,0,0c-0.1,0-0.2,0-0.3-0.1
		c0,0,0,0,0,0c0,0,0,0,0,0c0,0,0.1,0.1,0.1,0.1c0.1,0.1,0.2,0.1,0.3,0.1C17.3,7.9,17.4,7.9,17.4,7.9z M10.6,18.5
		C10.6,18.5,10.6,18.5,10.6,18.5c0.1,0,0.1,0,0.2,0c0.1,0,0.1,0,0.2,0c0-0.1,0-0.1,0-0.1c-0.1,0-0.1,0-0.2,0c-0.1,0-0.1,0-0.2,0
		c-0.1,0-0.1,0-0.2,0.1c0,0,0,0.1,0.1,0.1C10.5,18.5,10.5,18.5,10.6,18.5z M10.6,18.8c0,0.1,0,0.1,0.1,0.1c0.1,0,0.2,0,0.2,0
		c0.1,0,0.2-0.1,0.1-0.1c0-0.1-0.1-0.1-0.2-0.1c0,0-0.1,0-0.1,0C10.7,18.6,10.6,18.7,10.6,18.8z M13.8,8.3c-0.1,0-0.1,0.1-0.1,0.1
		c0.1,0.2,0.2,0.3,0.3,0.4c0,0,0.1,0,0.1,0c0.1-0.1,0.1-0.1,0-0.2c-0.1-0.1-0.1-0.1-0.2-0.2C13.9,8.4,13.9,8.4,13.8,8.3
		C13.8,8.3,13.8,8.3,13.8,8.3z M10,11.5C10,11.6,10.1,11.6,10,11.5C10.1,11.6,10.1,11.5,10,11.5C10.1,11.5,10.1,11.5,10,11.5
		C10,11.5,10,11.5,10,11.5c-0.1-0.1-0.2-0.2-0.2-0.3c0-0.1-0.1-0.1-0.2-0.2c0,0-0.1,0-0.1,0c0,0.1,0,0.1,0,0.2c0,0,0.1,0.1,0.1,0.1
		C9.8,11.6,9.9,11.6,10,11.5C10,11.6,10,11.6,10,11.5z M8.7,18.5c0-0.1-0.1-0.1-0.1-0.1c-0.1-0.1-0.1-0.1-0.2-0.2
		c0,0-0.1-0.1-0.2-0.1c0,0,0,0-0.1,0c0,0,0,0,0,0c0,0.1,0.1,0.1,0.1,0.2c0.1,0.1,0.2,0.2,0.3,0.3C8.6,18.6,8.6,18.6,8.7,18.5
		C8.7,18.6,8.7,18.5,8.7,18.5z M5.2,4.9C5.3,4.8,5.3,4.8,5.2,4.9c0.2-0.1,0.2-0.2,0.1-0.2c-0.1,0-0.1,0-0.2,0c-0.1,0-0.1,0-0.2,0
		c-0.1,0-0.1,0-0.2,0c0,0,0,0-0.1,0.1c0,0,0,0,0.1,0.1c0,0,0.1,0,0.1,0c0,0,0.1,0,0.1,0C5,4.7,5.1,4.8,5.2,4.9
		C5.2,4.8,5.2,4.8,5.2,4.9z M11.3,18.4C11.3,18.4,11.3,18.4,11.3,18.4C11.3,18.4,11.3,18.4,11.3,18.4c-0.1,0-0.1,0-0.1,0.1
		c0,0,0,0.1,0,0.1c0.1,0,0.1,0.1,0.2,0c0,0,0.1,0,0.1,0c0.1,0,0.1,0,0.2,0c0,0,0,0,0.1-0.1c0,0,0-0.1,0-0.1c0,0-0.1,0-0.1,0
		c0,0-0.1,0-0.1,0C11.4,18.4,11.4,18.4,11.3,18.4z M14.6,9.3C14.6,9.3,14.6,9.3,14.6,9.3c-0.1,0.1-0.1,0.2,0,0.3c0,0,0.1,0,0.1,0
		c0.1,0,0.1,0,0.1,0.1c0,0,0.1,0.1,0.1,0.1c0,0,0,0,0,0c0.1,0,0.1-0.1,0.1-0.2c-0.1-0.1-0.2-0.2-0.2-0.3C14.7,9.4,14.7,9.3,14.6,9.3
		z M4.5,6.2C4.6,6.2,4.6,6.1,4.5,6.2c0-0.1,0-0.2,0-0.2c0-0.1-0.1-0.1-0.1-0.2c-0.1,0-0.1-0.1-0.2-0.1c0,0,0,0-0.1,0c0,0,0,0-0.1,0
		c0,0,0,0,0,0.1C4.2,5.8,4.3,6,4.5,6.2C4.5,6.1,4.5,6.2,4.5,6.2z M10.4,11c0.1,0,0.1,0,0.2,0c0,0,0.1,0,0.1,0c0,0,0.1,0,0.1-0.1
		c0-0.1,0-0.1-0.1-0.1c-0.1,0-0.1,0-0.2,0c-0.1,0-0.2,0-0.3,0c0,0-0.1,0,0,0.1C10.3,11,10.3,11,10.4,11z M11.3,13
		c0,0.1,0,0.1,0.1,0.2c0.1,0,0.1,0,0.2,0c0,0,0.1-0.1,0-0.1c0,0-0.1-0.1-0.1-0.1c-0.1-0.1-0.1-0.1-0.2-0.1
		C11.3,12.9,11.3,12.9,11.3,13z M0.9,8.5C0.9,8.5,0.9,8.5,0.9,8.5C0.8,8.4,0.7,8.3,0.6,8.2c0,0-0.1,0-0.1,0c0,0,0,0.1,0,0.1
		c0,0,0,0,0,0c0.1,0.1,0.1,0.2,0.2,0.3C0.8,8.6,0.8,8.7,0.9,8.5C0.9,8.6,0.9,8.6,0.9,8.5z M16.7,9.4c0,0,0.1,0,0.1-0.1
		c0.1-0.1,0.1-0.1,0-0.2c-0.1-0.1-0.1-0.1-0.2-0.1c0,0-0.1,0-0.1,0c0,0,0,0.1,0,0.1C16.5,9.2,16.6,9.3,16.7,9.4
		C16.6,9.4,16.7,9.4,16.7,9.4z M9.6,19.7C9.6,19.7,9.6,19.7,9.6,19.7c0.2,0,0.2-0.1,0.2-0.1c0-0.1-0.1-0.1-0.1-0.1
		c-0.1,0-0.1,0-0.2,0c0,0-0.1,0-0.1,0c0,0,0,0.1,0,0.2C9.4,19.6,9.5,19.7,9.6,19.7z M10.6,1.2c0,0,0,0.1,0.1,0.1
		c0.1,0,0.2,0.1,0.2,0.1c0,0,0.1,0,0.1,0c0-0.1,0-0.1,0-0.2c0,0-0.1-0.1-0.1-0.1c0,0-0.1,0-0.1,0C10.6,1.1,10.6,1.1,10.6,1.2z
		 M11.1,18.1C11.1,18.1,11,18.1,11.1,18.1c-0.1,0.1-0.1,0.2,0,0.2c0.1,0.1,0.2,0,0.3,0.1c0.1,0,0.1-0.1,0.1-0.1c0,0,0,0-0.1,0
		c-0.1,0-0.2,0-0.3-0.1C11.2,18.1,11.2,18.1,11.1,18.1z M16,7.4C16,7.4,16,7.4,16,7.4C16,7.5,16,7.5,16,7.6c0.1,0.1,0.2,0.2,0.3,0.2
		c0,0,0.1,0,0.1,0c0,0,0-0.1,0-0.1c0,0-0.1-0.1-0.1-0.1C16.2,7.5,16.1,7.4,16,7.4z M18.5,5C18.5,5,18.5,4.9,18.5,5
		c-0.1-0.1-0.1-0.1-0.2-0.1c-0.1,0-0.2-0.1-0.3-0.1c0,0-0.1,0-0.1,0c0,0.1,0,0.1,0.1,0.2c0,0,0,0,0.1,0c0.1,0,0.1,0,0.2,0
		C18.4,5,18.4,5,18.5,5C18.5,5,18.5,5,18.5,5z M6.3,6.7C6.4,6.7,6.4,6.7,6.3,6.7C6.4,6.7,6.4,6.7,6.3,6.7C6.4,6.7,6.4,6.7,6.3,6.7
		c0-0.1-0.1-0.2-0.2-0.1c0,0,0,0,0,0c-0.1,0-0.2-0.1-0.3,0c0,0-0.1,0-0.1,0c0,0,0,0-0.1,0c0,0,0,0,0,0c0,0,0,0,0,0
		c0,0.1,0.2,0.1,0.2,0.1c0,0,0.1,0,0.1,0C6.1,6.7,6.2,6.7,6.3,6.7z M14.8,6.9c0-0.1-0.1-0.2-0.2-0.2c0,0-0.1,0-0.1,0
		c0,0,0,0.1,0,0.1c0,0.1,0.1,0.1,0.1,0.2C14.7,7.1,14.8,7.1,14.8,6.9C14.8,7,14.8,7,14.8,6.9z M9.9,9.7c-0.1,0-0.1,0-0.1,0.1
		c0,0,0,0.1,0,0.1c0.1,0,0.3,0,0.4,0c0.1,0,0.1,0,0.1-0.1c0,0-0.1-0.1-0.1-0.1C10.1,9.7,10,9.7,9.9,9.7z M17.5,14.9
		C17.5,14.9,17.5,14.9,17.5,14.9c0.1,0,0.1,0,0.2,0c0,0,0,0,0-0.1c0-0.1-0.1-0.1-0.2-0.1c-0.1,0-0.2,0-0.3,0c0,0-0.1,0-0.1,0.1
		c0,0.1,0.1,0.1,0.1,0.1C17.3,14.9,17.4,14.9,17.5,14.9z M17.6,13.5C17.7,13.5,17.7,13.5,17.6,13.5c0.1-0.1,0-0.1,0-0.2
		c-0.1,0-0.2-0.1-0.3,0c0,0,0,0,0,0c0,0-0.1,0-0.1,0.1c0,0,0,0.1,0.1,0.1C17.4,13.5,17.5,13.5,17.6,13.5z M14.4,2.2
		c-0.1,0-0.1,0-0.1,0.1c0,0.1,0,0.1,0.1,0.1c0.1,0,0.1,0,0.2,0c0,0,0,0,0,0c0,0,0.1-0.1,0.1-0.1c0,0,0-0.1-0.1-0.1
		C14.6,2.2,14.5,2.2,14.4,2.2z M7.3,8.9C7.1,8.9,7.1,9,7.1,9.1c0,0,0.2,0.1,0.2,0.1c0.1,0,0.1,0,0.1-0.1c0-0.1,0-0.1-0.1-0.1
		C7.4,9,7.3,8.9,7.3,8.9z M2.5,8.8C2.4,8.8,2.4,8.8,2.5,8.8C2.4,8.9,2.5,9,2.6,9c0,0,0.1,0,0.1,0c0,0,0.1,0,0.1,0c0,0,0-0.1,0-0.1
		c0,0-0.1-0.1-0.1-0.1C2.6,8.8,2.5,8.8,2.5,8.8z M19.3,7.2C19.3,7.2,19.3,7.2,19.3,7.2c0,0-0.1,0-0.1,0c0,0,0,0,0,0.1
		c0,0.1,0.1,0.1,0.1,0.1c0,0,0.1,0,0.1,0c0,0,0.1,0,0.1,0c0,0,0-0.1,0-0.2c0,0,0,0,0,0C19.4,7.2,19.4,7.2,19.3,7.2z M7,2.3
		C7,2.3,7,2.3,7,2.3C7.1,2.3,7.1,2.3,7,2.3C7.1,2.2,7.1,2.2,7,2.3C7,2.2,7,2.1,6.9,2.1c0,0-0.1,0-0.1,0c0,0-0.1,0-0.1,0
		c0,0,0,0-0.1,0c0,0-0.1,0-0.1,0c0,0,0,0.1,0,0.1c0.1,0,0.1,0.1,0.2,0.1C6.9,2.3,7,2.3,7,2.3z M5.3,3.5C5.3,3.5,5.3,3.5,5.3,3.5
		c0.1,0.1,0.1,0.1,0.2,0.1c0,0,0,0,0.1,0c0.1-0.1,0.1,0,0.2,0c0.1,0,0.1,0,0.1,0c0-0.1,0-0.1-0.1-0.1c-0.1,0-0.2,0-0.2,0
		C5.5,3.5,5.4,3.5,5.3,3.5z M14.6,2c0,0.1,0,0.1,0.1,0.1c0.1,0,0.1,0,0.1,0c0,0,0,0,0.1,0C15,2,15,2,15,1.9c0-0.1-0.1-0.1-0.1-0.1
		C14.8,1.9,14.7,1.9,14.6,2C14.7,1.9,14.6,1.9,14.6,2z M10.8,4.5c0,0,0-0.1,0-0.1c0,0-0.1-0.1-0.1-0.1c0-0.1-0.1-0.1-0.1,0
		c0,0-0.1,0.1,0,0.2c0,0,0.1,0.1,0.1,0.1C10.6,4.6,10.7,4.6,10.8,4.5C10.7,4.6,10.7,4.5,10.8,4.5z M1.5,8.4c0,0,0-0.1-0.1-0.1
		c0-0.1-0.1-0.1-0.2-0.1c0,0-0.1,0-0.1,0c0,0,0,0.1,0,0.1c0,0,0.1,0.1,0.1,0.1c0,0,0.1,0.1,0.1,0.1C1.4,8.4,1.4,8.4,1.5,8.4z
		 M11.1,18c0,0,0.1,0,0.1,0c0,0,0,0,0-0.1c0-0.1-0.1-0.1-0.1-0.1c-0.1,0-0.1,0-0.2,0c0,0-0.1,0-0.1,0c0,0.1,0,0.1,0,0.1
		C10.9,17.9,11,17.9,11.1,18z M6.8,8.4C6.8,8.4,6.8,8.4,6.8,8.4C6.8,8.3,6.7,8.3,6.7,8.3c-0.1,0-0.2,0-0.2,0.1c0,0,0,0,0,0
		c0.1,0.1,0.1,0.1,0.2,0.1C6.8,8.6,6.8,8.5,6.8,8.4z M11.5,14.4c0.1,0,0.1,0,0.2,0c0.1,0,0.1-0.1,0.1-0.2c0,0,0,0-0.1,0
		C11.7,14.1,11.5,14.3,11.5,14.4C11.5,14.4,11.5,14.4,11.5,14.4z M11.6,19.1C11.6,19.1,11.6,19.1,11.6,19.1c-0.1,0-0.1,0.1-0.1,0.1
		c0,0,0.1,0.1,0.1,0.1c0.1,0,0.1,0,0.2,0c0,0,0.1,0,0.1,0c0,0,0,0,0,0c0,0-0.1-0.1-0.1-0.1C11.8,19.1,11.7,19.1,11.6,19.1z M11.5,12
		C11.5,12,11.5,12,11.5,12c-0.1-0.1-0.2,0-0.2,0.1c0,0,0,0.1,0,0.1C11.4,12.2,11.5,12.2,11.5,12c0,0.1,0.1,0.1,0.1,0.1
		c0,0,0.1,0,0.1,0c0,0,0-0.1,0-0.1C11.6,12,11.6,12,11.5,12z M14.2,3.8C14.2,3.8,14.2,3.8,14.2,3.8C14.2,3.8,14.2,3.8,14.2,3.8
		c0.1,0,0.1,0,0.1,0c0,0,0-0.1,0-0.1c0,0-0.1,0-0.1,0c-0.1,0-0.1,0-0.1,0c0,0-0.1-0.1-0.1,0c0,0,0,0.1,0,0.1c0,0.1,0,0.1,0.1,0.1
		C14,3.8,14.1,3.8,14.2,3.8z M13.5,15.5C13.5,15.5,13.5,15.5,13.5,15.5c0,0,0.1,0,0.1,0c0,0,0.1,0,0.1,0c0,0,0.1,0,0,0
		c0,0,0-0.1-0.1-0.1c0,0-0.1,0-0.1,0c0,0-0.1,0-0.1,0c-0.1-0.1-0.1-0.1-0.2,0c0,0,0,0.1,0,0.1C13.4,15.5,13.4,15.5,13.5,15.5z
		 M10.9,13.9C10.9,13.9,10.9,13.9,10.9,13.9c0.1,0,0.2-0.1,0.2-0.1c0,0,0,0,0-0.1c-0.1,0-0.2,0-0.3,0.1
		C10.8,13.8,10.8,13.9,10.9,13.9C10.9,13.9,10.9,13.9,10.9,13.9z M9.6,8.1C9.6,8.1,9.5,8,9.4,8c0,0-0.1,0-0.1,0c0,0-0.1,0-0.1,0
		c0,0,0,0.1,0,0.1c0,0,0.1,0,0.2,0c0,0,0.1,0,0.1,0C9.5,8.2,9.5,8.2,9.6,8.1C9.6,8.2,9.6,8.2,9.6,8.1z M11.2,19.3
		C11.2,19.3,11.1,19.3,11.2,19.3c-0.1,0.1-0.1,0.2,0,0.2c0,0,0.1,0,0.1,0.1c0,0,0.1,0,0.1,0C11.4,19.4,11.3,19.3,11.2,19.3z
		 M19.4,11.5c0,0.1,0.1,0.2,0.1,0.2c0.1,0,0.1,0,0.1-0.1c0-0.1,0-0.1-0.1-0.1c0,0,0,0-0.1,0C19.5,11.4,19.4,11.4,19.4,11.5z
		 M11,12.4c0,0.1,0.1,0.2,0.1,0.2c0,0,0.1-0.1,0.1-0.1c0-0.1-0.1-0.1-0.1-0.1C11,12.3,11,12.4,11,12.4z M5.9,7.5
		c0-0.1-0.1-0.2-0.2-0.2c0,0-0.1,0-0.1,0c0,0.1,0,0.2,0.1,0.2c0,0,0,0,0.1,0C5.8,7.6,5.9,7.6,5.9,7.5z M7.6,9.4
		C7.5,9.4,7.5,9.4,7.6,9.4c-0.1,0.1,0,0.1,0,0.2c0,0,0.1,0,0.1,0.1c0,0,0.1,0,0.1,0c0,0,0-0.1,0-0.1c0,0,0-0.1-0.1-0.1
		C7.7,9.4,7.7,9.4,7.6,9.4C7.6,9.4,7.6,9.4,7.6,9.4z M12.9,8c0,0.1,0,0.1,0.1,0.1c0,0,0,0,0.1,0c0,0,0.1,0,0.1,0c0,0,0,0,0-0.1
		c0,0,0-0.1,0-0.1C13.1,8,13,8,13,8C12.9,7.9,12.9,8,12.9,8z M10.6,14.5C10.6,14.5,10.6,14.5,10.6,14.5c0,0-0.1,0-0.1,0
		c0,0-0.1,0,0,0.1c0,0,0,0.1,0.1,0.1c0,0,0,0,0.1,0c0,0,0.1,0,0.1,0c0,0,0.1,0,0.1,0c0,0,0-0.1,0-0.1c0,0,0,0,0,0
		C10.7,14.5,10.6,14.5,10.6,14.5z M15.1,2.8c0-0.1,0-0.1-0.1-0.1c0,0-0.1,0-0.1,0c0,0-0.1,0-0.1,0c0,0,0,0.1,0,0.1
		c0,0,0,0.1,0.1,0.1c0.1,0,0.1,0,0.1,0.1C15,2.8,15.1,2.8,15.1,2.8C15.1,2.8,15.1,2.8,15.1,2.8z M5.2,6.8c0-0.1-0.1-0.2-0.2-0.2
		C5,6.6,5,6.7,5,6.7C5,6.8,5,6.8,5.1,6.9C5.2,6.9,5.2,6.9,5.2,6.8z M3.7,4.5C3.7,4.5,3.7,4.5,3.7,4.5C3.7,4.5,3.7,4.5,3.7,4.5
		c0.1,0,0.1,0,0.1,0C3.8,4.5,3.8,4.4,3.7,4.5c0.1-0.1,0.1-0.1,0.1-0.1c-0.1-0.1-0.2-0.1-0.2,0c0,0,0,0.1,0,0.1
		C3.6,4.5,3.6,4.5,3.7,4.5z M9.8,14.9C9.8,14.9,9.8,14.9,9.8,14.9c0.1-0.1,0.1-0.1,0.1-0.2c0,0-0.1-0.1-0.1-0.1
		c-0.1,0-0.1,0-0.1,0.1C9.6,14.8,9.6,14.9,9.8,14.9z M10.6,17.4c0,0.1,0.1,0.1,0.1,0.2c0,0,0.1,0,0.1,0c0,0,0-0.1,0-0.1
		c0,0,0-0.1,0-0.1C10.8,17.3,10.7,17.3,10.6,17.4C10.7,17.3,10.6,17.3,10.6,17.4z M11.2,13c0-0.1,0-0.2-0.1-0.2c0,0-0.1,0-0.1,0
		C11,12.9,11,13,11.1,13C11.2,13.1,11.2,13,11.2,13z M16.5,15.7c0.1,0,0.1,0,0.2,0c0.1,0,0.1,0,0.2,0c0,0,0,0,0-0.1c0,0-0.1,0-0.1,0
		c0,0-0.1,0-0.1,0C16.6,15.6,16.6,15.6,16.5,15.7z M17.2,8.7C17.2,8.7,17.2,8.7,17.2,8.7c0,0,0-0.1-0.1-0.1c-0.1,0-0.1,0-0.2,0.1
		c0,0,0,0.1,0.1,0.1C17,8.8,17.2,8.7,17.2,8.7C17.2,8.7,17.2,8.7,17.2,8.7z M19.2,6.5c0-0.1,0-0.1-0.1-0.1c-0.1,0-0.1,0.1-0.1,0.1
		c0,0,0.1,0.1,0.1,0.1C19.2,6.6,19.2,6.6,19.2,6.5z M19,14.1c0-0.1,0-0.1-0.1-0.2c-0.1,0-0.1,0-0.1,0c0,0.1,0,0.2,0.1,0.2
		C19,14.2,19,14.2,19,14.1z M11.7,17.2c0,0.1,0,0.1,0.1,0.1c0,0,0.1,0,0.1,0c0.1,0,0.1,0,0-0.1c0,0,0,0,0,0
		C11.9,17.2,11.8,17.1,11.7,17.2C11.7,17.2,11.7,17.2,11.7,17.2z M9.6,16.1c-0.1,0-0.1,0-0.1,0.1c0,0.1,0.1,0.1,0.1,0.1
		c0.1,0,0.1,0,0.1-0.1C9.8,16.1,9.7,16.1,9.6,16.1z M17.2,5c-0.1,0-0.1,0-0.1,0c0,0,0,0-0.1,0c0,0,0,0,0.1,0.1c0,0,0,0,0.1,0
		c0,0,0.1,0,0.1,0c0,0,0.1,0,0.1,0c0,0,0.1-0.1,0-0.1C17.3,5,17.2,5,17.2,5z M12.8,3.2C12.8,3.2,12.8,3.2,12.8,3.2
		C12.8,3.2,12.8,3.2,12.8,3.2c0.1,0,0.1,0,0.1,0C12.9,3.1,12.9,3.1,12.8,3.2c0-0.2,0-0.2-0.1-0.1c0,0,0,0-0.1,0.1
		C12.6,3.1,12.6,3.2,12.8,3.2C12.7,3.2,12.7,3.2,12.8,3.2z M9.4,19.8c0-0.1-0.1-0.1-0.1-0.1c-0.1,0-0.1,0-0.1,0.1c0,0.1,0,0,0.1,0
		c0,0,0,0,0,0C9.3,19.9,9.4,19.9,9.4,19.8z M11.1,19c-0.1,0-0.1,0-0.1,0.1c0,0.1,0.1,0.1,0.1,0.1C11.1,19.2,11.2,19.2,11.1,19
		C11.2,19.1,11.1,19,11.1,19z M13.5,8.1C13.5,8.1,13.5,8.1,13.5,8.1c0,0.1,0.1,0.2,0.1,0.2c0,0,0.1-0.1,0.1-0.1c0,0,0-0.1,0-0.1
		C13.7,8.1,13.6,8.1,13.5,8.1z M17.6,5.2C17.7,5.2,17.7,5.2,17.6,5.2C17.7,5.2,17.7,5.2,17.6,5.2c0-0.1,0-0.2-0.1-0.2
		c0,0-0.1,0-0.1,0c0,0,0,0.1,0,0.1C17.5,5.2,17.6,5.2,17.6,5.2z M8.2,10.2C8.2,10.2,8.3,10.2,8.2,10.2c0.1,0.1,0.1,0.2,0.2,0.2
		c0,0,0,0,0,0c0,0,0,0,0,0c0,0,0,0,0-0.1c0-0.1-0.1-0.1-0.1-0.2C8.3,10.1,8.3,10.1,8.2,10.2C8.3,10.1,8.2,10.1,8.2,10.2z M10.1,15.2
		c-0.1,0-0.1,0.1-0.1,0.1c0,0,0.1,0.1,0.1,0.1C10.1,15.4,10.2,15.3,10.1,15.2C10.2,15.2,10.1,15.2,10.1,15.2z M9.1,15.9
		C9.1,16,9,16,9.1,15.9C9,16,8.9,16,9,16.1c0,0,0.1,0.1,0.1,0c0,0,0.1,0,0.1,0c0,0,0,0,0.1,0c0,0,0,0,0,0C9.2,16,9.1,16,9.1,15.9z
		 M13.4,16.1C13.4,16.1,13.3,16.1,13.4,16.1c-0.1,0.1,0,0.2,0,0.2c0,0,0.1,0,0.1-0.1C13.6,16.1,13.5,16.1,13.4,16.1z M1.7,7.8
		C1.7,7.7,1.7,7.7,1.7,7.8c-0.1-0.1-0.2,0-0.2,0c0,0.1,0,0.1,0.1,0.1C1.6,7.9,1.7,7.8,1.7,7.8z M13.4,3.9c-0.1,0-0.1,0-0.1,0.1
		c0,0,0.1,0.1,0.1,0.1C13.4,4.1,13.4,4,13.4,3.9C13.4,3.9,13.4,3.9,13.4,3.9z M13.1,11.4C13.2,11.4,13.2,11.4,13.1,11.4
		c0.1-0.1,0.1-0.1,0-0.2c0,0,0,0,0,0c0,0-0.1,0-0.1,0C13,11.3,13,11.3,13.1,11.4C13,11.4,13.1,11.4,13.1,11.4z M13.7,3.4
		c0,0,0.1,0,0.1-0.1c0,0,0-0.1,0-0.1c0-0.1-0.1,0-0.1,0C13.6,3.3,13.6,3.3,13.7,3.4C13.6,3.3,13.7,3.4,13.7,3.4z M15.5,14.7
		c0,0-0.1,0-0.1,0.1c0,0,0,0,0,0c0,0,0,0,0,0c0,0,0.1,0,0.1,0c0,0,0.1,0,0.1,0C15.6,14.8,15.6,14.8,15.5,14.7
		C15.5,14.8,15.5,14.8,15.5,14.7z M7.7,13C7.7,13,7.7,13,7.7,13c-0.1-0.1-0.1-0.1-0.1-0.2c0,0,0,0-0.1,0c0,0,0,0.1,0,0.1
		C7.6,12.9,7.6,13,7.7,13C7.7,13,7.7,13,7.7,13C7.7,13.1,7.7,13,7.7,13z M12.5,3.4C12.4,3.4,12.4,3.4,12.5,3.4c-0.1,0.1,0,0.1,0,0.1
		c0,0,0.1,0,0.1,0c0,0,0,0,0,0c0,0,0,0,0,0C12.6,3.5,12.5,3.4,12.5,3.4z M12.2,2.9C12.2,2.9,12.2,3,12.2,2.9c-0.1,0.1,0,0.2,0,0.2
		c0,0,0.1,0,0.1-0.1C12.3,3,12.3,2.9,12.2,2.9z M15.8,14.9C15.8,14.9,15.8,14.9,15.8,14.9c0.1-0.1,0-0.1,0-0.1c0,0-0.1,0-0.1,0
		c0,0,0,0-0.1,0c0,0,0,0.1,0,0.1C15.7,14.9,15.7,14.9,15.8,14.9z M5.5,6.8C5.5,6.8,5.5,6.8,5.5,6.8c0.1,0.1,0.2,0,0.2-0.1
		c0,0,0-0.1-0.1-0.1C5.6,6.7,5.5,6.7,5.5,6.8z M18.7,11.3C18.7,11.3,18.7,11.4,18.7,11.3c0.1,0.1,0.2,0,0.2,0c0,0,0-0.1-0.1-0.1
		C18.8,11.2,18.7,11.3,18.7,11.3z M17.8,8.8C17.8,8.8,17.8,8.7,17.8,8.8c-0.1-0.1-0.1-0.1-0.1,0C17.6,8.9,17.7,8.9,17.8,8.8
		C17.8,8.9,17.8,8.9,17.8,8.8z M9.7,8.1C9.7,8.1,9.7,8.1,9.7,8.1C9.7,8.1,9.7,8.1,9.7,8.1C9.7,8.1,9.7,8.1,9.7,8.1
		c0,0.1,0.1,0.1,0.1,0c0,0,0-0.1,0-0.1C9.8,8.1,9.8,8.1,9.7,8.1z M9.5,5.6C9.6,5.6,9.6,5.6,9.5,5.6c0.1-0.1,0-0.1,0-0.1
		c0,0-0.1,0-0.1,0.1C9.4,5.6,9.5,5.6,9.5,5.6z M17.1,13.5C17.1,13.5,17.2,13.5,17.1,13.5c0.1-0.1,0.1-0.1,0-0.1
		C17,13.3,17,13.4,17.1,13.5C17,13.5,17,13.5,17.1,13.5z M6.1,5.9c0,0,0.1,0,0.1-0.1c0,0,0,0,0,0c0,0,0,0,0-0.1c0,0-0.1,0-0.1,0
		C6.1,5.8,6.1,5.8,6.1,5.9z M3.5,17.4c0,0,0.2-0.1,0.1-0.1c0,0,0,0,0,0C3.5,17.3,3.5,17.3,3.5,17.4C3.5,17.4,3.5,17.4,3.5,17.4
		C3.5,17.4,3.5,17.4,3.5,17.4z M19,12.5c0,0.1,0.1,0.1,0.1,0.1c0,0,0,0,0,0C19.2,12.5,19.1,12.4,19,12.5C19,12.5,19,12.5,19,12.5z
		 M19.3,12.3C19.3,12.3,19.3,12.4,19.3,12.3c0.1,0,0.2,0,0.1-0.1c0,0,0-0.1-0.1-0.1C19.4,12.2,19.3,12.3,19.3,12.3z M3.7,3
		C3.7,3,3.7,3.1,3.7,3c0,0.1,0,0.1,0.1,0.1c0,0,0,0,0.1,0C3.8,3.1,3.8,3,3.7,3z M6.3,3.7C6.3,3.7,6.3,3.6,6.3,3.7
		c0-0.1,0-0.1-0.1-0.1c0,0,0,0,0,0C6.2,3.6,6.2,3.7,6.3,3.7z M8,6.7C8,6.7,8,6.7,8,6.7C8,6.8,8,6.8,8,6.8C8.1,6.8,8.1,6.8,8,6.7
		C8.1,6.7,8.1,6.7,8,6.7z M6.1,3.5C6,3.6,6,3.6,6.1,3.5C6,3.6,6,3.7,6.1,3.7C6.1,3.7,6.1,3.7,6.1,3.5C6.1,3.6,6.1,3.6,6.1,3.5z
		 M14.5,1.4C14.4,1.4,14.4,1.4,14.5,1.4c-0.1-0.1-0.1,0-0.1,0C14.3,1.5,14.4,1.5,14.5,1.4C14.4,1.5,14.4,1.5,14.5,1.4z M17.9,14.4
		c-0.1,0-0.1-0.1-0.1-0.1c0,0,0,0,0,0C17.8,14.4,17.8,14.4,17.9,14.4C17.8,14.4,17.9,14.4,17.9,14.4z M15.8,10.7
		c0,0-0.1-0.1-0.1-0.1c0,0,0,0,0,0C15.7,10.7,15.7,10.7,15.8,10.7C15.8,10.7,15.8,10.7,15.8,10.7z M12.1,8.1C12,8.1,12,8,12.1,8.1
		c-0.1-0.1-0.1,0-0.1,0C11.9,8.1,12,8.1,12.1,8.1C12,8.1,12,8.1,12.1,8.1z M6,5.8C6.1,5.8,6.1,5.8,6,5.8c0-0.1,0-0.1,0-0.1
		C6,5.7,6,5.7,6,5.8C6,5.8,6,5.8,6,5.8z M12,12C12,12,12,12,12,12c-0.1,0-0.1,0-0.2,0c0,0,0,0,0,0C11.9,12.1,12,12.1,12,12z
		 M5.3,14.7c0,0,0.1,0.1,0.1,0.1C5.4,14.7,5.4,14.6,5.3,14.7z M12.8,4.3C12.8,4.3,12.8,4.3,12.8,4.3c-0.1-0.1-0.1,0-0.1,0
		C12.7,4.3,12.7,4.3,12.8,4.3C12.8,4.4,12.8,4.3,12.8,4.3z M3.6,3.2C3.6,3.1,3.6,3.1,3.6,3.2c0-0.1,0-0.1,0-0.1
		C3.5,3,3.5,3.1,3.6,3.2C3.5,3.1,3.5,3.1,3.6,3.2z M6.5,5.9C6.5,5.9,6.4,5.9,6.5,5.9c-0.1-0.1-0.1,0-0.1,0C6.4,5.9,6.4,5.9,6.5,5.9
		C6.5,5.9,6.5,5.9,6.5,5.9z M7.1,0.5C7,0.6,7,0.6,7.1,0.5C7,0.6,7.1,0.6,7.1,0.5C7.1,0.6,7.1,0.6,7.1,0.5C7.1,0.6,7.1,0.6,7.1,0.5z
		 M17.7,14.4C17.6,14.4,17.6,14.4,17.7,14.4C17.6,14.3,17.6,14.4,17.7,14.4C17.6,14.4,17.6,14.4,17.7,14.4
		C17.6,14.4,17.6,14.4,17.7,14.4z M13.2,16.1C13.2,16.1,13.2,16.1,13.2,16.1c0,0.1,0,0.1,0,0.1C13.2,16.2,13.3,16.2,13.2,16.1
		C13.3,16.1,13.3,16.1,13.2,16.1z M1,9.6C1,9.6,1,9.6,1,9.6c0,0.1,0,0.1,0,0.1C1.1,9.6,1.1,9.6,1,9.6C1.1,9.6,1,9.6,1,9.6z
		 M11.9,9.9C11.9,9.9,11.8,9.9,11.9,9.9C11.8,9.9,11.8,9.9,11.9,9.9C11.8,9.9,11.8,9.9,11.9,9.9C11.8,9.9,11.9,9.9,11.9,9.9z"/>
</g>
</svg>
